<?xml version="1.0" encoding="UTF-8"?><svg xmlns="http://www.w3.org/2000/svg" xmlns:xlink="http://www.w3.org/1999/xlink" contentStyleType="text/css" height="509px" preserveAspectRatio="none" style="width:1227px;height:509px;background:#FFFFFF;" version="1.1" viewBox="0 0 1227 509" width="1227px" zoomAndPan="magnify">
    <defs/>
    <g>
        <!--cluster com-->
        <g id="cluster_com">
            <path d="M433.5,6 L463.5,6 A3.75,3.75 0 0 1 466,8.5 L473,29.6094 L734.5,29.6094 A2.5,2.5 0 0 1 737,32.1094 L737,239.5 A2.5,2.5 0 0 1 734.5,242 L433.5,242 A2.5,2.5 0 0 1 431,239.5 L431,8.5 A2.5,2.5 0 0 1 433.5,6 " fill="none" style="stroke:#000000;stroke-width:1.5;"/>
            <line style="stroke:#000000;stroke-width:1.5;" x1="431" x2="473" y1="29.6094" y2="29.6094"/>
            <text fill="#000000" font-family="sans-serif" font-size="14" font-weight="bold" lengthAdjust="spacing" textLength="29" x="435" y="22.5332">com</text>
        </g>
        <!--cluster mycompany-->
        <g id="cluster_mycompany">
            <path d="M457.5,50 L539.5,50 A3.75,3.75 0 0 1 542,52.5 L549,73.6094 L710.5,73.6094 A2.5,2.5 0 0 1 713,76.1094 L713,215.5 A2.5,2.5 0 0 1 710.5,218 L457.5,218 A2.5,2.5 0 0 1 455,215.5 L455,52.5 A2.5,2.5 0 0 1 457.5,50 " fill="none" style="stroke:#000000;stroke-width:1.5;"/>
            <line style="stroke:#000000;stroke-width:1.5;" x1="455" x2="549" y1="73.6094" y2="73.6094"/>
            <text fill="#000000" font-family="sans-serif" font-size="14" font-weight="bold" lengthAdjust="spacing" textLength="81" x="459" y="66.5332">mycompany</text>
        </g>
        <!--cluster eva3_11_escritura-->
        <g id="cluster_eva3_11_escritura">
            <path d="M481.5,94 L611.5,94 A3.75,3.75 0 0 1 614,96.5 L621,117.6094 L686.5,117.6094 A2.5,2.5 0 0 1 689,120.1094 L689,191.5 A2.5,2.5 0 0 1 686.5,194 L481.5,194 A2.5,2.5 0 0 1 479,191.5 L479,96.5 A2.5,2.5 0 0 1 481.5,94 " fill="none" style="stroke:#000000;stroke-width:1.5;"/>
            <line style="stroke:#000000;stroke-width:1.5;" x1="479" x2="621" y1="117.6094" y2="117.6094"/>
            <text fill="#000000" font-family="sans-serif" font-size="14" font-weight="bold" lengthAdjust="spacing" textLength="129" x="483" y="110.5332">eva3_11_escritura</text>
        </g>
        <!--cluster java-->
        <g id="cluster_java">
            <path d="M8.5,266 L38.5,266 A3.75,3.75 0 0 1 41,268.5 L48,289.6094 L1217.5,289.6094 A2.5,2.5 0 0 1 1220,292.1094 L1220,499.5 A2.5,2.5 0 0 1 1217.5,502 L8.5,502 A2.5,2.5 0 0 1 6,499.5 L6,268.5 A2.5,2.5 0 0 1 8.5,266 " fill="none" style="stroke:#000000;stroke-width:1.5;"/>
            <line style="stroke:#000000;stroke-width:1.5;" x1="6" x2="48" y1="289.6094" y2="289.6094"/>
            <text fill="#000000" font-family="sans-serif" font-size="14" font-weight="bold" lengthAdjust="spacing" textLength="29" x="10" y="282.5332">java</text>
        </g>
        <!--cluster io-->
        <g id="cluster_io">
            <path d="M681.5,354 L695.5,354 A3.75,3.75 0 0 1 698,356.5 L705,377.6094 L1193.5,377.6094 A2.5,2.5 0 0 1 1196,380.1094 L1196,451.5 A2.5,2.5 0 0 1 1193.5,454 L681.5,454 A2.5,2.5 0 0 1 679,451.5 L679,356.5 A2.5,2.5 0 0 1 681.5,354 " fill="none" style="stroke:#000000;stroke-width:1.5;"/>
            <line style="stroke:#000000;stroke-width:1.5;" x1="679" x2="705" y1="377.6094" y2="377.6094"/>
            <text fill="#000000" font-family="sans-serif" font-size="14" font-weight="bold" lengthAdjust="spacing" textLength="13" x="683" y="370.5332">io</text>
        </g>
        <!--cluster nio-->
        <g id="cluster_nio">
            <path d="M315.5,310 L338.5,310 A3.75,3.75 0 0 1 341,312.5 L348,333.6094 L652.5,333.6094 A2.5,2.5 0 0 1 655,336.1094 L655,475.5 A2.5,2.5 0 0 1 652.5,478 L315.5,478 A2.5,2.5 0 0 1 313,475.5 L313,312.5 A2.5,2.5 0 0 1 315.5,310 " fill="none" style="stroke:#000000;stroke-width:1.5;"/>
            <line style="stroke:#000000;stroke-width:1.5;" x1="313" x2="348" y1="333.6094" y2="333.6094"/>
            <text fill="#000000" font-family="sans-serif" font-size="14" font-weight="bold" lengthAdjust="spacing" textLength="22" x="317" y="326.5332">nio</text>
        </g>
        <!--cluster file-->
        <g id="cluster_file">
            <path d="M339.5,354 L362.5,354 A3.75,3.75 0 0 1 365,356.5 L372,377.6094 L628.5,377.6094 A2.5,2.5 0 0 1 631,380.1094 L631,451.5 A2.5,2.5 0 0 1 628.5,454 L339.5,454 A2.5,2.5 0 0 1 337,451.5 L337,356.5 A2.5,2.5 0 0 1 339.5,354 " fill="none" style="stroke:#000000;stroke-width:1.5;"/>
            <line style="stroke:#000000;stroke-width:1.5;" x1="337" x2="372" y1="377.6094" y2="377.6094"/>
            <text fill="#000000" font-family="sans-serif" font-size="14" font-weight="bold" lengthAdjust="spacing" textLength="22" x="341" y="370.5332">file</text>
        </g>
        <!--cluster util-->
        <g id="cluster_util">
            <path d="M32.5,310 L55.5,310 A3.75,3.75 0 0 1 58,312.5 L65,333.6094 L286.5,333.6094 A2.5,2.5 0 0 1 289,336.1094 L289,475.5 A2.5,2.5 0 0 1 286.5,478 L32.5,478 A2.5,2.5 0 0 1 30,475.5 L30,312.5 A2.5,2.5 0 0 1 32.5,310 " fill="none" style="stroke:#000000;stroke-width:1.5;"/>
            <line style="stroke:#000000;stroke-width:1.5;" x1="30" x2="65" y1="333.6094" y2="333.6094"/>
            <text fill="#000000" font-family="sans-serif" font-size="14" font-weight="bold" lengthAdjust="spacing" textLength="22" x="34" y="326.5332">util</text>
        </g>
        <!--cluster logging-->
        <g id="cluster_logging">
            <path d="M56.5,354 L110.5,354 A3.75,3.75 0 0 1 113,356.5 L120,377.6094 L262.5,377.6094 A2.5,2.5 0 0 1 265,380.1094 L265,451.5 A2.5,2.5 0 0 1 262.5,454 L56.5,454 A2.5,2.5 0 0 1 54,451.5 L54,356.5 A2.5,2.5 0 0 1 56.5,354 " fill="none" style="stroke:#000000;stroke-width:1.5;"/>
            <line style="stroke:#000000;stroke-width:1.5;" x1="54" x2="120" y1="377.6094" y2="377.6094"/>
            <text fill="#000000" font-family="sans-serif" font-size="14" font-weight="bold" lengthAdjust="spacing" textLength="53" x="58" y="370.5332">logging</text>
        </g>
        <!--class EVA3_11_ESCRITURA-->
        <g id="elem_EVA3_11_ESCRITURA">
            <rect codeLine="1" fill="#F1F1F1" height="48" id="EVA3_11_ESCRITURA" rx="2.5" ry="2.5" style="stroke:#181818;stroke-width:0.5;" width="177" x="495.5" y="130"/>
            <ellipse cx="510.5" cy="146" fill="#ADD1B2" rx="11" ry="11" style="stroke:#181818;stroke-width:1.0;"/>
            <path d="M513.2656,141.875 Q513.4219,141.6563 513.6094,141.5469 Q513.7969,141.4375 514.0156,141.4375 Q514.3906,141.4375 514.625,141.7031 Q514.8594,141.9531 514.8594,142.5625 L514.8594,144.0156 Q514.8594,144.625 514.625,144.8906 Q514.3906,145.1563 514.0156,145.1563 Q513.6719,145.1563 513.4688,144.9531 Q513.2656,144.7656 513.1563,144.25 Q513.1094,143.8906 512.9219,143.7031 Q512.5938,143.3281 511.9844,143.1094 Q511.375,142.8906 510.75,142.8906 Q509.9844,142.8906 509.3438,143.2188 Q508.7188,143.5469 508.2188,144.2969 Q507.7344,145.0469 507.7344,146.0781 L507.7344,147.1719 Q507.7344,148.4063 508.625,149.2344 Q509.5156,150.0469 511.1094,150.0469 Q512.0469,150.0469 512.7031,149.7969 Q513.0938,149.6406 513.5156,149.2031 Q513.7813,148.9375 513.9219,148.8594 Q514.0781,148.7813 514.2813,148.7813 Q514.6094,148.7813 514.8594,149.0469 Q515.125,149.2969 515.125,149.6406 Q515.125,149.9844 514.7813,150.3906 Q514.2813,150.9688 513.4844,151.2969 Q512.4063,151.75 511.1094,151.75 Q509.5938,151.75 508.3906,151.125 Q507.4063,150.625 506.7188,149.5625 Q506.0313,148.4844 506.0313,147.2031 L506.0313,146.0469 Q506.0313,144.7188 506.6406,143.5781 Q507.2656,142.4219 508.3594,141.8125 Q509.4531,141.1875 510.6875,141.1875 Q511.4219,141.1875 512.0625,141.3594 Q512.7188,141.5156 513.2656,141.875 Z " fill="#000000"/>
            <text fill="#000000" font-family="sans-serif" font-size="14" lengthAdjust="spacing" textLength="145" x="524.5" y="151.7285">EVA3_11_ESCRITURA</text>
            <line style="stroke:#181818;stroke-width:0.5;" x1="496.5" x2="671.5" y1="162" y2="162"/>
            <line style="stroke:#181818;stroke-width:0.5;" x1="496.5" x2="671.5" y1="170" y2="170"/>
        </g>
        <!--class BufferedWriter-->
        <g id="elem_BufferedWriter">
            <rect codeLine="2" fill="#F1F1F1" height="48" id="BufferedWriter" rx="2.5" ry="2.5" style="stroke:#181818;stroke-width:0.5;" width="124" x="1056" y="390"/>
            <ellipse cx="1071" cy="406" fill="#ADD1B2" rx="11" ry="11" style="stroke:#181818;stroke-width:1.0;"/>
            <path d="M1073.7656,401.875 Q1073.9219,401.6563 1074.1094,401.5469 Q1074.2969,401.4375 1074.5156,401.4375 Q1074.8906,401.4375 1075.125,401.7031 Q1075.3594,401.9531 1075.3594,402.5625 L1075.3594,404.0156 Q1075.3594,404.625 1075.125,404.8906 Q1074.8906,405.1563 1074.5156,405.1563 Q1074.1719,405.1563 1073.9688,404.9531 Q1073.7656,404.7656 1073.6563,404.25 Q1073.6094,403.8906 1073.4219,403.7031 Q1073.0938,403.3281 1072.4844,403.1094 Q1071.875,402.8906 1071.25,402.8906 Q1070.4844,402.8906 1069.8438,403.2188 Q1069.2188,403.5469 1068.7188,404.2969 Q1068.2344,405.0469 1068.2344,406.0781 L1068.2344,407.1719 Q1068.2344,408.4063 1069.125,409.2344 Q1070.0156,410.0469 1071.6094,410.0469 Q1072.5469,410.0469 1073.2031,409.7969 Q1073.5938,409.6406 1074.0156,409.2031 Q1074.2813,408.9375 1074.4219,408.8594 Q1074.5781,408.7813 1074.7813,408.7813 Q1075.1094,408.7813 1075.3594,409.0469 Q1075.625,409.2969 1075.625,409.6406 Q1075.625,409.9844 1075.2813,410.3906 Q1074.7813,410.9688 1073.9844,411.2969 Q1072.9063,411.75 1071.6094,411.75 Q1070.0938,411.75 1068.8906,411.125 Q1067.9063,410.625 1067.2188,409.5625 Q1066.5313,408.4844 1066.5313,407.2031 L1066.5313,406.0469 Q1066.5313,404.7188 1067.1406,403.5781 Q1067.7656,402.4219 1068.8594,401.8125 Q1069.9531,401.1875 1071.1875,401.1875 Q1071.9219,401.1875 1072.5625,401.3594 Q1073.2188,401.5156 1073.7656,401.875 Z " fill="#000000"/>
            <text fill="#000000" font-family="sans-serif" font-size="14" lengthAdjust="spacing" textLength="92" x="1085" y="411.7285">BufferedWriter</text>
            <line style="stroke:#181818;stroke-width:0.5;" x1="1057" x2="1179" y1="422" y2="422"/>
            <line style="stroke:#181818;stroke-width:0.5;" x1="1057" x2="1179" y1="430" y2="430"/>
        </g>
        <!--class File-->
        <g id="elem_File">
            <rect codeLine="3" fill="#F1F1F1" height="48" id="File" rx="2.5" ry="2.5" style="stroke:#181818;stroke-width:0.5;" width="55" x="965.5" y="390"/>
            <ellipse cx="980.5" cy="406" fill="#ADD1B2" rx="11" ry="11" style="stroke:#181818;stroke-width:1.0;"/>
            <path d="M983.2656,401.875 Q983.4219,401.6563 983.6094,401.5469 Q983.7969,401.4375 984.0156,401.4375 Q984.3906,401.4375 984.625,401.7031 Q984.8594,401.9531 984.8594,402.5625 L984.8594,404.0156 Q984.8594,404.625 984.625,404.8906 Q984.3906,405.1563 984.0156,405.1563 Q983.6719,405.1563 983.4688,404.9531 Q983.2656,404.7656 983.1563,404.25 Q983.1094,403.8906 982.9219,403.7031 Q982.5938,403.3281 981.9844,403.1094 Q981.375,402.8906 980.75,402.8906 Q979.9844,402.8906 979.3438,403.2188 Q978.7188,403.5469 978.2188,404.2969 Q977.7344,405.0469 977.7344,406.0781 L977.7344,407.1719 Q977.7344,408.4063 978.625,409.2344 Q979.5156,410.0469 981.1094,410.0469 Q982.0469,410.0469 982.7031,409.7969 Q983.0938,409.6406 983.5156,409.2031 Q983.7813,408.9375 983.9219,408.8594 Q984.0781,408.7813 984.2813,408.7813 Q984.6094,408.7813 984.8594,409.0469 Q985.125,409.2969 985.125,409.6406 Q985.125,409.9844 984.7813,410.3906 Q984.2813,410.9688 983.4844,411.2969 Q982.4063,411.75 981.1094,411.75 Q979.5938,411.75 978.3906,411.125 Q977.4063,410.625 976.7188,409.5625 Q976.0313,408.4844 976.0313,407.2031 L976.0313,406.0469 Q976.0313,404.7188 976.6406,403.5781 Q977.2656,402.4219 978.3594,401.8125 Q979.4531,401.1875 980.6875,401.1875 Q981.4219,401.1875 982.0625,401.3594 Q982.7188,401.5156 983.2656,401.875 Z " fill="#000000"/>
            <text fill="#000000" font-family="sans-serif" font-size="14" lengthAdjust="spacing" textLength="23" x="994.5" y="411.7285">File</text>
            <line style="stroke:#181818;stroke-width:0.5;" x1="966.5" x2="1019.5" y1="422" y2="422"/>
            <line style="stroke:#181818;stroke-width:0.5;" x1="966.5" x2="1019.5" y1="430" y2="430"/>
        </g>
        <!--class FileWriter-->
        <g id="elem_FileWriter">
            <rect codeLine="4" fill="#F1F1F1" height="48" id="FileWriter" rx="2.5" ry="2.5" style="stroke:#181818;stroke-width:0.5;" width="93" x="837.5" y="390"/>
            <ellipse cx="852.5" cy="406" fill="#ADD1B2" rx="11" ry="11" style="stroke:#181818;stroke-width:1.0;"/>
            <path d="M855.2656,401.875 Q855.4219,401.6563 855.6094,401.5469 Q855.7969,401.4375 856.0156,401.4375 Q856.3906,401.4375 856.625,401.7031 Q856.8594,401.9531 856.8594,402.5625 L856.8594,404.0156 Q856.8594,404.625 856.625,404.8906 Q856.3906,405.1563 856.0156,405.1563 Q855.6719,405.1563 855.4688,404.9531 Q855.2656,404.7656 855.1563,404.25 Q855.1094,403.8906 854.9219,403.7031 Q854.5938,403.3281 853.9844,403.1094 Q853.375,402.8906 852.75,402.8906 Q851.9844,402.8906 851.3438,403.2188 Q850.7188,403.5469 850.2188,404.2969 Q849.7344,405.0469 849.7344,406.0781 L849.7344,407.1719 Q849.7344,408.4063 850.625,409.2344 Q851.5156,410.0469 853.1094,410.0469 Q854.0469,410.0469 854.7031,409.7969 Q855.0938,409.6406 855.5156,409.2031 Q855.7813,408.9375 855.9219,408.8594 Q856.0781,408.7813 856.2813,408.7813 Q856.6094,408.7813 856.8594,409.0469 Q857.125,409.2969 857.125,409.6406 Q857.125,409.9844 856.7813,410.3906 Q856.2813,410.9688 855.4844,411.2969 Q854.4063,411.75 853.1094,411.75 Q851.5938,411.75 850.3906,411.125 Q849.4063,410.625 848.7188,409.5625 Q848.0313,408.4844 848.0313,407.2031 L848.0313,406.0469 Q848.0313,404.7188 848.6406,403.5781 Q849.2656,402.4219 850.3594,401.8125 Q851.4531,401.1875 852.6875,401.1875 Q853.4219,401.1875 854.0625,401.3594 Q854.7188,401.5156 855.2656,401.875 Z " fill="#000000"/>
            <text fill="#000000" font-family="sans-serif" font-size="14" lengthAdjust="spacing" textLength="61" x="866.5" y="411.7285">FileWriter</text>
            <line style="stroke:#181818;stroke-width:0.5;" x1="838.5" x2="929.5" y1="422" y2="422"/>
            <line style="stroke:#181818;stroke-width:0.5;" x1="838.5" x2="929.5" y1="430" y2="430"/>
        </g>
        <!--class IOException-->
        <g id="elem_IOException">
            <rect codeLine="5" fill="#F1F1F1" height="48" id="IOException" rx="2.5" ry="2.5" style="stroke:#181818;stroke-width:0.5;" width="107" x="695.5" y="390"/>
            <ellipse cx="710.5" cy="406" fill="#ADD1B2" rx="11" ry="11" style="stroke:#181818;stroke-width:1.0;"/>
            <path d="M713.2656,401.875 Q713.4219,401.6563 713.6094,401.5469 Q713.7969,401.4375 714.0156,401.4375 Q714.3906,401.4375 714.625,401.7031 Q714.8594,401.9531 714.8594,402.5625 L714.8594,404.0156 Q714.8594,404.625 714.625,404.8906 Q714.3906,405.1563 714.0156,405.1563 Q713.6719,405.1563 713.4688,404.9531 Q713.2656,404.7656 713.1563,404.25 Q713.1094,403.8906 712.9219,403.7031 Q712.5938,403.3281 711.9844,403.1094 Q711.375,402.8906 710.75,402.8906 Q709.9844,402.8906 709.3438,403.2188 Q708.7188,403.5469 708.2188,404.2969 Q707.7344,405.0469 707.7344,406.0781 L707.7344,407.1719 Q707.7344,408.4063 708.625,409.2344 Q709.5156,410.0469 711.1094,410.0469 Q712.0469,410.0469 712.7031,409.7969 Q713.0938,409.6406 713.5156,409.2031 Q713.7813,408.9375 713.9219,408.8594 Q714.0781,408.7813 714.2813,408.7813 Q714.6094,408.7813 714.8594,409.0469 Q715.125,409.2969 715.125,409.6406 Q715.125,409.9844 714.7813,410.3906 Q714.2813,410.9688 713.4844,411.2969 Q712.4063,411.75 711.1094,411.75 Q709.5938,411.75 708.3906,411.125 Q707.4063,410.625 706.7188,409.5625 Q706.0313,408.4844 706.0313,407.2031 L706.0313,406.0469 Q706.0313,404.7188 706.6406,403.5781 Q707.2656,402.4219 708.3594,401.8125 Q709.4531,401.1875 710.6875,401.1875 Q711.4219,401.1875 712.0625,401.3594 Q712.7188,401.5156 713.2656,401.875 Z " fill="#000000"/>
            <text fill="#000000" font-family="sans-serif" font-size="14" lengthAdjust="spacing" textLength="75" x="724.5" y="411.7285">IOException</text>
            <line style="stroke:#181818;stroke-width:0.5;" x1="696.5" x2="801.5" y1="422" y2="422"/>
            <line style="stroke:#181818;stroke-width:0.5;" x1="696.5" x2="801.5" y1="430" y2="430"/>
        </g>
        <!--class Files-->
        <g id="elem_Files">
            <rect codeLine="6" fill="#F1F1F1" height="48" id="Files" rx="2.5" ry="2.5" style="stroke:#181818;stroke-width:0.5;" width="62" x="553" y="390"/>
            <ellipse cx="568" cy="406" fill="#ADD1B2" rx="11" ry="11" style="stroke:#181818;stroke-width:1.0;"/>
            <path d="M570.7656,401.875 Q570.9219,401.6563 571.1094,401.5469 Q571.2969,401.4375 571.5156,401.4375 Q571.8906,401.4375 572.125,401.7031 Q572.3594,401.9531 572.3594,402.5625 L572.3594,404.0156 Q572.3594,404.625 572.125,404.8906 Q571.8906,405.1563 571.5156,405.1563 Q571.1719,405.1563 570.9688,404.9531 Q570.7656,404.7656 570.6563,404.25 Q570.6094,403.8906 570.4219,403.7031 Q570.0938,403.3281 569.4844,403.1094 Q568.875,402.8906 568.25,402.8906 Q567.4844,402.8906 566.8438,403.2188 Q566.2188,403.5469 565.7188,404.2969 Q565.2344,405.0469 565.2344,406.0781 L565.2344,407.1719 Q565.2344,408.4063 566.125,409.2344 Q567.0156,410.0469 568.6094,410.0469 Q569.5469,410.0469 570.2031,409.7969 Q570.5938,409.6406 571.0156,409.2031 Q571.2813,408.9375 571.4219,408.8594 Q571.5781,408.7813 571.7813,408.7813 Q572.1094,408.7813 572.3594,409.0469 Q572.625,409.2969 572.625,409.6406 Q572.625,409.9844 572.2813,410.3906 Q571.7813,410.9688 570.9844,411.2969 Q569.9063,411.75 568.6094,411.75 Q567.0938,411.75 565.8906,411.125 Q564.9063,410.625 564.2188,409.5625 Q563.5313,408.4844 563.5313,407.2031 L563.5313,406.0469 Q563.5313,404.7188 564.1406,403.5781 Q564.7656,402.4219 565.8594,401.8125 Q566.9531,401.1875 568.1875,401.1875 Q568.9219,401.1875 569.5625,401.3594 Q570.2188,401.5156 570.7656,401.875 Z " fill="#000000"/>
            <text fill="#000000" font-family="sans-serif" font-size="14" lengthAdjust="spacing" textLength="30" x="582" y="411.7285">Files</text>
            <line style="stroke:#181818;stroke-width:0.5;" x1="554" x2="614" y1="422" y2="422"/>
            <line style="stroke:#181818;stroke-width:0.5;" x1="554" x2="614" y1="430" y2="430"/>
        </g>
        <!--class Path-->
        <g id="elem_Path">
            <rect codeLine="7" fill="#F1F1F1" height="48" id="Path" rx="2.5" ry="2.5" style="stroke:#181818;stroke-width:0.5;" width="61" x="456.5" y="390"/>
            <ellipse cx="471.5" cy="406" fill="#ADD1B2" rx="11" ry="11" style="stroke:#181818;stroke-width:1.0;"/>
            <path d="M474.2656,401.875 Q474.4219,401.6563 474.6094,401.5469 Q474.7969,401.4375 475.0156,401.4375 Q475.3906,401.4375 475.625,401.7031 Q475.8594,401.9531 475.8594,402.5625 L475.8594,404.0156 Q475.8594,404.625 475.625,404.8906 Q475.3906,405.1563 475.0156,405.1563 Q474.6719,405.1563 474.4688,404.9531 Q474.2656,404.7656 474.1563,404.25 Q474.1094,403.8906 473.9219,403.7031 Q473.5938,403.3281 472.9844,403.1094 Q472.375,402.8906 471.75,402.8906 Q470.9844,402.8906 470.3438,403.2188 Q469.7188,403.5469 469.2188,404.2969 Q468.7344,405.0469 468.7344,406.0781 L468.7344,407.1719 Q468.7344,408.4063 469.625,409.2344 Q470.5156,410.0469 472.1094,410.0469 Q473.0469,410.0469 473.7031,409.7969 Q474.0938,409.6406 474.5156,409.2031 Q474.7813,408.9375 474.9219,408.8594 Q475.0781,408.7813 475.2813,408.7813 Q475.6094,408.7813 475.8594,409.0469 Q476.125,409.2969 476.125,409.6406 Q476.125,409.9844 475.7813,410.3906 Q475.2813,410.9688 474.4844,411.2969 Q473.4063,411.75 472.1094,411.75 Q470.5938,411.75 469.3906,411.125 Q468.4063,410.625 467.7188,409.5625 Q467.0313,408.4844 467.0313,407.2031 L467.0313,406.0469 Q467.0313,404.7188 467.6406,403.5781 Q468.2656,402.4219 469.3594,401.8125 Q470.4531,401.1875 471.6875,401.1875 Q472.4219,401.1875 473.0625,401.3594 Q473.7188,401.5156 474.2656,401.875 Z " fill="#000000"/>
            <text fill="#000000" font-family="sans-serif" font-size="14" lengthAdjust="spacing" textLength="29" x="485.5" y="411.7285">Path</text>
            <line style="stroke:#181818;stroke-width:0.5;" x1="457.5" x2="516.5" y1="422" y2="422"/>
            <line style="stroke:#181818;stroke-width:0.5;" x1="457.5" x2="516.5" y1="430" y2="430"/>
        </g>
        <!--class Paths-->
        <g id="elem_Paths">
            <rect codeLine="8" fill="#F1F1F1" height="48" id="Paths" rx="2.5" ry="2.5" style="stroke:#181818;stroke-width:0.5;" width="68" x="353" y="390"/>
            <ellipse cx="368" cy="406" fill="#ADD1B2" rx="11" ry="11" style="stroke:#181818;stroke-width:1.0;"/>
            <path d="M370.7656,401.875 Q370.9219,401.6563 371.1094,401.5469 Q371.2969,401.4375 371.5156,401.4375 Q371.8906,401.4375 372.125,401.7031 Q372.3594,401.9531 372.3594,402.5625 L372.3594,404.0156 Q372.3594,404.625 372.125,404.8906 Q371.8906,405.1563 371.5156,405.1563 Q371.1719,405.1563 370.9688,404.9531 Q370.7656,404.7656 370.6563,404.25 Q370.6094,403.8906 370.4219,403.7031 Q370.0938,403.3281 369.4844,403.1094 Q368.875,402.8906 368.25,402.8906 Q367.4844,402.8906 366.8438,403.2188 Q366.2188,403.5469 365.7188,404.2969 Q365.2344,405.0469 365.2344,406.0781 L365.2344,407.1719 Q365.2344,408.4063 366.125,409.2344 Q367.0156,410.0469 368.6094,410.0469 Q369.5469,410.0469 370.2031,409.7969 Q370.5938,409.6406 371.0156,409.2031 Q371.2813,408.9375 371.4219,408.8594 Q371.5781,408.7813 371.7813,408.7813 Q372.1094,408.7813 372.3594,409.0469 Q372.625,409.2969 372.625,409.6406 Q372.625,409.9844 372.2813,410.3906 Q371.7813,410.9688 370.9844,411.2969 Q369.9063,411.75 368.6094,411.75 Q367.0938,411.75 365.8906,411.125 Q364.9063,410.625 364.2188,409.5625 Q363.5313,408.4844 363.5313,407.2031 L363.5313,406.0469 Q363.5313,404.7188 364.1406,403.5781 Q364.7656,402.4219 365.8594,401.8125 Q366.9531,401.1875 368.1875,401.1875 Q368.9219,401.1875 369.5625,401.3594 Q370.2188,401.5156 370.7656,401.875 Z " fill="#000000"/>
            <text fill="#000000" font-family="sans-serif" font-size="14" lengthAdjust="spacing" textLength="36" x="382" y="411.7285">Paths</text>
            <line style="stroke:#181818;stroke-width:0.5;" x1="354" x2="420" y1="422" y2="422"/>
            <line style="stroke:#181818;stroke-width:0.5;" x1="354" x2="420" y1="430" y2="430"/>
        </g>
        <!--class Level-->
        <g id="elem_Level">
            <rect codeLine="9" fill="#F1F1F1" height="48" id="Level" rx="2.5" ry="2.5" style="stroke:#181818;stroke-width:0.5;" width="66" x="183" y="390"/>
            <ellipse cx="198" cy="406" fill="#ADD1B2" rx="11" ry="11" style="stroke:#181818;stroke-width:1.0;"/>
            <path d="M200.7656,401.875 Q200.9219,401.6563 201.1094,401.5469 Q201.2969,401.4375 201.5156,401.4375 Q201.8906,401.4375 202.125,401.7031 Q202.3594,401.9531 202.3594,402.5625 L202.3594,404.0156 Q202.3594,404.625 202.125,404.8906 Q201.8906,405.1563 201.5156,405.1563 Q201.1719,405.1563 200.9688,404.9531 Q200.7656,404.7656 200.6563,404.25 Q200.6094,403.8906 200.4219,403.7031 Q200.0938,403.3281 199.4844,403.1094 Q198.875,402.8906 198.25,402.8906 Q197.4844,402.8906 196.8438,403.2188 Q196.2188,403.5469 195.7188,404.2969 Q195.2344,405.0469 195.2344,406.0781 L195.2344,407.1719 Q195.2344,408.4063 196.125,409.2344 Q197.0156,410.0469 198.6094,410.0469 Q199.5469,410.0469 200.2031,409.7969 Q200.5938,409.6406 201.0156,409.2031 Q201.2813,408.9375 201.4219,408.8594 Q201.5781,408.7813 201.7813,408.7813 Q202.1094,408.7813 202.3594,409.0469 Q202.625,409.2969 202.625,409.6406 Q202.625,409.9844 202.2813,410.3906 Q201.7813,410.9688 200.9844,411.2969 Q199.9063,411.75 198.6094,411.75 Q197.0938,411.75 195.8906,411.125 Q194.9063,410.625 194.2188,409.5625 Q193.5313,408.4844 193.5313,407.2031 L193.5313,406.0469 Q193.5313,404.7188 194.1406,403.5781 Q194.7656,402.4219 195.8594,401.8125 Q196.9531,401.1875 198.1875,401.1875 Q198.9219,401.1875 199.5625,401.3594 Q200.2188,401.5156 200.7656,401.875 Z " fill="#000000"/>
            <text fill="#000000" font-family="sans-serif" font-size="14" lengthAdjust="spacing" textLength="34" x="212" y="411.7285">Level</text>
            <line style="stroke:#181818;stroke-width:0.5;" x1="184" x2="248" y1="422" y2="422"/>
            <line style="stroke:#181818;stroke-width:0.5;" x1="184" x2="248" y1="430" y2="430"/>
        </g>
        <!--class Logger-->
        <g id="elem_Logger">
            <rect codeLine="10" fill="#F1F1F1" height="48" id="Logger" rx="2.5" ry="2.5" style="stroke:#181818;stroke-width:0.5;" width="77" x="70.5" y="390"/>
            <ellipse cx="85.5" cy="406" fill="#ADD1B2" rx="11" ry="11" style="stroke:#181818;stroke-width:1.0;"/>
            <path d="M88.2656,401.875 Q88.4219,401.6563 88.6094,401.5469 Q88.7969,401.4375 89.0156,401.4375 Q89.3906,401.4375 89.625,401.7031 Q89.8594,401.9531 89.8594,402.5625 L89.8594,404.0156 Q89.8594,404.625 89.625,404.8906 Q89.3906,405.1563 89.0156,405.1563 Q88.6719,405.1563 88.4688,404.9531 Q88.2656,404.7656 88.1563,404.25 Q88.1094,403.8906 87.9219,403.7031 Q87.5938,403.3281 86.9844,403.1094 Q86.375,402.8906 85.75,402.8906 Q84.9844,402.8906 84.3438,403.2188 Q83.7188,403.5469 83.2188,404.2969 Q82.7344,405.0469 82.7344,406.0781 L82.7344,407.1719 Q82.7344,408.4063 83.625,409.2344 Q84.5156,410.0469 86.1094,410.0469 Q87.0469,410.0469 87.7031,409.7969 Q88.0938,409.6406 88.5156,409.2031 Q88.7813,408.9375 88.9219,408.8594 Q89.0781,408.7813 89.2813,408.7813 Q89.6094,408.7813 89.8594,409.0469 Q90.125,409.2969 90.125,409.6406 Q90.125,409.9844 89.7813,410.3906 Q89.2813,410.9688 88.4844,411.2969 Q87.4063,411.75 86.1094,411.75 Q84.5938,411.75 83.3906,411.125 Q82.4063,410.625 81.7188,409.5625 Q81.0313,408.4844 81.0313,407.2031 L81.0313,406.0469 Q81.0313,404.7188 81.6406,403.5781 Q82.2656,402.4219 83.3594,401.8125 Q84.4531,401.1875 85.6875,401.1875 Q86.4219,401.1875 87.0625,401.3594 Q87.7188,401.5156 88.2656,401.875 Z " fill="#000000"/>
            <text fill="#000000" font-family="sans-serif" font-size="14" lengthAdjust="spacing" textLength="45" x="99.5" y="411.7285">Logger</text>
            <line style="stroke:#181818;stroke-width:0.5;" x1="71.5" x2="146.5" y1="422" y2="422"/>
            <line style="stroke:#181818;stroke-width:0.5;" x1="71.5" x2="146.5" y1="430" y2="430"/>
        </g>
        <!--class EVA3_11_ESCRITURA-->
        <g id="elem_EVA3_11_ESCRITURA">
            <rect codeLine="20" fill="#F1F1F1" height="118.4375" id="EVA3_11_ESCRITURA" rx="2.5" ry="2.5" style="stroke:#181818;stroke-width:0.5;" width="349" x="65.5" y="95"/>
            <ellipse cx="163.25" cy="111" fill="#ADD1B2" rx="11" ry="11" style="stroke:#181818;stroke-width:1.0;"/>
            <path d="M166.0156,106.875 Q166.1719,106.6563 166.3594,106.5469 Q166.5469,106.4375 166.7656,106.4375 Q167.1406,106.4375 167.375,106.7031 Q167.6094,106.9531 167.6094,107.5625 L167.6094,109.0156 Q167.6094,109.625 167.375,109.8906 Q167.1406,110.1563 166.7656,110.1563 Q166.4219,110.1563 166.2188,109.9531 Q166.0156,109.7656 165.9063,109.25 Q165.8594,108.8906 165.6719,108.7031 Q165.3438,108.3281 164.7344,108.1094 Q164.125,107.8906 163.5,107.8906 Q162.7344,107.8906 162.0938,108.2188 Q161.4688,108.5469 160.9688,109.2969 Q160.4844,110.0469 160.4844,111.0781 L160.4844,112.1719 Q160.4844,113.4063 161.375,114.2344 Q162.2656,115.0469 163.8594,115.0469 Q164.7969,115.0469 165.4531,114.7969 Q165.8438,114.6406 166.2656,114.2031 Q166.5313,113.9375 166.6719,113.8594 Q166.8281,113.7813 167.0313,113.7813 Q167.3594,113.7813 167.6094,114.0469 Q167.875,114.2969 167.875,114.6406 Q167.875,114.9844 167.5313,115.3906 Q167.0313,115.9688 166.2344,116.2969 Q165.1563,116.75 163.8594,116.75 Q162.3438,116.75 161.1406,116.125 Q160.1563,115.625 159.4688,114.5625 Q158.7813,113.4844 158.7813,112.2031 L158.7813,111.0469 Q158.7813,109.7188 159.3906,108.5781 Q160.0156,107.4219 161.1094,106.8125 Q162.2031,106.1875 163.4375,106.1875 Q164.1719,106.1875 164.8125,106.3594 Q165.4688,106.5156 166.0156,106.875 Z " fill="#000000"/>
            <text fill="#000000" font-family="sans-serif" font-size="14" lengthAdjust="spacing" textLength="145" x="183.75" y="116.7285">EVA3_11_ESCRITURA</text>
            <line style="stroke:#181818;stroke-width:0.5;" x1="66.5" x2="413.5" y1="127" y2="127"/>
            <line style="stroke:#181818;stroke-width:0.5;" x1="66.5" x2="413.5" y1="135" y2="135"/>
            <ellipse cx="76.5" cy="149.3047" fill="#84BE84" rx="3" ry="3" style="stroke:#038048;stroke-width:1.0;"/>
            <text fill="#000000" font-family="sans-serif" font-size="14" lengthAdjust="spacing" textLength="155" x="85.5" y="153.5332">main(String[] args) : void</text>
            <ellipse cx="76.5" cy="166.9141" fill="#84BE84" rx="3" ry="3" style="stroke:#038048;stroke-width:1.0;"/>
            <text fill="#000000" font-family="sans-serif" font-size="14" lengthAdjust="spacing" textLength="292" x="85.5" y="171.1426">writeUsingFiles(String ruta, String datos) : void</text>
            <ellipse cx="76.5" cy="184.5234" fill="#84BE84" rx="3" ry="3" style="stroke:#038048;stroke-width:1.0;"/>
            <text fill="#000000" font-family="sans-serif" font-size="14" lengthAdjust="spacing" textLength="323" x="85.5" y="188.752">writeUsingFileWriter(String ruta, String datos) : void</text>
            <ellipse cx="76.5" cy="202.1328" fill="#84BE84" rx="3" ry="3" style="stroke:#038048;stroke-width:1.0;"/>
            <text fill="#000000" font-family="sans-serif" font-size="14" lengthAdjust="spacing" textLength="270" x="85.5" y="206.3613">writeUsingBufferedWriter(String ruta) : void</text>
        </g>
        <!--link EVA3_11_ESCRITURA to BufferedWriter-->
        <g id="link_EVA3_11_ESCRITURA_BufferedWriter">
            <path codeLine="11" d="M672.82,166.13 C788.26,182.11 981.76,214.47 1038,258 C1081.46,291.64 1101.9643,349.6925 1111.1143,384.0125 " fill="none" id="EVA3_11_ESCRITURA-to-BufferedWriter" style="stroke:#181818;stroke-width:1.0;stroke-dasharray:7.0,7.0;"/>
            <polygon fill="#181818" points="1112.66,389.81,1114.2065,380.0833,1111.3719,384.9788,1106.4765,382.1442,1112.66,389.81" style="stroke:#181818;stroke-width:1.0;"/>
        </g>
        <!--link EVA3_11_ESCRITURA to File-->
        <g id="link_EVA3_11_ESCRITURA_File">
            <path codeLine="12" d="M672.78,156.73 C754.89,163.13 874.96,185.45 948,258 C983.89,293.64 991.293,350.0851 992.683,383.8151 " fill="none" id="EVA3_11_ESCRITURA-to-File" style="stroke:#181818;stroke-width:1.0;stroke-dasharray:7.0,7.0;"/>
            <polygon fill="#181818" points="992.93,389.81,996.556,380.6529,992.7241,384.8142,988.5628,380.9823,992.93,389.81" style="stroke:#181818;stroke-width:1.0;"/>
        </g>
        <!--link EVA3_11_ESCRITURA to FileWriter-->
        <g id="link_EVA3_11_ESCRITURA_FileWriter">
            <path codeLine="13" d="M672.53,176.04 C721.4,191.59 780.1,217.3 820,258 C856.58,295.32 872.1377,350.6297 878.8777,383.8697 " fill="none" id="EVA3_11_ESCRITURA-to-FileWriter" style="stroke:#181818;stroke-width:1.0;stroke-dasharray:7.0,7.0;"/>
            <polygon fill="#181818" points="880.07,389.75,882.2017,380.1346,879.0764,384.8497,874.3613,381.7244,880.07,389.75" style="stroke:#181818;stroke-width:1.0;"/>
        </g>
        <!--link EVA3_11_ESCRITURA to IOException-->
        <g id="link_EVA3_11_ESCRITURA_IOException">
            <path codeLine="14" d="M598.93,178.35 C630.35,227.47 699.7073,335.9253 730.9873,384.8353 " fill="none" id="EVA3_11_ESCRITURA-to-IOException" style="stroke:#181818;stroke-width:1.0;stroke-dasharray:7.0,7.0;"/>
            <polygon fill="#181818" points="734.22,389.89,732.7408,380.1529,731.5261,385.6778,726.0012,384.4631,734.22,389.89" style="stroke:#181818;stroke-width:1.0;"/>
        </g>
        <!--link EVA3_11_ESCRITURA to Files-->
        <g id="link_EVA3_11_ESCRITURA_Files">
            <path codeLine="15" d="M584,178.35 C584,227.47 584,334.98 584,383.89 " fill="none" id="EVA3_11_ESCRITURA-to-Files" style="stroke:#181818;stroke-width:1.0;stroke-dasharray:7.0,7.0;"/>
            <polygon fill="#181818" points="584,389.89,588,380.89,584,384.89,580,380.89,584,389.89" style="stroke:#181818;stroke-width:1.0;"/>
        </g>
        <!--link EVA3_11_ESCRITURA to Path-->
        <g id="link_EVA3_11_ESCRITURA_Path">
            <path codeLine="16" d="M572.06,178.35 C561.76,198.98 546.88,230.05 536,258 C518.14,303.89 503.4751,353.4615 494.9251,384.0515 " fill="none" id="EVA3_11_ESCRITURA-to-Path" style="stroke:#181818;stroke-width:1.0;stroke-dasharray:7.0,7.0;"/>
            <polygon fill="#181818" points="493.31,389.83,499.585,382.239,494.6559,385.0146,491.8803,380.0855,493.31,389.83" style="stroke:#181818;stroke-width:1.0;"/>
        </g>
        <!--link EVA3_11_ESCRITURA to Paths-->
        <g id="link_EVA3_11_ESCRITURA_Paths">
            <path codeLine="17" d="M537.19,178.09 C505.42,195.93 464.67,223.41 439,258 C408.89,298.57 396.4922,351.7409 391.1422,383.9809 " fill="none" id="EVA3_11_ESCRITURA-to-Paths" style="stroke:#181818;stroke-width:1.0;stroke-dasharray:7.0,7.0;"/>
            <polygon fill="#181818" points="390.16,389.9,395.5794,381.6762,390.9785,384.9675,387.6873,380.3666,390.16,389.9" style="stroke:#181818;stroke-width:1.0;"/>
        </g>
        <!--link EVA3_11_ESCRITURA to Level-->
        <g id="link_EVA3_11_ESCRITURA_Level">
            <path codeLine="18" d="M556.38,178 C527.4,200.68 479.54,234.18 432,250 C411.9,256.69 355.63,247.92 337,258 C281.9,287.81 246.2495,349.1269 228.9895,384.5269 " fill="none" id="EVA3_11_ESCRITURA-to-Level" style="stroke:#181818;stroke-width:1.0;stroke-dasharray:7.0,7.0;"/>
            <polygon fill="#181818" points="226.36,389.92,233.8997,383.5834,228.5513,385.4257,226.7089,380.0773,226.36,389.92" style="stroke:#181818;stroke-width:1.0;"/>
        </g>
        <!--link EVA3_11_ESCRITURA to Logger-->
        <g id="link_EVA3_11_ESCRITURA_Logger">
            <path codeLine="19" d="M557.08,178.1 C528.3,201.22 480.24,235.38 432,250 C403.7,258.58 189.99,240.72 166,258 C123.43,288.67 113.051,348.7077 110.341,383.8777 " fill="none" id="EVA3_11_ESCRITURA-to-Logger" style="stroke:#181818;stroke-width:1.0;stroke-dasharray:7.0,7.0;"/>
            <polygon fill="#181818" points="109.88,389.86,114.5596,381.1939,110.2641,384.8748,106.5833,380.5793,109.88,389.86" style="stroke:#181818;stroke-width:1.0;"/>
        </g>
        <!--SRC=[hLDRIyCm57xtL-HHcHmOllamc59X82Yxw8F8EAIdDP8c8qaxX_ZVJPE1wsmHr-OX8Vak7CxvmYLQoxWkeDZvVODg1rJXrNeyNfFbHhZI82HFq_2IB6xdi-LgFZtZGVUE5OBGS5Dc6HbAdpsVp15u9oIrFBLoPm_91wUD4reT8if3cTS4eMr57j6zTG8DIUc41AdpNAWSxgaYsOtwiwxnl-rX09FEvlGoYytiRJ58BOrXdUvqFDm1d68O1ZBgLL9Rs8PoY-5aViNy_XP-1hHUemA5EbyuuvKlhmnDRY_ODQkqI7yuspeLA-ifOHHxEZEbmqkslwJez9_I6A_JzCtlSkZHK7rz0m00]-->
    </g>
</svg>
