<?xml version="1.0" encoding="UTF-8"?><svg xmlns="http://www.w3.org/2000/svg" xmlns:xlink="http://www.w3.org/1999/xlink" contentStyleType="text/css" height="249px" preserveAspectRatio="none" style="width:533px;height:249px;background:#FFFFFF;" version="1.1" viewBox="0 0 533 249" width="533px" zoomAndPan="magnify">
    <defs/>
    <g>
        <!--cluster com-->
        <g id="cluster_com">
            <path d="M213,6 L243,6 A3.75,3.75 0 0 1 245.5,8.5 L252.5,29.6094 L524,29.6094 A2.5,2.5 0 0 1 526.5,32.1094 L526.5,239.5 A2.5,2.5 0 0 1 524,242 L213,242 A2.5,2.5 0 0 1 210.5,239.5 L210.5,8.5 A2.5,2.5 0 0 1 213,6 " fill="none" style="stroke:#000000;stroke-width:1.5;"/>
            <line style="stroke:#000000;stroke-width:1.5;" x1="210.5" x2="252.5" y1="29.6094" y2="29.6094"/>
            <text fill="#000000" font-family="sans-serif" font-size="14" font-weight="bold" lengthAdjust="spacing" textLength="29" x="214.5" y="22.5332">com</text>
        </g>
        <!--cluster mycompany-->
        <g id="cluster_mycompany">
            <path d="M237,50 L319,50 A3.75,3.75 0 0 1 321.5,52.5 L328.5,73.6094 L500,73.6094 A2.5,2.5 0 0 1 502.5,76.1094 L502.5,215.5 A2.5,2.5 0 0 1 500,218 L237,218 A2.5,2.5 0 0 1 234.5,215.5 L234.5,52.5 A2.5,2.5 0 0 1 237,50 " fill="none" style="stroke:#000000;stroke-width:1.5;"/>
            <line style="stroke:#000000;stroke-width:1.5;" x1="234.5" x2="328.5" y1="73.6094" y2="73.6094"/>
            <text fill="#000000" font-family="sans-serif" font-size="14" font-weight="bold" lengthAdjust="spacing" textLength="81" x="238.5" y="66.5332">mycompany</text>
        </g>
        <!--cluster eva3_1_excepciones-->
        <g id="cluster_eva3_1_excepciones">
            <path d="M261,94 L410,94 A3.75,3.75 0 0 1 412.5,96.5 L419.5,117.6094 L476,117.6094 A2.5,2.5 0 0 1 478.5,120.1094 L478.5,191.5 A2.5,2.5 0 0 1 476,194 L261,194 A2.5,2.5 0 0 1 258.5,191.5 L258.5,96.5 A2.5,2.5 0 0 1 261,94 " fill="none" style="stroke:#000000;stroke-width:1.5;"/>
            <line style="stroke:#000000;stroke-width:1.5;" x1="258.5" x2="419.5" y1="117.6094" y2="117.6094"/>
            <text fill="#000000" font-family="sans-serif" font-size="14" font-weight="bold" lengthAdjust="spacing" textLength="148" x="262.5" y="110.5332">eva3_1_excepciones</text>
        </g>
        <!--class EVA3_1_EXCEPCIONES-->
        <g id="elem_EVA3_1_EXCEPCIONES">
            <rect codeLine="1" fill="#F1F1F1" height="48" id="EVA3_1_EXCEPCIONES" rx="2.5" ry="2.5" style="stroke:#181818;stroke-width:0.5;" width="187" x="275" y="130"/>
            <ellipse cx="290" cy="146" fill="#ADD1B2" rx="11" ry="11" style="stroke:#181818;stroke-width:1.0;"/>
            <path d="M292.7656,141.875 Q292.9219,141.6563 293.1094,141.5469 Q293.2969,141.4375 293.5156,141.4375 Q293.8906,141.4375 294.125,141.7031 Q294.3594,141.9531 294.3594,142.5625 L294.3594,144.0156 Q294.3594,144.625 294.125,144.8906 Q293.8906,145.1563 293.5156,145.1563 Q293.1719,145.1563 292.9688,144.9531 Q292.7656,144.7656 292.6563,144.25 Q292.6094,143.8906 292.4219,143.7031 Q292.0938,143.3281 291.4844,143.1094 Q290.875,142.8906 290.25,142.8906 Q289.4844,142.8906 288.8438,143.2188 Q288.2188,143.5469 287.7188,144.2969 Q287.2344,145.0469 287.2344,146.0781 L287.2344,147.1719 Q287.2344,148.4063 288.125,149.2344 Q289.0156,150.0469 290.6094,150.0469 Q291.5469,150.0469 292.2031,149.7969 Q292.5938,149.6406 293.0156,149.2031 Q293.2813,148.9375 293.4219,148.8594 Q293.5781,148.7813 293.7813,148.7813 Q294.1094,148.7813 294.3594,149.0469 Q294.625,149.2969 294.625,149.6406 Q294.625,149.9844 294.2813,150.3906 Q293.7813,150.9688 292.9844,151.2969 Q291.9063,151.75 290.6094,151.75 Q289.0938,151.75 287.8906,151.125 Q286.9063,150.625 286.2188,149.5625 Q285.5313,148.4844 285.5313,147.2031 L285.5313,146.0469 Q285.5313,144.7188 286.1406,143.5781 Q286.7656,142.4219 287.8594,141.8125 Q288.9531,141.1875 290.1875,141.1875 Q290.9219,141.1875 291.5625,141.3594 Q292.2188,141.5156 292.7656,141.875 Z " fill="#000000"/>
            <text fill="#000000" font-family="sans-serif" font-size="14" lengthAdjust="spacing" textLength="155" x="304" y="151.7285">EVA3_1_EXCEPCIONES</text>
            <line style="stroke:#181818;stroke-width:0.5;" x1="276" x2="461" y1="162" y2="162"/>
            <line style="stroke:#181818;stroke-width:0.5;" x1="276" x2="461" y1="170" y2="170"/>
        </g>
        <!--class EVA3_1_EXCEPCIONES-->
        <g id="elem_EVA3_1_EXCEPCIONES">
            <rect codeLine="2" fill="#F1F1F1" height="118.4375" id="EVA3_1_EXCEPCIONES" rx="2.5" ry="2.5" style="stroke:#181818;stroke-width:0.5;" width="187" x="7" y="95"/>
            <ellipse cx="22" cy="111" fill="#ADD1B2" rx="11" ry="11" style="stroke:#181818;stroke-width:1.0;"/>
            <path d="M24.7656,106.875 Q24.9219,106.6563 25.1094,106.5469 Q25.2969,106.4375 25.5156,106.4375 Q25.8906,106.4375 26.125,106.7031 Q26.3594,106.9531 26.3594,107.5625 L26.3594,109.0156 Q26.3594,109.625 26.125,109.8906 Q25.8906,110.1563 25.5156,110.1563 Q25.1719,110.1563 24.9688,109.9531 Q24.7656,109.7656 24.6563,109.25 Q24.6094,108.8906 24.4219,108.7031 Q24.0938,108.3281 23.4844,108.1094 Q22.875,107.8906 22.25,107.8906 Q21.4844,107.8906 20.8438,108.2188 Q20.2188,108.5469 19.7188,109.2969 Q19.2344,110.0469 19.2344,111.0781 L19.2344,112.1719 Q19.2344,113.4063 20.125,114.2344 Q21.0156,115.0469 22.6094,115.0469 Q23.5469,115.0469 24.2031,114.7969 Q24.5938,114.6406 25.0156,114.2031 Q25.2813,113.9375 25.4219,113.8594 Q25.5781,113.7813 25.7813,113.7813 Q26.1094,113.7813 26.3594,114.0469 Q26.625,114.2969 26.625,114.6406 Q26.625,114.9844 26.2813,115.3906 Q25.7813,115.9688 24.9844,116.2969 Q23.9063,116.75 22.6094,116.75 Q21.0938,116.75 19.8906,116.125 Q18.9063,115.625 18.2188,114.5625 Q17.5313,113.4844 17.5313,112.2031 L17.5313,111.0469 Q17.5313,109.7188 18.1406,108.5781 Q18.7656,107.4219 19.8594,106.8125 Q20.9531,106.1875 22.1875,106.1875 Q22.9219,106.1875 23.5625,106.3594 Q24.2188,106.5156 24.7656,106.875 Z " fill="#000000"/>
            <text fill="#000000" font-family="sans-serif" font-size="14" lengthAdjust="spacing" textLength="155" x="36" y="116.7285">EVA3_1_EXCEPCIONES</text>
            <line style="stroke:#181818;stroke-width:0.5;" x1="8" x2="193" y1="127" y2="127"/>
            <line style="stroke:#181818;stroke-width:0.5;" x1="8" x2="193" y1="135" y2="135"/>
            <ellipse cx="18" cy="149.3047" fill="#84BE84" rx="3" ry="3" style="stroke:#038048;stroke-width:1.0;"/>
            <text fill="#000000" font-family="sans-serif" font-size="14" lengthAdjust="spacing" textLength="155" x="27" y="153.5332">main(args: String[]): void</text>
            <ellipse cx="18" cy="166.9141" fill="#84BE84" rx="3" ry="3" style="stroke:#038048;stroke-width:1.0;"/>
            <text fill="#000000" font-family="sans-serif" font-size="14" lengthAdjust="spacing" textLength="53" x="27" y="171.1426">A(): void</text>
            <ellipse cx="18" cy="184.5234" fill="#84BE84" rx="3" ry="3" style="stroke:#038048;stroke-width:1.0;"/>
            <text fill="#000000" font-family="sans-serif" font-size="14" lengthAdjust="spacing" textLength="53" x="27" y="188.752">B(): void</text>
            <ellipse cx="18" cy="202.1328" fill="#84BE84" rx="3" ry="3" style="stroke:#038048;stroke-width:1.0;"/>
            <text fill="#000000" font-family="sans-serif" font-size="14" lengthAdjust="spacing" textLength="54" x="27" y="206.3613">C(): void</text>
        </g>
        <!--SRC=[Iyv9B2vMICxFrSkj1985YNcLUgbbYSRnXl6f5Scf1ScP-NcfnNgkOOuW8TS8PzS0Pqz_FzTWhcImJam9XMek1I3GLiXDpCpJI2nABxPI22ufoinBZuxLj58eoyzCWIfmr43bEw7ndU7yMW00]-->
    </g>
</svg>
