<?xml version="1.0" encoding="UTF-8"?><svg xmlns="http://www.w3.org/2000/svg" xmlns:xlink="http://www.w3.org/1999/xlink" contentStyleType="text/css" height="467px" preserveAspectRatio="none" style="width:1017px;height:467px;background:#FFFFFF;" version="1.1" viewBox="0 0 1017 467" width="1017px" zoomAndPan="magnify">
    <defs/>
    <g>
        <!--cluster com-->
        <g id="cluster_com">
            <path d="M566.5,6 L596.5,6 A3.75,3.75 0 0 1 599,8.5 L606,29.6094 L1007.5,29.6094 A2.5,2.5 0 0 1 1010,32.1094 L1010,239.5 A2.5,2.5 0 0 1 1007.5,242 L566.5,242 A2.5,2.5 0 0 1 564,239.5 L564,8.5 A2.5,2.5 0 0 1 566.5,6 " fill="none" style="stroke:#000000;stroke-width:1.5;"/>
            <line style="stroke:#000000;stroke-width:1.5;" x1="564" x2="606" y1="29.6094" y2="29.6094"/>
            <text fill="#000000" font-family="sans-serif" font-size="14" font-weight="bold" lengthAdjust="spacing" textLength="29" x="568" y="22.5332">com</text>
        </g>
        <!--cluster mycompany-->
        <g id="cluster_mycompany">
            <path d="M590.5,50 L672.5,50 A3.75,3.75 0 0 1 675,52.5 L682,73.6094 L983.5,73.6094 A2.5,2.5 0 0 1 986,76.1094 L986,215.5 A2.5,2.5 0 0 1 983.5,218 L590.5,218 A2.5,2.5 0 0 1 588,215.5 L588,52.5 A2.5,2.5 0 0 1 590.5,50 " fill="none" style="stroke:#000000;stroke-width:1.5;"/>
            <line style="stroke:#000000;stroke-width:1.5;" x1="588" x2="682" y1="73.6094" y2="73.6094"/>
            <text fill="#000000" font-family="sans-serif" font-size="14" font-weight="bold" lengthAdjust="spacing" textLength="81" x="592" y="66.5332">mycompany</text>
        </g>
        <!--cluster eva3_2_tipos_unchecked_exceptions-->
        <g id="cluster_eva3_2_tipos_unchecked_exceptions">
            <path d="M614.5,94 L880.5,94 A3.75,3.75 0 0 1 883,96.5 L890,117.6094 L959.5,117.6094 A2.5,2.5 0 0 1 962,120.1094 L962,191.5 A2.5,2.5 0 0 1 959.5,194 L614.5,194 A2.5,2.5 0 0 1 612,191.5 L612,96.5 A2.5,2.5 0 0 1 614.5,94 " fill="none" style="stroke:#000000;stroke-width:1.5;"/>
            <line style="stroke:#000000;stroke-width:1.5;" x1="612" x2="890" y1="117.6094" y2="117.6094"/>
            <text fill="#000000" font-family="sans-serif" font-size="14" font-weight="bold" lengthAdjust="spacing" textLength="265" x="616" y="110.5332">eva3_2_tipos_unchecked_exceptions</text>
        </g>
        <!--cluster java-->
        <g id="cluster_java">
            <path d="M679.5,292 L709.5,292 A3.75,3.75 0 0 1 712,294.5 L719,315.6094 L952.5,315.6094 A2.5,2.5 0 0 1 955,318.1094 L955,457.5 A2.5,2.5 0 0 1 952.5,460 L679.5,460 A2.5,2.5 0 0 1 677,457.5 L677,294.5 A2.5,2.5 0 0 1 679.5,292 " fill="none" style="stroke:#000000;stroke-width:1.5;"/>
            <line style="stroke:#000000;stroke-width:1.5;" x1="677" x2="719" y1="315.6094" y2="315.6094"/>
            <text fill="#000000" font-family="sans-serif" font-size="14" font-weight="bold" lengthAdjust="spacing" textLength="29" x="681" y="308.5332">java</text>
        </g>
        <!--cluster io-->
        <g id="cluster_io">
            <path d="M703.5,336 L717.5,336 A3.75,3.75 0 0 1 720,338.5 L727,359.6094 L786.5,359.6094 A2.5,2.5 0 0 1 789,362.1094 L789,433.5 A2.5,2.5 0 0 1 786.5,436 L703.5,436 A2.5,2.5 0 0 1 701,433.5 L701,338.5 A2.5,2.5 0 0 1 703.5,336 " fill="none" style="stroke:#000000;stroke-width:1.5;"/>
            <line style="stroke:#000000;stroke-width:1.5;" x1="701" x2="727" y1="359.6094" y2="359.6094"/>
            <text fill="#000000" font-family="sans-serif" font-size="14" font-weight="bold" lengthAdjust="spacing" textLength="13" x="705" y="352.5332">io</text>
        </g>
        <!--cluster util-->
        <g id="cluster_util">
            <path d="M815.5,336 L838.5,336 A3.75,3.75 0 0 1 841,338.5 L848,359.6094 L928.5,359.6094 A2.5,2.5 0 0 1 931,362.1094 L931,433.5 A2.5,2.5 0 0 1 928.5,436 L815.5,436 A2.5,2.5 0 0 1 813,433.5 L813,338.5 A2.5,2.5 0 0 1 815.5,336 " fill="none" style="stroke:#000000;stroke-width:1.5;"/>
            <line style="stroke:#000000;stroke-width:1.5;" x1="813" x2="848" y1="359.6094" y2="359.6094"/>
            <text fill="#000000" font-family="sans-serif" font-size="14" font-weight="bold" lengthAdjust="spacing" textLength="22" x="817" y="352.5332">util</text>
        </g>
        <!--class EVA3_2_TIPOS_UNCHECKED_EXCEPTIONS-->
        <g id="elem_EVA3_2_TIPOS_UNCHECKED_EXCEPTIONS">
            <rect codeLine="1" fill="#F1F1F1" height="48" id="EVA3_2_TIPOS_UNCHECKED_EXCEPTIONS" rx="2.5" ry="2.5" style="stroke:#181818;stroke-width:0.5;" width="318" x="628" y="130"/>
            <ellipse cx="643" cy="146" fill="#ADD1B2" rx="11" ry="11" style="stroke:#181818;stroke-width:1.0;"/>
            <path d="M645.7656,141.875 Q645.9219,141.6563 646.1094,141.5469 Q646.2969,141.4375 646.5156,141.4375 Q646.8906,141.4375 647.125,141.7031 Q647.3594,141.9531 647.3594,142.5625 L647.3594,144.0156 Q647.3594,144.625 647.125,144.8906 Q646.8906,145.1563 646.5156,145.1563 Q646.1719,145.1563 645.9688,144.9531 Q645.7656,144.7656 645.6563,144.25 Q645.6094,143.8906 645.4219,143.7031 Q645.0938,143.3281 644.4844,143.1094 Q643.875,142.8906 643.25,142.8906 Q642.4844,142.8906 641.8438,143.2188 Q641.2188,143.5469 640.7188,144.2969 Q640.2344,145.0469 640.2344,146.0781 L640.2344,147.1719 Q640.2344,148.4063 641.125,149.2344 Q642.0156,150.0469 643.6094,150.0469 Q644.5469,150.0469 645.2031,149.7969 Q645.5938,149.6406 646.0156,149.2031 Q646.2813,148.9375 646.4219,148.8594 Q646.5781,148.7813 646.7813,148.7813 Q647.1094,148.7813 647.3594,149.0469 Q647.625,149.2969 647.625,149.6406 Q647.625,149.9844 647.2813,150.3906 Q646.7813,150.9688 645.9844,151.2969 Q644.9063,151.75 643.6094,151.75 Q642.0938,151.75 640.8906,151.125 Q639.9063,150.625 639.2188,149.5625 Q638.5313,148.4844 638.5313,147.2031 L638.5313,146.0469 Q638.5313,144.7188 639.1406,143.5781 Q639.7656,142.4219 640.8594,141.8125 Q641.9531,141.1875 643.1875,141.1875 Q643.9219,141.1875 644.5625,141.3594 Q645.2188,141.5156 645.7656,141.875 Z " fill="#000000"/>
            <text fill="#000000" font-family="sans-serif" font-size="14" lengthAdjust="spacing" textLength="286" x="657" y="151.7285">EVA3_2_TIPOS_UNCHECKED_EXCEPTIONS</text>
            <line style="stroke:#181818;stroke-width:0.5;" x1="629" x2="945" y1="162" y2="162"/>
            <line style="stroke:#181818;stroke-width:0.5;" x1="629" x2="945" y1="170" y2="170"/>
        </g>
        <!--class File-->
        <g id="elem_File">
            <rect codeLine="2" fill="#F1F1F1" height="48" id="File" rx="2.5" ry="2.5" style="stroke:#181818;stroke-width:0.5;" width="55" x="717.5" y="372"/>
            <ellipse cx="732.5" cy="388" fill="#ADD1B2" rx="11" ry="11" style="stroke:#181818;stroke-width:1.0;"/>
            <path d="M735.2656,383.875 Q735.4219,383.6563 735.6094,383.5469 Q735.7969,383.4375 736.0156,383.4375 Q736.3906,383.4375 736.625,383.7031 Q736.8594,383.9531 736.8594,384.5625 L736.8594,386.0156 Q736.8594,386.625 736.625,386.8906 Q736.3906,387.1563 736.0156,387.1563 Q735.6719,387.1563 735.4688,386.9531 Q735.2656,386.7656 735.1563,386.25 Q735.1094,385.8906 734.9219,385.7031 Q734.5938,385.3281 733.9844,385.1094 Q733.375,384.8906 732.75,384.8906 Q731.9844,384.8906 731.3438,385.2188 Q730.7188,385.5469 730.2188,386.2969 Q729.7344,387.0469 729.7344,388.0781 L729.7344,389.1719 Q729.7344,390.4063 730.625,391.2344 Q731.5156,392.0469 733.1094,392.0469 Q734.0469,392.0469 734.7031,391.7969 Q735.0938,391.6406 735.5156,391.2031 Q735.7813,390.9375 735.9219,390.8594 Q736.0781,390.7813 736.2813,390.7813 Q736.6094,390.7813 736.8594,391.0469 Q737.125,391.2969 737.125,391.6406 Q737.125,391.9844 736.7813,392.3906 Q736.2813,392.9688 735.4844,393.2969 Q734.4063,393.75 733.1094,393.75 Q731.5938,393.75 730.3906,393.125 Q729.4063,392.625 728.7188,391.5625 Q728.0313,390.4844 728.0313,389.2031 L728.0313,388.0469 Q728.0313,386.7188 728.6406,385.5781 Q729.2656,384.4219 730.3594,383.8125 Q731.4531,383.1875 732.6875,383.1875 Q733.4219,383.1875 734.0625,383.3594 Q734.7188,383.5156 735.2656,383.875 Z " fill="#000000"/>
            <text fill="#000000" font-family="sans-serif" font-size="14" lengthAdjust="spacing" textLength="23" x="746.5" y="393.7285">File</text>
            <line style="stroke:#181818;stroke-width:0.5;" x1="718.5" x2="771.5" y1="404" y2="404"/>
            <line style="stroke:#181818;stroke-width:0.5;" x1="718.5" x2="771.5" y1="412" y2="412"/>
        </g>
        <!--class Scanner-->
        <g id="elem_Scanner">
            <rect codeLine="3" fill="#F1F1F1" height="48" id="Scanner" rx="2.5" ry="2.5" style="stroke:#181818;stroke-width:0.5;" width="85" x="829.5" y="372"/>
            <ellipse cx="844.5" cy="388" fill="#ADD1B2" rx="11" ry="11" style="stroke:#181818;stroke-width:1.0;"/>
            <path d="M847.2656,383.875 Q847.4219,383.6563 847.6094,383.5469 Q847.7969,383.4375 848.0156,383.4375 Q848.3906,383.4375 848.625,383.7031 Q848.8594,383.9531 848.8594,384.5625 L848.8594,386.0156 Q848.8594,386.625 848.625,386.8906 Q848.3906,387.1563 848.0156,387.1563 Q847.6719,387.1563 847.4688,386.9531 Q847.2656,386.7656 847.1563,386.25 Q847.1094,385.8906 846.9219,385.7031 Q846.5938,385.3281 845.9844,385.1094 Q845.375,384.8906 844.75,384.8906 Q843.9844,384.8906 843.3438,385.2188 Q842.7188,385.5469 842.2188,386.2969 Q841.7344,387.0469 841.7344,388.0781 L841.7344,389.1719 Q841.7344,390.4063 842.625,391.2344 Q843.5156,392.0469 845.1094,392.0469 Q846.0469,392.0469 846.7031,391.7969 Q847.0938,391.6406 847.5156,391.2031 Q847.7813,390.9375 847.9219,390.8594 Q848.0781,390.7813 848.2813,390.7813 Q848.6094,390.7813 848.8594,391.0469 Q849.125,391.2969 849.125,391.6406 Q849.125,391.9844 848.7813,392.3906 Q848.2813,392.9688 847.4844,393.2969 Q846.4063,393.75 845.1094,393.75 Q843.5938,393.75 842.3906,393.125 Q841.4063,392.625 840.7188,391.5625 Q840.0313,390.4844 840.0313,389.2031 L840.0313,388.0469 Q840.0313,386.7188 840.6406,385.5781 Q841.2656,384.4219 842.3594,383.8125 Q843.4531,383.1875 844.6875,383.1875 Q845.4219,383.1875 846.0625,383.3594 Q846.7188,383.5156 847.2656,383.875 Z " fill="#000000"/>
            <text fill="#000000" font-family="sans-serif" font-size="14" lengthAdjust="spacing" textLength="53" x="858.5" y="393.7285">Scanner</text>
            <line style="stroke:#181818;stroke-width:0.5;" x1="830.5" x2="913.5" y1="404" y2="404"/>
            <line style="stroke:#181818;stroke-width:0.5;" x1="830.5" x2="913.5" y1="412" y2="412"/>
        </g>
        <!--class EVA3_2_TIPOS_UNCHECKED_EXCEPTIONS-->
        <g id="elem_EVA3_2_TIPOS_UNCHECKED_EXCEPTIONS">
            <rect codeLine="6" fill="#F1F1F1" height="65.6094" id="EVA3_2_TIPOS_UNCHECKED_EXCEPTIONS" rx="2.5" ry="2.5" style="stroke:#181818;stroke-width:0.5;" width="318" x="7" y="121"/>
            <ellipse cx="22" cy="137" fill="#ADD1B2" rx="11" ry="11" style="stroke:#181818;stroke-width:1.0;"/>
            <path d="M24.7656,132.875 Q24.9219,132.6563 25.1094,132.5469 Q25.2969,132.4375 25.5156,132.4375 Q25.8906,132.4375 26.125,132.7031 Q26.3594,132.9531 26.3594,133.5625 L26.3594,135.0156 Q26.3594,135.625 26.125,135.8906 Q25.8906,136.1563 25.5156,136.1563 Q25.1719,136.1563 24.9688,135.9531 Q24.7656,135.7656 24.6563,135.25 Q24.6094,134.8906 24.4219,134.7031 Q24.0938,134.3281 23.4844,134.1094 Q22.875,133.8906 22.25,133.8906 Q21.4844,133.8906 20.8438,134.2188 Q20.2188,134.5469 19.7188,135.2969 Q19.2344,136.0469 19.2344,137.0781 L19.2344,138.1719 Q19.2344,139.4063 20.125,140.2344 Q21.0156,141.0469 22.6094,141.0469 Q23.5469,141.0469 24.2031,140.7969 Q24.5938,140.6406 25.0156,140.2031 Q25.2813,139.9375 25.4219,139.8594 Q25.5781,139.7813 25.7813,139.7813 Q26.1094,139.7813 26.3594,140.0469 Q26.625,140.2969 26.625,140.6406 Q26.625,140.9844 26.2813,141.3906 Q25.7813,141.9688 24.9844,142.2969 Q23.9063,142.75 22.6094,142.75 Q21.0938,142.75 19.8906,142.125 Q18.9063,141.625 18.2188,140.5625 Q17.5313,139.4844 17.5313,138.2031 L17.5313,137.0469 Q17.5313,135.7188 18.1406,134.5781 Q18.7656,133.4219 19.8594,132.8125 Q20.9531,132.1875 22.1875,132.1875 Q22.9219,132.1875 23.5625,132.3594 Q24.2188,132.5156 24.7656,132.875 Z " fill="#000000"/>
            <text fill="#000000" font-family="sans-serif" font-size="14" lengthAdjust="spacing" textLength="286" x="36" y="142.7285">EVA3_2_TIPOS_UNCHECKED_EXCEPTIONS</text>
            <line style="stroke:#181818;stroke-width:0.5;" x1="8" x2="324" y1="153" y2="153"/>
            <line style="stroke:#181818;stroke-width:0.5;" x1="8" x2="324" y1="161" y2="161"/>
            <ellipse cx="18" cy="175.3047" fill="#84BE84" rx="3" ry="3" style="stroke:#038048;stroke-width:1.0;"/>
            <text fill="#000000" font-family="sans-serif" font-size="14" lengthAdjust="spacing" textLength="155" x="27" y="179.5332">main(args: String[]): void</text>
        </g>
        <!--class Prueba-->
        <g id="elem_Prueba">
            <rect codeLine="10" fill="#F1F1F1" height="65.6094" id="Prueba" rx="2.5" ry="2.5" style="stroke:#181818;stroke-width:0.5;" width="171" x="368.5" y="363"/>
            <ellipse cx="426.75" cy="379" fill="#ADD1B2" rx="11" ry="11" style="stroke:#181818;stroke-width:1.0;"/>
            <path d="M429.5156,374.875 Q429.6719,374.6563 429.8594,374.5469 Q430.0469,374.4375 430.2656,374.4375 Q430.6406,374.4375 430.875,374.7031 Q431.1094,374.9531 431.1094,375.5625 L431.1094,377.0156 Q431.1094,377.625 430.875,377.8906 Q430.6406,378.1563 430.2656,378.1563 Q429.9219,378.1563 429.7188,377.9531 Q429.5156,377.7656 429.4063,377.25 Q429.3594,376.8906 429.1719,376.7031 Q428.8438,376.3281 428.2344,376.1094 Q427.625,375.8906 427,375.8906 Q426.2344,375.8906 425.5938,376.2188 Q424.9688,376.5469 424.4688,377.2969 Q423.9844,378.0469 423.9844,379.0781 L423.9844,380.1719 Q423.9844,381.4063 424.875,382.2344 Q425.7656,383.0469 427.3594,383.0469 Q428.2969,383.0469 428.9531,382.7969 Q429.3438,382.6406 429.7656,382.2031 Q430.0313,381.9375 430.1719,381.8594 Q430.3281,381.7813 430.5313,381.7813 Q430.8594,381.7813 431.1094,382.0469 Q431.375,382.2969 431.375,382.6406 Q431.375,382.9844 431.0313,383.3906 Q430.5313,383.9688 429.7344,384.2969 Q428.6563,384.75 427.3594,384.75 Q425.8438,384.75 424.6406,384.125 Q423.6563,383.625 422.9688,382.5625 Q422.2813,381.4844 422.2813,380.2031 L422.2813,379.0469 Q422.2813,377.7188 422.8906,376.5781 Q423.5156,375.4219 424.6094,374.8125 Q425.7031,374.1875 426.9375,374.1875 Q427.6719,374.1875 428.3125,374.3594 Q428.9688,374.5156 429.5156,374.875 Z " fill="#000000"/>
            <text fill="#000000" font-family="sans-serif" font-size="14" lengthAdjust="spacing" textLength="46" x="447.25" y="384.7285">Prueba</text>
            <line style="stroke:#181818;stroke-width:0.5;" x1="369.5" x2="538.5" y1="395" y2="395"/>
            <line style="stroke:#181818;stroke-width:0.5;" x1="369.5" x2="538.5" y1="403" y2="403"/>
            <ellipse cx="379.5" cy="417.3047" fill="#84BE84" rx="3" ry="3" style="stroke:#038048;stroke-width:1.0;"/>
            <text fill="#000000" font-family="sans-serif" font-size="14" lengthAdjust="spacing" textLength="145" x="388.5" y="421.5332">mostrarMensaje(): void</text>
        </g>
        <!--class EVA3_1_EXCEPCIONES-->
        <g id="elem_EVA3_1_EXCEPCIONES">
            <rect fill="#F1F1F1" height="48" id="EVA3_1_EXCEPCIONES" rx="2.5" ry="2.5" style="stroke:#181818;stroke-width:0.5;" width="187" x="360.5" y="130"/>
            <ellipse cx="375.5" cy="146" fill="#ADD1B2" rx="11" ry="11" style="stroke:#181818;stroke-width:1.0;"/>
            <path d="M378.2656,141.875 Q378.4219,141.6563 378.6094,141.5469 Q378.7969,141.4375 379.0156,141.4375 Q379.3906,141.4375 379.625,141.7031 Q379.8594,141.9531 379.8594,142.5625 L379.8594,144.0156 Q379.8594,144.625 379.625,144.8906 Q379.3906,145.1563 379.0156,145.1563 Q378.6719,145.1563 378.4688,144.9531 Q378.2656,144.7656 378.1563,144.25 Q378.1094,143.8906 377.9219,143.7031 Q377.5938,143.3281 376.9844,143.1094 Q376.375,142.8906 375.75,142.8906 Q374.9844,142.8906 374.3438,143.2188 Q373.7188,143.5469 373.2188,144.2969 Q372.7344,145.0469 372.7344,146.0781 L372.7344,147.1719 Q372.7344,148.4063 373.625,149.2344 Q374.5156,150.0469 376.1094,150.0469 Q377.0469,150.0469 377.7031,149.7969 Q378.0938,149.6406 378.5156,149.2031 Q378.7813,148.9375 378.9219,148.8594 Q379.0781,148.7813 379.2813,148.7813 Q379.6094,148.7813 379.8594,149.0469 Q380.125,149.2969 380.125,149.6406 Q380.125,149.9844 379.7813,150.3906 Q379.2813,150.9688 378.4844,151.2969 Q377.4063,151.75 376.1094,151.75 Q374.5938,151.75 373.3906,151.125 Q372.4063,150.625 371.7188,149.5625 Q371.0313,148.4844 371.0313,147.2031 L371.0313,146.0469 Q371.0313,144.7188 371.6406,143.5781 Q372.2656,142.4219 373.3594,141.8125 Q374.4531,141.1875 375.6875,141.1875 Q376.4219,141.1875 377.0625,141.3594 Q377.7188,141.5156 378.2656,141.875 Z " fill="#000000"/>
            <text fill="#000000" font-family="sans-serif" font-size="14" lengthAdjust="spacing" textLength="155" x="389.5" y="151.7285">EVA3_1_EXCEPCIONES</text>
            <line style="stroke:#181818;stroke-width:0.5;" x1="361.5" x2="546.5" y1="162" y2="162"/>
            <line style="stroke:#181818;stroke-width:0.5;" x1="361.5" x2="546.5" y1="170" y2="170"/>
        </g>
        <!--link EVA3_2_TIPOS_UNCHECKED_EXCEPTIONS to File-->
        <g id="link_EVA3_2_TIPOS_UNCHECKED_EXCEPTIONS_File">
            <path codeLine="4" d="M782.97,178.01 C774.97,223.77 758.1535,319.8097 750.1135,365.7897 " fill="none" id="EVA3_2_TIPOS_UNCHECKED_EXCEPTIONS-to-File" style="stroke:#181818;stroke-width:1.0;stroke-dasharray:7.0,7.0;"/>
            <polygon fill="#181818" points="749.08,371.7,754.5704,363.5235,749.9412,366.7747,746.69,362.1455,749.08,371.7" style="stroke:#181818;stroke-width:1.0;"/>
        </g>
        <!--link EVA3_2_TIPOS_UNCHECKED_EXCEPTIONS to Scanner-->
        <g id="link_EVA3_2_TIPOS_UNCHECKED_EXCEPTIONS_Scanner">
            <path codeLine="5" d="M795.15,178.01 C811.36,223.77 845.4563,320.0644 861.7463,366.0444 " fill="none" id="EVA3_2_TIPOS_UNCHECKED_EXCEPTIONS-to-Scanner" style="stroke:#181818;stroke-width:1.0;stroke-dasharray:7.0,7.0;"/>
            <polygon fill="#181818" points="863.75,371.7,864.5149,361.8809,862.0803,366.987,856.9741,364.5525,863.75,371.7" style="stroke:#181818;stroke-width:1.0;"/>
        </g>
        <!--link EVA3_1_EXCEPCIONES to Prueba-->
        <g id="link_EVA3_1_EXCEPCIONES_Prueba">
            <path codeLine="14" d="M454,178.01 C454,220.95 454,307.38 454,356.61 " fill="none" id="EVA3_1_EXCEPCIONES-to-Prueba" style="stroke:#181818;stroke-width:1.0;"/>
            <polygon fill="#181818" points="454,362.61,458,353.61,454,357.61,450,353.61,454,362.61" style="stroke:#181818;stroke-width:1.0;"/>
            <text fill="#000000" font-family="sans-serif" font-size="13" lengthAdjust="spacing" textLength="21" x="455" y="272.4951">usa</text>
        </g>
        <!--SRC=[jOzFQm8n5CJl-HGvMiI0zRO7GRQHIb4NebAG4bwp3nkxcon9Tb74x-vsLVnpyMBVOGwFcVanAWFlgR8voxUr5c2s32leoLSPT66zB8twGVMBgSIDmY9eQppZYy6VOpPAfaBE9_4xZp_uc-IVCKzce-b44DNqhg42fYqRwWolNsNG6HCAZ457dWwdZFNlqF-7k9tIJ7oStX5QNvlce4qBtCf7L0IdpMhvzHBHokgKxCcfBN4bViCbOdrmuCPeFAonTMLliDqZ9gunND1Eft_EHxJqS000]-->
    </g>
</svg>
