<?xml version="1.0" encoding="UTF-8"?><svg xmlns="http://www.w3.org/2000/svg" xmlns:xlink="http://www.w3.org/1999/xlink" contentStyleType="text/css" height="509px" preserveAspectRatio="none" style="width:629px;height:509px;background:#FFFFFF;" version="1.1" viewBox="0 0 629 509" width="629px" zoomAndPan="magnify">
    <defs/>
    <g>
        <!--cluster com-->
        <g id="cluster_com">
            <path d="M353,6 L383,6 A3.75,3.75 0 0 1 385.5,8.5 L392.5,29.6094 L620,29.6094 A2.5,2.5 0 0 1 622.5,32.1094 L622.5,239.5 A2.5,2.5 0 0 1 620,242 L353,242 A2.5,2.5 0 0 1 350.5,239.5 L350.5,8.5 A2.5,2.5 0 0 1 353,6 " fill="none" style="stroke:#000000;stroke-width:1.5;"/>
            <line style="stroke:#000000;stroke-width:1.5;" x1="350.5" x2="392.5" y1="29.6094" y2="29.6094"/>
            <text fill="#000000" font-family="sans-serif" font-size="14" font-weight="bold" lengthAdjust="spacing" textLength="29" x="354.5" y="22.5332">com</text>
        </g>
        <!--cluster mycompany-->
        <g id="cluster_mycompany">
            <path d="M377,50 L459,50 A3.75,3.75 0 0 1 461.5,52.5 L468.5,73.6094 L596,73.6094 A2.5,2.5 0 0 1 598.5,76.1094 L598.5,215.5 A2.5,2.5 0 0 1 596,218 L377,218 A2.5,2.5 0 0 1 374.5,215.5 L374.5,52.5 A2.5,2.5 0 0 1 377,50 " fill="none" style="stroke:#000000;stroke-width:1.5;"/>
            <line style="stroke:#000000;stroke-width:1.5;" x1="374.5" x2="468.5" y1="73.6094" y2="73.6094"/>
            <text fill="#000000" font-family="sans-serif" font-size="14" font-weight="bold" lengthAdjust="spacing" textLength="81" x="378.5" y="66.5332">mycompany</text>
        </g>
        <!--cluster eva3_8_throw-->
        <g id="cluster_eva3_8_throw">
            <path d="M401,94 L500,94 A3.75,3.75 0 0 1 502.5,96.5 L509.5,117.6094 L572,117.6094 A2.5,2.5 0 0 1 574.5,120.1094 L574.5,191.5 A2.5,2.5 0 0 1 572,194 L401,194 A2.5,2.5 0 0 1 398.5,191.5 L398.5,96.5 A2.5,2.5 0 0 1 401,94 " fill="none" style="stroke:#000000;stroke-width:1.5;"/>
            <line style="stroke:#000000;stroke-width:1.5;" x1="398.5" x2="509.5" y1="117.6094" y2="117.6094"/>
            <text fill="#000000" font-family="sans-serif" font-size="14" font-weight="bold" lengthAdjust="spacing" textLength="98" x="402.5" y="110.5332">eva3_8_throw</text>
        </g>
        <!--cluster java-->
        <g id="cluster_java">
            <path d="M298,266 L328,266 A3.75,3.75 0 0 1 330.5,268.5 L337.5,289.6094 L600,289.6094 A2.5,2.5 0 0 1 602.5,292.1094 L602.5,499.5 A2.5,2.5 0 0 1 600,502 L298,502 A2.5,2.5 0 0 1 295.5,499.5 L295.5,268.5 A2.5,2.5 0 0 1 298,266 " fill="none" style="stroke:#000000;stroke-width:1.5;"/>
            <line style="stroke:#000000;stroke-width:1.5;" x1="295.5" x2="337.5" y1="289.6094" y2="289.6094"/>
            <text fill="#000000" font-family="sans-serif" font-size="14" font-weight="bold" lengthAdjust="spacing" textLength="29" x="299.5" y="282.5332">java</text>
        </g>
        <!--cluster util-->
        <g id="cluster_util">
            <path d="M322,310 L345,310 A3.75,3.75 0 0 1 347.5,312.5 L354.5,333.6094 L576,333.6094 A2.5,2.5 0 0 1 578.5,336.1094 L578.5,475.5 A2.5,2.5 0 0 1 576,478 L322,478 A2.5,2.5 0 0 1 319.5,475.5 L319.5,312.5 A2.5,2.5 0 0 1 322,310 " fill="none" style="stroke:#000000;stroke-width:1.5;"/>
            <line style="stroke:#000000;stroke-width:1.5;" x1="319.5" x2="354.5" y1="333.6094" y2="333.6094"/>
            <text fill="#000000" font-family="sans-serif" font-size="14" font-weight="bold" lengthAdjust="spacing" textLength="22" x="323.5" y="326.5332">util</text>
        </g>
        <!--cluster logging-->
        <g id="cluster_logging">
            <path d="M346,354 L400,354 A3.75,3.75 0 0 1 402.5,356.5 L409.5,377.6094 L552,377.6094 A2.5,2.5 0 0 1 554.5,380.1094 L554.5,451.5 A2.5,2.5 0 0 1 552,454 L346,454 A2.5,2.5 0 0 1 343.5,451.5 L343.5,356.5 A2.5,2.5 0 0 1 346,354 " fill="none" style="stroke:#000000;stroke-width:1.5;"/>
            <line style="stroke:#000000;stroke-width:1.5;" x1="343.5" x2="409.5" y1="377.6094" y2="377.6094"/>
            <text fill="#000000" font-family="sans-serif" font-size="14" font-weight="bold" lengthAdjust="spacing" textLength="53" x="347.5" y="370.5332">logging</text>
        </g>
        <!--class EVA3_8_THROW-->
        <g id="elem_EVA3_8_THROW">
            <rect codeLine="1" fill="#F1F1F1" height="48" id="EVA3_8_THROW" rx="2.5" ry="2.5" style="stroke:#181818;stroke-width:0.5;" width="143" x="415" y="130"/>
            <ellipse cx="430" cy="146" fill="#ADD1B2" rx="11" ry="11" style="stroke:#181818;stroke-width:1.0;"/>
            <path d="M432.7656,141.875 Q432.9219,141.6563 433.1094,141.5469 Q433.2969,141.4375 433.5156,141.4375 Q433.8906,141.4375 434.125,141.7031 Q434.3594,141.9531 434.3594,142.5625 L434.3594,144.0156 Q434.3594,144.625 434.125,144.8906 Q433.8906,145.1563 433.5156,145.1563 Q433.1719,145.1563 432.9688,144.9531 Q432.7656,144.7656 432.6563,144.25 Q432.6094,143.8906 432.4219,143.7031 Q432.0938,143.3281 431.4844,143.1094 Q430.875,142.8906 430.25,142.8906 Q429.4844,142.8906 428.8438,143.2188 Q428.2188,143.5469 427.7188,144.2969 Q427.2344,145.0469 427.2344,146.0781 L427.2344,147.1719 Q427.2344,148.4063 428.125,149.2344 Q429.0156,150.0469 430.6094,150.0469 Q431.5469,150.0469 432.2031,149.7969 Q432.5938,149.6406 433.0156,149.2031 Q433.2813,148.9375 433.4219,148.8594 Q433.5781,148.7813 433.7813,148.7813 Q434.1094,148.7813 434.3594,149.0469 Q434.625,149.2969 434.625,149.6406 Q434.625,149.9844 434.2813,150.3906 Q433.7813,150.9688 432.9844,151.2969 Q431.9063,151.75 430.6094,151.75 Q429.0938,151.75 427.8906,151.125 Q426.9063,150.625 426.2188,149.5625 Q425.5313,148.4844 425.5313,147.2031 L425.5313,146.0469 Q425.5313,144.7188 426.1406,143.5781 Q426.7656,142.4219 427.8594,141.8125 Q428.9531,141.1875 430.1875,141.1875 Q430.9219,141.1875 431.5625,141.3594 Q432.2188,141.5156 432.7656,141.875 Z " fill="#000000"/>
            <text fill="#000000" font-family="sans-serif" font-size="14" lengthAdjust="spacing" textLength="111" x="444" y="151.7285">EVA3_8_THROW</text>
            <line style="stroke:#181818;stroke-width:0.5;" x1="416" x2="557" y1="162" y2="162"/>
            <line style="stroke:#181818;stroke-width:0.5;" x1="416" x2="557" y1="170" y2="170"/>
        </g>
        <!--class Level-->
        <g id="elem_Level">
            <rect codeLine="2" fill="#F1F1F1" height="48" id="Level" rx="2.5" ry="2.5" style="stroke:#181818;stroke-width:0.5;" width="66" x="472.5" y="390"/>
            <ellipse cx="487.5" cy="406" fill="#ADD1B2" rx="11" ry="11" style="stroke:#181818;stroke-width:1.0;"/>
            <path d="M490.2656,401.875 Q490.4219,401.6563 490.6094,401.5469 Q490.7969,401.4375 491.0156,401.4375 Q491.3906,401.4375 491.625,401.7031 Q491.8594,401.9531 491.8594,402.5625 L491.8594,404.0156 Q491.8594,404.625 491.625,404.8906 Q491.3906,405.1563 491.0156,405.1563 Q490.6719,405.1563 490.4688,404.9531 Q490.2656,404.7656 490.1563,404.25 Q490.1094,403.8906 489.9219,403.7031 Q489.5938,403.3281 488.9844,403.1094 Q488.375,402.8906 487.75,402.8906 Q486.9844,402.8906 486.3438,403.2188 Q485.7188,403.5469 485.2188,404.2969 Q484.7344,405.0469 484.7344,406.0781 L484.7344,407.1719 Q484.7344,408.4063 485.625,409.2344 Q486.5156,410.0469 488.1094,410.0469 Q489.0469,410.0469 489.7031,409.7969 Q490.0938,409.6406 490.5156,409.2031 Q490.7813,408.9375 490.9219,408.8594 Q491.0781,408.7813 491.2813,408.7813 Q491.6094,408.7813 491.8594,409.0469 Q492.125,409.2969 492.125,409.6406 Q492.125,409.9844 491.7813,410.3906 Q491.2813,410.9688 490.4844,411.2969 Q489.4063,411.75 488.1094,411.75 Q486.5938,411.75 485.3906,411.125 Q484.4063,410.625 483.7188,409.5625 Q483.0313,408.4844 483.0313,407.2031 L483.0313,406.0469 Q483.0313,404.7188 483.6406,403.5781 Q484.2656,402.4219 485.3594,401.8125 Q486.4531,401.1875 487.6875,401.1875 Q488.4219,401.1875 489.0625,401.3594 Q489.7188,401.5156 490.2656,401.875 Z " fill="#000000"/>
            <text fill="#000000" font-family="sans-serif" font-size="14" lengthAdjust="spacing" textLength="34" x="501.5" y="411.7285">Level</text>
            <line style="stroke:#181818;stroke-width:0.5;" x1="473.5" x2="537.5" y1="422" y2="422"/>
            <line style="stroke:#181818;stroke-width:0.5;" x1="473.5" x2="537.5" y1="430" y2="430"/>
        </g>
        <!--class Logger-->
        <g id="elem_Logger">
            <rect codeLine="3" fill="#F1F1F1" height="48" id="Logger" rx="2.5" ry="2.5" style="stroke:#181818;stroke-width:0.5;" width="77" x="360" y="390"/>
            <ellipse cx="375" cy="406" fill="#ADD1B2" rx="11" ry="11" style="stroke:#181818;stroke-width:1.0;"/>
            <path d="M377.7656,401.875 Q377.9219,401.6563 378.1094,401.5469 Q378.2969,401.4375 378.5156,401.4375 Q378.8906,401.4375 379.125,401.7031 Q379.3594,401.9531 379.3594,402.5625 L379.3594,404.0156 Q379.3594,404.625 379.125,404.8906 Q378.8906,405.1563 378.5156,405.1563 Q378.1719,405.1563 377.9688,404.9531 Q377.7656,404.7656 377.6563,404.25 Q377.6094,403.8906 377.4219,403.7031 Q377.0938,403.3281 376.4844,403.1094 Q375.875,402.8906 375.25,402.8906 Q374.4844,402.8906 373.8438,403.2188 Q373.2188,403.5469 372.7188,404.2969 Q372.2344,405.0469 372.2344,406.0781 L372.2344,407.1719 Q372.2344,408.4063 373.125,409.2344 Q374.0156,410.0469 375.6094,410.0469 Q376.5469,410.0469 377.2031,409.7969 Q377.5938,409.6406 378.0156,409.2031 Q378.2813,408.9375 378.4219,408.8594 Q378.5781,408.7813 378.7813,408.7813 Q379.1094,408.7813 379.3594,409.0469 Q379.625,409.2969 379.625,409.6406 Q379.625,409.9844 379.2813,410.3906 Q378.7813,410.9688 377.9844,411.2969 Q376.9063,411.75 375.6094,411.75 Q374.0938,411.75 372.8906,411.125 Q371.9063,410.625 371.2188,409.5625 Q370.5313,408.4844 370.5313,407.2031 L370.5313,406.0469 Q370.5313,404.7188 371.1406,403.5781 Q371.7656,402.4219 372.8594,401.8125 Q373.9531,401.1875 375.1875,401.1875 Q375.9219,401.1875 376.5625,401.3594 Q377.2188,401.5156 377.7656,401.875 Z " fill="#000000"/>
            <text fill="#000000" font-family="sans-serif" font-size="14" lengthAdjust="spacing" textLength="45" x="389" y="411.7285">Logger</text>
            <line style="stroke:#181818;stroke-width:0.5;" x1="361" x2="436" y1="422" y2="422"/>
            <line style="stroke:#181818;stroke-width:0.5;" x1="361" x2="436" y1="430" y2="430"/>
        </g>
        <!--class EVA3_8_THROW-->
        <g id="elem_EVA3_8_THROW">
            <rect codeLine="6" fill="#F1F1F1" height="83.2188" id="EVA3_8_THROW" rx="2.5" ry="2.5" style="stroke:#181818;stroke-width:0.5;" width="215" x="7" y="112.5"/>
            <ellipse cx="54.75" cy="128.5" fill="#ADD1B2" rx="11" ry="11" style="stroke:#181818;stroke-width:1.0;"/>
            <path d="M57.5156,124.375 Q57.6719,124.1563 57.8594,124.0469 Q58.0469,123.9375 58.2656,123.9375 Q58.6406,123.9375 58.875,124.2031 Q59.1094,124.4531 59.1094,125.0625 L59.1094,126.5156 Q59.1094,127.125 58.875,127.3906 Q58.6406,127.6563 58.2656,127.6563 Q57.9219,127.6563 57.7188,127.4531 Q57.5156,127.2656 57.4063,126.75 Q57.3594,126.3906 57.1719,126.2031 Q56.8438,125.8281 56.2344,125.6094 Q55.625,125.3906 55,125.3906 Q54.2344,125.3906 53.5938,125.7188 Q52.9688,126.0469 52.4688,126.7969 Q51.9844,127.5469 51.9844,128.5781 L51.9844,129.6719 Q51.9844,130.9063 52.875,131.7344 Q53.7656,132.5469 55.3594,132.5469 Q56.2969,132.5469 56.9531,132.2969 Q57.3438,132.1406 57.7656,131.7031 Q58.0313,131.4375 58.1719,131.3594 Q58.3281,131.2813 58.5313,131.2813 Q58.8594,131.2813 59.1094,131.5469 Q59.375,131.7969 59.375,132.1406 Q59.375,132.4844 59.0313,132.8906 Q58.5313,133.4688 57.7344,133.7969 Q56.6563,134.25 55.3594,134.25 Q53.8438,134.25 52.6406,133.625 Q51.6563,133.125 50.9688,132.0625 Q50.2813,130.9844 50.2813,129.7031 L50.2813,128.5469 Q50.2813,127.2188 50.8906,126.0781 Q51.5156,124.9219 52.6094,124.3125 Q53.7031,123.6875 54.9375,123.6875 Q55.6719,123.6875 56.3125,123.8594 Q56.9688,124.0156 57.5156,124.375 Z " fill="#000000"/>
            <text fill="#000000" font-family="sans-serif" font-size="14" lengthAdjust="spacing" textLength="111" x="75.25" y="134.2285">EVA3_8_THROW</text>
            <line style="stroke:#181818;stroke-width:0.5;" x1="8" x2="221" y1="144.5" y2="144.5"/>
            <line style="stroke:#181818;stroke-width:0.5;" x1="8" x2="221" y1="152.5" y2="152.5"/>
            <ellipse cx="18" cy="166.8047" fill="#84BE84" rx="3" ry="3" style="stroke:#038048;stroke-width:1.0;"/>
            <text fill="#000000" font-family="sans-serif" font-size="14" lengthAdjust="spacing" textLength="151" x="27" y="171.0332">main(String[] args): void</text>
            <ellipse cx="18" cy="184.4141" fill="#84BE84" rx="3" ry="3" style="stroke:#038048;stroke-width:1.0;"/>
            <text fill="#000000" font-family="sans-serif" font-size="14" lengthAdjust="spacing" textLength="189" x="27" y="188.6426">division(int val1, int val2): void</text>
        </g>
        <!--class Logger-->
        <g id="elem_Logger">
            <rect codeLine="11" fill="#F1F1F1" height="48" id="Logger" rx="2.5" ry="2.5" style="stroke:#181818;stroke-width:0.5;" width="77" x="257" y="130"/>
            <ellipse cx="272" cy="146" fill="#ADD1B2" rx="11" ry="11" style="stroke:#181818;stroke-width:1.0;"/>
            <path d="M274.7656,141.875 Q274.9219,141.6563 275.1094,141.5469 Q275.2969,141.4375 275.5156,141.4375 Q275.8906,141.4375 276.125,141.7031 Q276.3594,141.9531 276.3594,142.5625 L276.3594,144.0156 Q276.3594,144.625 276.125,144.8906 Q275.8906,145.1563 275.5156,145.1563 Q275.1719,145.1563 274.9688,144.9531 Q274.7656,144.7656 274.6563,144.25 Q274.6094,143.8906 274.4219,143.7031 Q274.0938,143.3281 273.4844,143.1094 Q272.875,142.8906 272.25,142.8906 Q271.4844,142.8906 270.8438,143.2188 Q270.2188,143.5469 269.7188,144.2969 Q269.2344,145.0469 269.2344,146.0781 L269.2344,147.1719 Q269.2344,148.4063 270.125,149.2344 Q271.0156,150.0469 272.6094,150.0469 Q273.5469,150.0469 274.2031,149.7969 Q274.5938,149.6406 275.0156,149.2031 Q275.2813,148.9375 275.4219,148.8594 Q275.5781,148.7813 275.7813,148.7813 Q276.1094,148.7813 276.3594,149.0469 Q276.625,149.2969 276.625,149.6406 Q276.625,149.9844 276.2813,150.3906 Q275.7813,150.9688 274.9844,151.2969 Q273.9063,151.75 272.6094,151.75 Q271.0938,151.75 269.8906,151.125 Q268.9063,150.625 268.2188,149.5625 Q267.5313,148.4844 267.5313,147.2031 L267.5313,146.0469 Q267.5313,144.7188 268.1406,143.5781 Q268.7656,142.4219 269.8594,141.8125 Q270.9531,141.1875 272.1875,141.1875 Q272.9219,141.1875 273.5625,141.3594 Q274.2188,141.5156 274.7656,141.875 Z " fill="#000000"/>
            <text fill="#000000" font-family="sans-serif" font-size="14" lengthAdjust="spacing" textLength="45" x="286" y="151.7285">Logger</text>
            <line style="stroke:#181818;stroke-width:0.5;" x1="258" x2="333" y1="162" y2="162"/>
            <line style="stroke:#181818;stroke-width:0.5;" x1="258" x2="333" y1="170" y2="170"/>
        </g>
        <!--class Level-->
        <g id="elem_Level">
            <rect codeLine="12" fill="#F1F1F1" height="48" id="Level" rx="2.5" ry="2.5" style="stroke:#181818;stroke-width:0.5;" width="66" x="81.5" y="390"/>
            <ellipse cx="96.5" cy="406" fill="#ADD1B2" rx="11" ry="11" style="stroke:#181818;stroke-width:1.0;"/>
            <path d="M99.2656,401.875 Q99.4219,401.6563 99.6094,401.5469 Q99.7969,401.4375 100.0156,401.4375 Q100.3906,401.4375 100.625,401.7031 Q100.8594,401.9531 100.8594,402.5625 L100.8594,404.0156 Q100.8594,404.625 100.625,404.8906 Q100.3906,405.1563 100.0156,405.1563 Q99.6719,405.1563 99.4688,404.9531 Q99.2656,404.7656 99.1563,404.25 Q99.1094,403.8906 98.9219,403.7031 Q98.5938,403.3281 97.9844,403.1094 Q97.375,402.8906 96.75,402.8906 Q95.9844,402.8906 95.3438,403.2188 Q94.7188,403.5469 94.2188,404.2969 Q93.7344,405.0469 93.7344,406.0781 L93.7344,407.1719 Q93.7344,408.4063 94.625,409.2344 Q95.5156,410.0469 97.1094,410.0469 Q98.0469,410.0469 98.7031,409.7969 Q99.0938,409.6406 99.5156,409.2031 Q99.7813,408.9375 99.9219,408.8594 Q100.0781,408.7813 100.2813,408.7813 Q100.6094,408.7813 100.8594,409.0469 Q101.125,409.2969 101.125,409.6406 Q101.125,409.9844 100.7813,410.3906 Q100.2813,410.9688 99.4844,411.2969 Q98.4063,411.75 97.1094,411.75 Q95.5938,411.75 94.3906,411.125 Q93.4063,410.625 92.7188,409.5625 Q92.0313,408.4844 92.0313,407.2031 L92.0313,406.0469 Q92.0313,404.7188 92.6406,403.5781 Q93.2656,402.4219 94.3594,401.8125 Q95.4531,401.1875 96.6875,401.1875 Q97.4219,401.1875 98.0625,401.3594 Q98.7188,401.5156 99.2656,401.875 Z " fill="#000000"/>
            <text fill="#000000" font-family="sans-serif" font-size="14" lengthAdjust="spacing" textLength="34" x="110.5" y="411.7285">Level</text>
            <line style="stroke:#181818;stroke-width:0.5;" x1="82.5" x2="146.5" y1="422" y2="422"/>
            <line style="stroke:#181818;stroke-width:0.5;" x1="82.5" x2="146.5" y1="430" y2="430"/>
        </g>
        <!--link EVA3_8_THROW to Level-->
        <g id="link_EVA3_8_THROW_Level">
            <path codeLine="4" d="M488.22,178.35 C491.84,227.47 499.7596,334.9962 503.3596,383.9062 " fill="none" id="EVA3_8_THROW-to-Level" style="stroke:#181818;stroke-width:1.0;stroke-dasharray:7.0,7.0;"/>
            <polygon fill="#181818" points="503.8,389.89,507.1286,380.6207,503.433,384.9035,499.1501,381.2079,503.8,389.89" style="stroke:#181818;stroke-width:1.0;"/>
        </g>
        <!--link EVA3_8_THROW to Logger-->
        <g id="link_EVA3_8_THROW_Logger">
            <path codeLine="5" d="M478.54,178.35 C461.78,227.47 425.0077,335.3015 408.3177,384.2115 " fill="none" id="EVA3_8_THROW-to-Logger" style="stroke:#181818;stroke-width:1.0;stroke-dasharray:7.0,7.0;"/>
            <polygon fill="#181818" points="406.38,389.89,413.0722,382.6641,407.9948,385.1579,405.5009,380.0805,406.38,389.89" style="stroke:#181818;stroke-width:1.0;"/>
        </g>
        <!--SRC=[Iyv9B2vMICxFrSkj1985YNcLUgbbYSRn5l4b6KNvvNgkOOuWJeX7a7yuLp9OTLPYMQ9UQKbcZbvEVdfwPbwwdazgMMeERbaWdLh4HQGb2dfwThYjeCmCg4F0xaHHNysb00JQ2hc9cNaQmIL5GDNHiGg9HUd5cbOAPVcPAL3vbCoopEBC_3oDpBmIXRB474CT1IZB2AQmbWjg0OfjOES30000]-->
    </g>
</svg>
