<?xml version="1.0" encoding="UTF-8"?><svg xmlns="http://www.w3.org/2000/svg" xmlns:xlink="http://www.w3.org/1999/xlink" contentStyleType="text/css" height="441px" preserveAspectRatio="none" style="width:722px;height:441px;background:#FFFFFF;" version="1.1" viewBox="0 0 722 441" width="722px" zoomAndPan="magnify">
    <defs/>
    <g>
        <!--cluster com-->
        <g id="cluster_com">
            <path d="M307.5,6 L337.5,6 A3.75,3.75 0 0 1 340,8.5 L347,29.6094 L712.5,29.6094 A2.5,2.5 0 0 1 715,32.1094 L715,239.5 A2.5,2.5 0 0 1 712.5,242 L307.5,242 A2.5,2.5 0 0 1 305,239.5 L305,8.5 A2.5,2.5 0 0 1 307.5,6 " fill="none" style="stroke:#000000;stroke-width:1.5;"/>
            <line style="stroke:#000000;stroke-width:1.5;" x1="305" x2="347" y1="29.6094" y2="29.6094"/>
            <text fill="#000000" font-family="sans-serif" font-size="14" font-weight="bold" lengthAdjust="spacing" textLength="29" x="309" y="22.5332">com</text>
        </g>
        <!--cluster mycompany-->
        <g id="cluster_mycompany">
            <path d="M331.5,50 L413.5,50 A3.75,3.75 0 0 1 416,52.5 L423,73.6094 L688.5,73.6094 A2.5,2.5 0 0 1 691,76.1094 L691,215.5 A2.5,2.5 0 0 1 688.5,218 L331.5,218 A2.5,2.5 0 0 1 329,215.5 L329,52.5 A2.5,2.5 0 0 1 331.5,50 " fill="none" style="stroke:#000000;stroke-width:1.5;"/>
            <line style="stroke:#000000;stroke-width:1.5;" x1="329" x2="423" y1="73.6094" y2="73.6094"/>
            <text fill="#000000" font-family="sans-serif" font-size="14" font-weight="bold" lengthAdjust="spacing" textLength="81" x="333" y="66.5332">mycompany</text>
        </g>
        <!--cluster eva3_6_controlar_excepciones-->
        <g id="cluster_eva3_6_controlar_excepciones">
            <path d="M355.5,94 L576.5,94 A3.75,3.75 0 0 1 579,96.5 L586,117.6094 L664.5,117.6094 A2.5,2.5 0 0 1 667,120.1094 L667,191.5 A2.5,2.5 0 0 1 664.5,194 L355.5,194 A2.5,2.5 0 0 1 353,191.5 L353,96.5 A2.5,2.5 0 0 1 355.5,94 " fill="none" style="stroke:#000000;stroke-width:1.5;"/>
            <line style="stroke:#000000;stroke-width:1.5;" x1="353" x2="586" y1="117.6094" y2="117.6094"/>
            <text fill="#000000" font-family="sans-serif" font-size="14" font-weight="bold" lengthAdjust="spacing" textLength="220" x="357" y="110.5332">eva3_6_controlar_excepciones</text>
        </g>
        <!--cluster java-->
        <g id="cluster_java">
            <path d="M283.5,266 L313.5,266 A3.75,3.75 0 0 1 316,268.5 L323,289.6094 L662.5,289.6094 A2.5,2.5 0 0 1 665,292.1094 L665,431.5 A2.5,2.5 0 0 1 662.5,434 L283.5,434 A2.5,2.5 0 0 1 281,431.5 L281,268.5 A2.5,2.5 0 0 1 283.5,266 " fill="none" style="stroke:#000000;stroke-width:1.5;"/>
            <line style="stroke:#000000;stroke-width:1.5;" x1="281" x2="323" y1="289.6094" y2="289.6094"/>
            <text fill="#000000" font-family="sans-serif" font-size="14" font-weight="bold" lengthAdjust="spacing" textLength="29" x="285" y="282.5332">java</text>
        </g>
        <!--cluster util-->
        <g id="cluster_util">
            <path d="M307.5,310 L330.5,310 A3.75,3.75 0 0 1 333,312.5 L340,333.6094 L638.5,333.6094 A2.5,2.5 0 0 1 641,336.1094 L641,407.5 A2.5,2.5 0 0 1 638.5,410 L307.5,410 A2.5,2.5 0 0 1 305,407.5 L305,312.5 A2.5,2.5 0 0 1 307.5,310 " fill="none" style="stroke:#000000;stroke-width:1.5;"/>
            <line style="stroke:#000000;stroke-width:1.5;" x1="305" x2="340" y1="333.6094" y2="333.6094"/>
            <text fill="#000000" font-family="sans-serif" font-size="14" font-weight="bold" lengthAdjust="spacing" textLength="22" x="309" y="326.5332">util</text>
        </g>
        <!--class EVA3_6_CONTROLAR_EXCEPCIONES-->
        <g id="elem_EVA3_6_CONTROLAR_EXCEPCIONES">
            <rect codeLine="1" fill="#F1F1F1" height="48" id="EVA3_6_CONTROLAR_EXCEPCIONES" rx="2.5" ry="2.5" style="stroke:#181818;stroke-width:0.5;" width="282" x="369" y="130"/>
            <ellipse cx="384" cy="146" fill="#ADD1B2" rx="11" ry="11" style="stroke:#181818;stroke-width:1.0;"/>
            <path d="M386.7656,141.875 Q386.9219,141.6563 387.1094,141.5469 Q387.2969,141.4375 387.5156,141.4375 Q387.8906,141.4375 388.125,141.7031 Q388.3594,141.9531 388.3594,142.5625 L388.3594,144.0156 Q388.3594,144.625 388.125,144.8906 Q387.8906,145.1563 387.5156,145.1563 Q387.1719,145.1563 386.9688,144.9531 Q386.7656,144.7656 386.6563,144.25 Q386.6094,143.8906 386.4219,143.7031 Q386.0938,143.3281 385.4844,143.1094 Q384.875,142.8906 384.25,142.8906 Q383.4844,142.8906 382.8438,143.2188 Q382.2188,143.5469 381.7188,144.2969 Q381.2344,145.0469 381.2344,146.0781 L381.2344,147.1719 Q381.2344,148.4063 382.125,149.2344 Q383.0156,150.0469 384.6094,150.0469 Q385.5469,150.0469 386.2031,149.7969 Q386.5938,149.6406 387.0156,149.2031 Q387.2813,148.9375 387.4219,148.8594 Q387.5781,148.7813 387.7813,148.7813 Q388.1094,148.7813 388.3594,149.0469 Q388.625,149.2969 388.625,149.6406 Q388.625,149.9844 388.2813,150.3906 Q387.7813,150.9688 386.9844,151.2969 Q385.9063,151.75 384.6094,151.75 Q383.0938,151.75 381.8906,151.125 Q380.9063,150.625 380.2188,149.5625 Q379.5313,148.4844 379.5313,147.2031 L379.5313,146.0469 Q379.5313,144.7188 380.1406,143.5781 Q380.7656,142.4219 381.8594,141.8125 Q382.9531,141.1875 384.1875,141.1875 Q384.9219,141.1875 385.5625,141.3594 Q386.2188,141.5156 386.7656,141.875 Z " fill="#000000"/>
            <text fill="#000000" font-family="sans-serif" font-size="14" lengthAdjust="spacing" textLength="250" x="398" y="151.7285">EVA3_6_CONTROLAR_EXCEPCIONES</text>
            <line style="stroke:#181818;stroke-width:0.5;" x1="370" x2="650" y1="162" y2="162"/>
            <line style="stroke:#181818;stroke-width:0.5;" x1="370" x2="650" y1="170" y2="170"/>
        </g>
        <!--class InputMismatchException-->
        <g id="elem_InputMismatchException">
            <rect codeLine="2" fill="#F1F1F1" height="48" id="InputMismatchException" rx="2.5" ry="2.5" style="stroke:#181818;stroke-width:0.5;" width="183" x="441.5" y="346"/>
            <ellipse cx="456.5" cy="362" fill="#ADD1B2" rx="11" ry="11" style="stroke:#181818;stroke-width:1.0;"/>
            <path d="M459.2656,357.875 Q459.4219,357.6563 459.6094,357.5469 Q459.7969,357.4375 460.0156,357.4375 Q460.3906,357.4375 460.625,357.7031 Q460.8594,357.9531 460.8594,358.5625 L460.8594,360.0156 Q460.8594,360.625 460.625,360.8906 Q460.3906,361.1563 460.0156,361.1563 Q459.6719,361.1563 459.4688,360.9531 Q459.2656,360.7656 459.1563,360.25 Q459.1094,359.8906 458.9219,359.7031 Q458.5938,359.3281 457.9844,359.1094 Q457.375,358.8906 456.75,358.8906 Q455.9844,358.8906 455.3438,359.2188 Q454.7188,359.5469 454.2188,360.2969 Q453.7344,361.0469 453.7344,362.0781 L453.7344,363.1719 Q453.7344,364.4063 454.625,365.2344 Q455.5156,366.0469 457.1094,366.0469 Q458.0469,366.0469 458.7031,365.7969 Q459.0938,365.6406 459.5156,365.2031 Q459.7813,364.9375 459.9219,364.8594 Q460.0781,364.7813 460.2813,364.7813 Q460.6094,364.7813 460.8594,365.0469 Q461.125,365.2969 461.125,365.6406 Q461.125,365.9844 460.7813,366.3906 Q460.2813,366.9688 459.4844,367.2969 Q458.4063,367.75 457.1094,367.75 Q455.5938,367.75 454.3906,367.125 Q453.4063,366.625 452.7188,365.5625 Q452.0313,364.4844 452.0313,363.2031 L452.0313,362.0469 Q452.0313,360.7188 452.6406,359.5781 Q453.2656,358.4219 454.3594,357.8125 Q455.4531,357.1875 456.6875,357.1875 Q457.4219,357.1875 458.0625,357.3594 Q458.7188,357.5156 459.2656,357.875 Z " fill="#000000"/>
            <text fill="#000000" font-family="sans-serif" font-size="14" lengthAdjust="spacing" textLength="151" x="470.5" y="367.7285">InputMismatchException</text>
            <line style="stroke:#181818;stroke-width:0.5;" x1="442.5" x2="623.5" y1="378" y2="378"/>
            <line style="stroke:#181818;stroke-width:0.5;" x1="442.5" x2="623.5" y1="386" y2="386"/>
        </g>
        <!--class Scanner-->
        <g id="elem_Scanner">
            <rect codeLine="3" fill="#F1F1F1" height="48" id="Scanner" rx="2.5" ry="2.5" style="stroke:#181818;stroke-width:0.5;" width="85" x="321.5" y="346"/>
            <ellipse cx="336.5" cy="362" fill="#ADD1B2" rx="11" ry="11" style="stroke:#181818;stroke-width:1.0;"/>
            <path d="M339.2656,357.875 Q339.4219,357.6563 339.6094,357.5469 Q339.7969,357.4375 340.0156,357.4375 Q340.3906,357.4375 340.625,357.7031 Q340.8594,357.9531 340.8594,358.5625 L340.8594,360.0156 Q340.8594,360.625 340.625,360.8906 Q340.3906,361.1563 340.0156,361.1563 Q339.6719,361.1563 339.4688,360.9531 Q339.2656,360.7656 339.1563,360.25 Q339.1094,359.8906 338.9219,359.7031 Q338.5938,359.3281 337.9844,359.1094 Q337.375,358.8906 336.75,358.8906 Q335.9844,358.8906 335.3438,359.2188 Q334.7188,359.5469 334.2188,360.2969 Q333.7344,361.0469 333.7344,362.0781 L333.7344,363.1719 Q333.7344,364.4063 334.625,365.2344 Q335.5156,366.0469 337.1094,366.0469 Q338.0469,366.0469 338.7031,365.7969 Q339.0938,365.6406 339.5156,365.2031 Q339.7813,364.9375 339.9219,364.8594 Q340.0781,364.7813 340.2813,364.7813 Q340.6094,364.7813 340.8594,365.0469 Q341.125,365.2969 341.125,365.6406 Q341.125,365.9844 340.7813,366.3906 Q340.2813,366.9688 339.4844,367.2969 Q338.4063,367.75 337.1094,367.75 Q335.5938,367.75 334.3906,367.125 Q333.4063,366.625 332.7188,365.5625 Q332.0313,364.4844 332.0313,363.2031 L332.0313,362.0469 Q332.0313,360.7188 332.6406,359.5781 Q333.2656,358.4219 334.3594,357.8125 Q335.4531,357.1875 336.6875,357.1875 Q337.4219,357.1875 338.0625,357.3594 Q338.7188,357.5156 339.2656,357.875 Z " fill="#000000"/>
            <text fill="#000000" font-family="sans-serif" font-size="14" lengthAdjust="spacing" textLength="53" x="350.5" y="367.7285">Scanner</text>
            <line style="stroke:#181818;stroke-width:0.5;" x1="322.5" x2="405.5" y1="378" y2="378"/>
            <line style="stroke:#181818;stroke-width:0.5;" x1="322.5" x2="405.5" y1="386" y2="386"/>
        </g>
        <!--class EVA3_6_CONTROLAR_EXCEPCIONES-->
        <g id="elem_EVA3_6_CONTROLAR_EXCEPCIONES">
            <rect codeLine="6" fill="#F1F1F1" height="65.6094" id="EVA3_6_CONTROLAR_EXCEPCIONES" rx="2.5" ry="2.5" style="stroke:#181818;stroke-width:0.5;" width="282" x="7" y="121"/>
            <ellipse cx="22" cy="137" fill="#ADD1B2" rx="11" ry="11" style="stroke:#181818;stroke-width:1.0;"/>
            <path d="M24.7656,132.875 Q24.9219,132.6563 25.1094,132.5469 Q25.2969,132.4375 25.5156,132.4375 Q25.8906,132.4375 26.125,132.7031 Q26.3594,132.9531 26.3594,133.5625 L26.3594,135.0156 Q26.3594,135.625 26.125,135.8906 Q25.8906,136.1563 25.5156,136.1563 Q25.1719,136.1563 24.9688,135.9531 Q24.7656,135.7656 24.6563,135.25 Q24.6094,134.8906 24.4219,134.7031 Q24.0938,134.3281 23.4844,134.1094 Q22.875,133.8906 22.25,133.8906 Q21.4844,133.8906 20.8438,134.2188 Q20.2188,134.5469 19.7188,135.2969 Q19.2344,136.0469 19.2344,137.0781 L19.2344,138.1719 Q19.2344,139.4063 20.125,140.2344 Q21.0156,141.0469 22.6094,141.0469 Q23.5469,141.0469 24.2031,140.7969 Q24.5938,140.6406 25.0156,140.2031 Q25.2813,139.9375 25.4219,139.8594 Q25.5781,139.7813 25.7813,139.7813 Q26.1094,139.7813 26.3594,140.0469 Q26.625,140.2969 26.625,140.6406 Q26.625,140.9844 26.2813,141.3906 Q25.7813,141.9688 24.9844,142.2969 Q23.9063,142.75 22.6094,142.75 Q21.0938,142.75 19.8906,142.125 Q18.9063,141.625 18.2188,140.5625 Q17.5313,139.4844 17.5313,138.2031 L17.5313,137.0469 Q17.5313,135.7188 18.1406,134.5781 Q18.7656,133.4219 19.8594,132.8125 Q20.9531,132.1875 22.1875,132.1875 Q22.9219,132.1875 23.5625,132.3594 Q24.2188,132.5156 24.7656,132.875 Z " fill="#000000"/>
            <text fill="#000000" font-family="sans-serif" font-size="14" lengthAdjust="spacing" textLength="250" x="36" y="142.7285">EVA3_6_CONTROLAR_EXCEPCIONES</text>
            <line style="stroke:#181818;stroke-width:0.5;" x1="8" x2="288" y1="153" y2="153"/>
            <line style="stroke:#181818;stroke-width:0.5;" x1="8" x2="288" y1="161" y2="161"/>
            <ellipse cx="18" cy="175.3047" fill="#84BE84" rx="3" ry="3" style="stroke:#038048;stroke-width:1.0;"/>
            <text fill="#000000" font-family="sans-serif" font-size="14" lengthAdjust="spacing" textLength="155" x="27" y="179.5332">main(String[] args) : void</text>
        </g>
        <!--link EVA3_6_CONTROLAR_EXCEPCIONES to InputMismatchException-->
        <g id="link_EVA3_6_CONTROLAR_EXCEPCIONES_InputMismatchException">
            <path codeLine="4" d="M512.51,178.31 C516.93,219.47 525.4391,298.6143 529.8591,339.7543 " fill="none" id="EVA3_6_CONTROLAR_EXCEPCIONES-to-InputMismatchException" style="stroke:#181818;stroke-width:1.0;stroke-dasharray:7.0,7.0;"/>
            <polygon fill="#181818" points="530.5,345.72,533.5157,336.3442,529.9659,340.7486,525.5615,337.1988,530.5,345.72" style="stroke:#181818;stroke-width:1.0;"/>
        </g>
        <!--link EVA3_6_CONTROLAR_EXCEPCIONES to Scanner-->
        <g id="link_EVA3_6_CONTROLAR_EXCEPCIONES_Scanner">
            <path codeLine="5" d="M488.42,178.07 C470.11,198.28 443.73,228.88 424,258 C404.46,286.83 388.6655,317.2701 377.5155,340.2901 " fill="none" id="EVA3_6_CONTROLAR_EXCEPCIONES-to-Scanner" style="stroke:#181818;stroke-width:1.0;stroke-dasharray:7.0,7.0;"/>
            <polygon fill="#181818" points="374.9,345.69,382.4232,339.3338,377.0796,341.1901,375.2233,335.8465,374.9,345.69" style="stroke:#181818;stroke-width:1.0;"/>
        </g>
        <!--SRC=[Iyv9B2vMICxFrSkj1985YNcLUgbbYSRnPl79-NabHVavYKNngHN9gGN9cVbvgSLwhc6E84bdVx-G87yVnw1urmXdrm1dJty_rs2kPB1fMObbYNgb9PavUfvv1QKblfd5kOaboHck85DAWAPWA0jEJipBIotYef8p5FJqx8Xm14qiWti5x4My6gkv5810Mo4tCJDF8xYaA3ClFJfM8R4elLXJmKgXB3ypXQiM0000]-->
    </g>
</svg>
