<?xml version="1.0" encoding="UTF-8"?><svg xmlns="http://www.w3.org/2000/svg" xmlns:xlink="http://www.w3.org/1999/xlink" contentStyleType="text/css" height="509px" preserveAspectRatio="none" style="width:1911px;height:509px;background:#FFFFFF;" version="1.1" viewBox="0 0 1911 509" width="1911px" zoomAndPan="magnify">
    <defs/>
    <g>
        <!--cluster com-->
        <g id="cluster_com">
            <path d="M703.5,6 L733.5,6 A3.75,3.75 0 0 1 736,8.5 L743,29.6094 L1034.5,29.6094 A2.5,2.5 0 0 1 1037,32.1094 L1037,239.5 A2.5,2.5 0 0 1 1034.5,242 L703.5,242 A2.5,2.5 0 0 1 701,239.5 L701,8.5 A2.5,2.5 0 0 1 703.5,6 " fill="none" style="stroke:#000000;stroke-width:1.5;"/>
            <line style="stroke:#000000;stroke-width:1.5;" x1="701" x2="743" y1="29.6094" y2="29.6094"/>
            <text fill="#000000" font-family="sans-serif" font-size="14" font-weight="bold" lengthAdjust="spacing" textLength="29" x="705" y="22.5332">com</text>
        </g>
        <!--cluster mycompany-->
        <g id="cluster_mycompany">
            <path d="M727.5,50 L809.5,50 A3.75,3.75 0 0 1 812,52.5 L819,73.6094 L1010.5,73.6094 A2.5,2.5 0 0 1 1013,76.1094 L1013,215.5 A2.5,2.5 0 0 1 1010.5,218 L727.5,218 A2.5,2.5 0 0 1 725,215.5 L725,52.5 A2.5,2.5 0 0 1 727.5,50 " fill="none" style="stroke:#000000;stroke-width:1.5;"/>
            <line style="stroke:#000000;stroke-width:1.5;" x1="725" x2="819" y1="73.6094" y2="73.6094"/>
            <text fill="#000000" font-family="sans-serif" font-size="14" font-weight="bold" lengthAdjust="spacing" textLength="81" x="729" y="66.5332">mycompany</text>
        </g>
        <!--cluster eva3_10_read_txt_file-->
        <g id="cluster_eva3_10_read_txt_file">
            <path d="M751.5,94 L906.5,94 A3.75,3.75 0 0 1 909,96.5 L916,117.6094 L986.5,117.6094 A2.5,2.5 0 0 1 989,120.1094 L989,191.5 A2.5,2.5 0 0 1 986.5,194 L751.5,194 A2.5,2.5 0 0 1 749,191.5 L749,96.5 A2.5,2.5 0 0 1 751.5,94 " fill="none" style="stroke:#000000;stroke-width:1.5;"/>
            <line style="stroke:#000000;stroke-width:1.5;" x1="749" x2="916" y1="117.6094" y2="117.6094"/>
            <text fill="#000000" font-family="sans-serif" font-size="14" font-weight="bold" lengthAdjust="spacing" textLength="154" x="753" y="110.5332">eva3_10_read_txt_file</text>
        </g>
        <!--cluster java-->
        <g id="cluster_java">
            <path d="M8.5,266 L38.5,266 A3.75,3.75 0 0 1 41,268.5 L48,289.6094 L1901.5,289.6094 A2.5,2.5 0 0 1 1904,292.1094 L1904,499.5 A2.5,2.5 0 0 1 1901.5,502 L8.5,502 A2.5,2.5 0 0 1 6,499.5 L6,268.5 A2.5,2.5 0 0 1 8.5,266 " fill="none" style="stroke:#000000;stroke-width:1.5;"/>
            <line style="stroke:#000000;stroke-width:1.5;" x1="6" x2="48" y1="289.6094" y2="289.6094"/>
            <text fill="#000000" font-family="sans-serif" font-size="14" font-weight="bold" lengthAdjust="spacing" textLength="29" x="10" y="282.5332">java</text>
        </g>
        <!--cluster io-->
        <g id="cluster_io">
            <path d="M777.5,354 L791.5,354 A3.75,3.75 0 0 1 794,356.5 L801,377.6094 L1877.5,377.6094 A2.5,2.5 0 0 1 1880,380.1094 L1880,451.5 A2.5,2.5 0 0 1 1877.5,454 L777.5,454 A2.5,2.5 0 0 1 775,451.5 L775,356.5 A2.5,2.5 0 0 1 777.5,354 " fill="none" style="stroke:#000000;stroke-width:1.5;"/>
            <line style="stroke:#000000;stroke-width:1.5;" x1="775" x2="801" y1="377.6094" y2="377.6094"/>
            <text fill="#000000" font-family="sans-serif" font-size="14" font-weight="bold" lengthAdjust="spacing" textLength="13" x="779" y="370.5332">io</text>
        </g>
        <!--cluster nio-->
        <g id="cluster_nio">
            <path d="M411.5,310 L434.5,310 A3.75,3.75 0 0 1 437,312.5 L444,333.6094 L748.5,333.6094 A2.5,2.5 0 0 1 751,336.1094 L751,475.5 A2.5,2.5 0 0 1 748.5,478 L411.5,478 A2.5,2.5 0 0 1 409,475.5 L409,312.5 A2.5,2.5 0 0 1 411.5,310 " fill="none" style="stroke:#000000;stroke-width:1.5;"/>
            <line style="stroke:#000000;stroke-width:1.5;" x1="409" x2="444" y1="333.6094" y2="333.6094"/>
            <text fill="#000000" font-family="sans-serif" font-size="14" font-weight="bold" lengthAdjust="spacing" textLength="22" x="413" y="326.5332">nio</text>
        </g>
        <!--cluster file-->
        <g id="cluster_file">
            <path d="M435.5,354 L458.5,354 A3.75,3.75 0 0 1 461,356.5 L468,377.6094 L724.5,377.6094 A2.5,2.5 0 0 1 727,380.1094 L727,451.5 A2.5,2.5 0 0 1 724.5,454 L435.5,454 A2.5,2.5 0 0 1 433,451.5 L433,356.5 A2.5,2.5 0 0 1 435.5,354 " fill="none" style="stroke:#000000;stroke-width:1.5;"/>
            <line style="stroke:#000000;stroke-width:1.5;" x1="433" x2="468" y1="377.6094" y2="377.6094"/>
            <text fill="#000000" font-family="sans-serif" font-size="14" font-weight="bold" lengthAdjust="spacing" textLength="22" x="437" y="370.5332">file</text>
        </g>
        <!--cluster util-->
        <g id="cluster_util">
            <path d="M32.5,310 L55.5,310 A3.75,3.75 0 0 1 58,312.5 L65,333.6094 L382.5,333.6094 A2.5,2.5 0 0 1 385,336.1094 L385,475.5 A2.5,2.5 0 0 1 382.5,478 L32.5,478 A2.5,2.5 0 0 1 30,475.5 L30,312.5 A2.5,2.5 0 0 1 32.5,310 " fill="none" style="stroke:#000000;stroke-width:1.5;"/>
            <line style="stroke:#000000;stroke-width:1.5;" x1="30" x2="65" y1="333.6094" y2="333.6094"/>
            <text fill="#000000" font-family="sans-serif" font-size="14" font-weight="bold" lengthAdjust="spacing" textLength="22" x="34" y="326.5332">util</text>
        </g>
        <!--cluster logging-->
        <g id="cluster_logging">
            <path d="M152.5,354 L206.5,354 A3.75,3.75 0 0 1 209,356.5 L216,377.6094 L358.5,377.6094 A2.5,2.5 0 0 1 361,380.1094 L361,451.5 A2.5,2.5 0 0 1 358.5,454 L152.5,454 A2.5,2.5 0 0 1 150,451.5 L150,356.5 A2.5,2.5 0 0 1 152.5,354 " fill="none" style="stroke:#000000;stroke-width:1.5;"/>
            <line style="stroke:#000000;stroke-width:1.5;" x1="150" x2="216" y1="377.6094" y2="377.6094"/>
            <text fill="#000000" font-family="sans-serif" font-size="14" font-weight="bold" lengthAdjust="spacing" textLength="53" x="154" y="370.5332">logging</text>
        </g>
        <!--class EVA3_10_READ_TXT_FILE-->
        <g id="elem_EVA3_10_READ_TXT_FILE">
            <rect codeLine="1" fill="#F1F1F1" height="48" id="EVA3_10_READ_TXT_FILE" rx="2.5" ry="2.5" style="stroke:#181818;stroke-width:0.5;" width="208" x="765" y="130"/>
            <ellipse cx="780" cy="146" fill="#ADD1B2" rx="11" ry="11" style="stroke:#181818;stroke-width:1.0;"/>
            <path d="M782.7656,141.875 Q782.9219,141.6563 783.1094,141.5469 Q783.2969,141.4375 783.5156,141.4375 Q783.8906,141.4375 784.125,141.7031 Q784.3594,141.9531 784.3594,142.5625 L784.3594,144.0156 Q784.3594,144.625 784.125,144.8906 Q783.8906,145.1563 783.5156,145.1563 Q783.1719,145.1563 782.9688,144.9531 Q782.7656,144.7656 782.6563,144.25 Q782.6094,143.8906 782.4219,143.7031 Q782.0938,143.3281 781.4844,143.1094 Q780.875,142.8906 780.25,142.8906 Q779.4844,142.8906 778.8438,143.2188 Q778.2188,143.5469 777.7188,144.2969 Q777.2344,145.0469 777.2344,146.0781 L777.2344,147.1719 Q777.2344,148.4063 778.125,149.2344 Q779.0156,150.0469 780.6094,150.0469 Q781.5469,150.0469 782.2031,149.7969 Q782.5938,149.6406 783.0156,149.2031 Q783.2813,148.9375 783.4219,148.8594 Q783.5781,148.7813 783.7813,148.7813 Q784.1094,148.7813 784.3594,149.0469 Q784.625,149.2969 784.625,149.6406 Q784.625,149.9844 784.2813,150.3906 Q783.7813,150.9688 782.9844,151.2969 Q781.9063,151.75 780.6094,151.75 Q779.0938,151.75 777.8906,151.125 Q776.9063,150.625 776.2188,149.5625 Q775.5313,148.4844 775.5313,147.2031 L775.5313,146.0469 Q775.5313,144.7188 776.1406,143.5781 Q776.7656,142.4219 777.8594,141.8125 Q778.9531,141.1875 780.1875,141.1875 Q780.9219,141.1875 781.5625,141.3594 Q782.2188,141.5156 782.7656,141.875 Z " fill="#000000"/>
            <text fill="#000000" font-family="sans-serif" font-size="14" lengthAdjust="spacing" textLength="176" x="794" y="151.7285">EVA3_10_READ_TXT_FILE</text>
            <line style="stroke:#181818;stroke-width:0.5;" x1="766" x2="972" y1="162" y2="162"/>
            <line style="stroke:#181818;stroke-width:0.5;" x1="766" x2="972" y1="170" y2="170"/>
        </g>
        <!--class BufferedReader-->
        <g id="elem_BufferedReader">
            <rect codeLine="2" fill="#F1F1F1" height="48" id="BufferedReader" rx="2.5" ry="2.5" style="stroke:#181818;stroke-width:0.5;" width="133" x="1730.5" y="390"/>
            <ellipse cx="1745.5" cy="406" fill="#ADD1B2" rx="11" ry="11" style="stroke:#181818;stroke-width:1.0;"/>
            <path d="M1748.2656,401.875 Q1748.4219,401.6563 1748.6094,401.5469 Q1748.7969,401.4375 1749.0156,401.4375 Q1749.3906,401.4375 1749.625,401.7031 Q1749.8594,401.9531 1749.8594,402.5625 L1749.8594,404.0156 Q1749.8594,404.625 1749.625,404.8906 Q1749.3906,405.1563 1749.0156,405.1563 Q1748.6719,405.1563 1748.4688,404.9531 Q1748.2656,404.7656 1748.1563,404.25 Q1748.1094,403.8906 1747.9219,403.7031 Q1747.5938,403.3281 1746.9844,403.1094 Q1746.375,402.8906 1745.75,402.8906 Q1744.9844,402.8906 1744.3438,403.2188 Q1743.7188,403.5469 1743.2188,404.2969 Q1742.7344,405.0469 1742.7344,406.0781 L1742.7344,407.1719 Q1742.7344,408.4063 1743.625,409.2344 Q1744.5156,410.0469 1746.1094,410.0469 Q1747.0469,410.0469 1747.7031,409.7969 Q1748.0938,409.6406 1748.5156,409.2031 Q1748.7813,408.9375 1748.9219,408.8594 Q1749.0781,408.7813 1749.2813,408.7813 Q1749.6094,408.7813 1749.8594,409.0469 Q1750.125,409.2969 1750.125,409.6406 Q1750.125,409.9844 1749.7813,410.3906 Q1749.2813,410.9688 1748.4844,411.2969 Q1747.4063,411.75 1746.1094,411.75 Q1744.5938,411.75 1743.3906,411.125 Q1742.4063,410.625 1741.7188,409.5625 Q1741.0313,408.4844 1741.0313,407.2031 L1741.0313,406.0469 Q1741.0313,404.7188 1741.6406,403.5781 Q1742.2656,402.4219 1743.3594,401.8125 Q1744.4531,401.1875 1745.6875,401.1875 Q1746.4219,401.1875 1747.0625,401.3594 Q1747.7188,401.5156 1748.2656,401.875 Z " fill="#000000"/>
            <text fill="#000000" font-family="sans-serif" font-size="14" lengthAdjust="spacing" textLength="101" x="1759.5" y="411.7285">BufferedReader</text>
            <line style="stroke:#181818;stroke-width:0.5;" x1="1731.5" x2="1862.5" y1="422" y2="422"/>
            <line style="stroke:#181818;stroke-width:0.5;" x1="1731.5" x2="1862.5" y1="430" y2="430"/>
        </g>
        <!--class File-->
        <g id="elem_File">
            <rect codeLine="3" fill="#F1F1F1" height="48" id="File" rx="2.5" ry="2.5" style="stroke:#181818;stroke-width:0.5;" width="55" x="1640.5" y="390"/>
            <ellipse cx="1655.5" cy="406" fill="#ADD1B2" rx="11" ry="11" style="stroke:#181818;stroke-width:1.0;"/>
            <path d="M1658.2656,401.875 Q1658.4219,401.6563 1658.6094,401.5469 Q1658.7969,401.4375 1659.0156,401.4375 Q1659.3906,401.4375 1659.625,401.7031 Q1659.8594,401.9531 1659.8594,402.5625 L1659.8594,404.0156 Q1659.8594,404.625 1659.625,404.8906 Q1659.3906,405.1563 1659.0156,405.1563 Q1658.6719,405.1563 1658.4688,404.9531 Q1658.2656,404.7656 1658.1563,404.25 Q1658.1094,403.8906 1657.9219,403.7031 Q1657.5938,403.3281 1656.9844,403.1094 Q1656.375,402.8906 1655.75,402.8906 Q1654.9844,402.8906 1654.3438,403.2188 Q1653.7188,403.5469 1653.2188,404.2969 Q1652.7344,405.0469 1652.7344,406.0781 L1652.7344,407.1719 Q1652.7344,408.4063 1653.625,409.2344 Q1654.5156,410.0469 1656.1094,410.0469 Q1657.0469,410.0469 1657.7031,409.7969 Q1658.0938,409.6406 1658.5156,409.2031 Q1658.7813,408.9375 1658.9219,408.8594 Q1659.0781,408.7813 1659.2813,408.7813 Q1659.6094,408.7813 1659.8594,409.0469 Q1660.125,409.2969 1660.125,409.6406 Q1660.125,409.9844 1659.7813,410.3906 Q1659.2813,410.9688 1658.4844,411.2969 Q1657.4063,411.75 1656.1094,411.75 Q1654.5938,411.75 1653.3906,411.125 Q1652.4063,410.625 1651.7188,409.5625 Q1651.0313,408.4844 1651.0313,407.2031 L1651.0313,406.0469 Q1651.0313,404.7188 1651.6406,403.5781 Q1652.2656,402.4219 1653.3594,401.8125 Q1654.4531,401.1875 1655.6875,401.1875 Q1656.4219,401.1875 1657.0625,401.3594 Q1657.7188,401.5156 1658.2656,401.875 Z " fill="#000000"/>
            <text fill="#000000" font-family="sans-serif" font-size="14" lengthAdjust="spacing" textLength="23" x="1669.5" y="411.7285">File</text>
            <line style="stroke:#181818;stroke-width:0.5;" x1="1641.5" x2="1694.5" y1="422" y2="422"/>
            <line style="stroke:#181818;stroke-width:0.5;" x1="1641.5" x2="1694.5" y1="430" y2="430"/>
        </g>
        <!--class FileInputStream-->
        <g id="elem_FileInputStream">
            <rect codeLine="4" fill="#F1F1F1" height="48" id="FileInputStream" rx="2.5" ry="2.5" style="stroke:#181818;stroke-width:0.5;" width="131" x="1474.5" y="390"/>
            <ellipse cx="1489.5" cy="406" fill="#ADD1B2" rx="11" ry="11" style="stroke:#181818;stroke-width:1.0;"/>
            <path d="M1492.2656,401.875 Q1492.4219,401.6563 1492.6094,401.5469 Q1492.7969,401.4375 1493.0156,401.4375 Q1493.3906,401.4375 1493.625,401.7031 Q1493.8594,401.9531 1493.8594,402.5625 L1493.8594,404.0156 Q1493.8594,404.625 1493.625,404.8906 Q1493.3906,405.1563 1493.0156,405.1563 Q1492.6719,405.1563 1492.4688,404.9531 Q1492.2656,404.7656 1492.1563,404.25 Q1492.1094,403.8906 1491.9219,403.7031 Q1491.5938,403.3281 1490.9844,403.1094 Q1490.375,402.8906 1489.75,402.8906 Q1488.9844,402.8906 1488.3438,403.2188 Q1487.7188,403.5469 1487.2188,404.2969 Q1486.7344,405.0469 1486.7344,406.0781 L1486.7344,407.1719 Q1486.7344,408.4063 1487.625,409.2344 Q1488.5156,410.0469 1490.1094,410.0469 Q1491.0469,410.0469 1491.7031,409.7969 Q1492.0938,409.6406 1492.5156,409.2031 Q1492.7813,408.9375 1492.9219,408.8594 Q1493.0781,408.7813 1493.2813,408.7813 Q1493.6094,408.7813 1493.8594,409.0469 Q1494.125,409.2969 1494.125,409.6406 Q1494.125,409.9844 1493.7813,410.3906 Q1493.2813,410.9688 1492.4844,411.2969 Q1491.4063,411.75 1490.1094,411.75 Q1488.5938,411.75 1487.3906,411.125 Q1486.4063,410.625 1485.7188,409.5625 Q1485.0313,408.4844 1485.0313,407.2031 L1485.0313,406.0469 Q1485.0313,404.7188 1485.6406,403.5781 Q1486.2656,402.4219 1487.3594,401.8125 Q1488.4531,401.1875 1489.6875,401.1875 Q1490.4219,401.1875 1491.0625,401.3594 Q1491.7188,401.5156 1492.2656,401.875 Z " fill="#000000"/>
            <text fill="#000000" font-family="sans-serif" font-size="14" lengthAdjust="spacing" textLength="99" x="1503.5" y="411.7285">FileInputStream</text>
            <line style="stroke:#181818;stroke-width:0.5;" x1="1475.5" x2="1604.5" y1="422" y2="422"/>
            <line style="stroke:#181818;stroke-width:0.5;" x1="1475.5" x2="1604.5" y1="430" y2="430"/>
        </g>
        <!--class FileNotFoundException-->
        <g id="elem_FileNotFoundException">
            <rect codeLine="5" fill="#F1F1F1" height="48" id="FileNotFoundException" rx="2.5" ry="2.5" style="stroke:#181818;stroke-width:0.5;" width="178" x="1261" y="390"/>
            <ellipse cx="1276" cy="406" fill="#ADD1B2" rx="11" ry="11" style="stroke:#181818;stroke-width:1.0;"/>
            <path d="M1278.7656,401.875 Q1278.9219,401.6563 1279.1094,401.5469 Q1279.2969,401.4375 1279.5156,401.4375 Q1279.8906,401.4375 1280.125,401.7031 Q1280.3594,401.9531 1280.3594,402.5625 L1280.3594,404.0156 Q1280.3594,404.625 1280.125,404.8906 Q1279.8906,405.1563 1279.5156,405.1563 Q1279.1719,405.1563 1278.9688,404.9531 Q1278.7656,404.7656 1278.6563,404.25 Q1278.6094,403.8906 1278.4219,403.7031 Q1278.0938,403.3281 1277.4844,403.1094 Q1276.875,402.8906 1276.25,402.8906 Q1275.4844,402.8906 1274.8438,403.2188 Q1274.2188,403.5469 1273.7188,404.2969 Q1273.2344,405.0469 1273.2344,406.0781 L1273.2344,407.1719 Q1273.2344,408.4063 1274.125,409.2344 Q1275.0156,410.0469 1276.6094,410.0469 Q1277.5469,410.0469 1278.2031,409.7969 Q1278.5938,409.6406 1279.0156,409.2031 Q1279.2813,408.9375 1279.4219,408.8594 Q1279.5781,408.7813 1279.7813,408.7813 Q1280.1094,408.7813 1280.3594,409.0469 Q1280.625,409.2969 1280.625,409.6406 Q1280.625,409.9844 1280.2813,410.3906 Q1279.7813,410.9688 1278.9844,411.2969 Q1277.9063,411.75 1276.6094,411.75 Q1275.0938,411.75 1273.8906,411.125 Q1272.9063,410.625 1272.2188,409.5625 Q1271.5313,408.4844 1271.5313,407.2031 L1271.5313,406.0469 Q1271.5313,404.7188 1272.1406,403.5781 Q1272.7656,402.4219 1273.8594,401.8125 Q1274.9531,401.1875 1276.1875,401.1875 Q1276.9219,401.1875 1277.5625,401.3594 Q1278.2188,401.5156 1278.7656,401.875 Z " fill="#000000"/>
            <text fill="#000000" font-family="sans-serif" font-size="14" lengthAdjust="spacing" textLength="146" x="1290" y="411.7285">FileNotFoundException</text>
            <line style="stroke:#181818;stroke-width:0.5;" x1="1262" x2="1438" y1="422" y2="422"/>
            <line style="stroke:#181818;stroke-width:0.5;" x1="1262" x2="1438" y1="430" y2="430"/>
        </g>
        <!--class FileReader-->
        <g id="elem_FileReader">
            <rect codeLine="6" fill="#F1F1F1" height="48" id="FileReader" rx="2.5" ry="2.5" style="stroke:#181818;stroke-width:0.5;" width="102" x="1124" y="390"/>
            <ellipse cx="1139" cy="406" fill="#ADD1B2" rx="11" ry="11" style="stroke:#181818;stroke-width:1.0;"/>
            <path d="M1141.7656,401.875 Q1141.9219,401.6563 1142.1094,401.5469 Q1142.2969,401.4375 1142.5156,401.4375 Q1142.8906,401.4375 1143.125,401.7031 Q1143.3594,401.9531 1143.3594,402.5625 L1143.3594,404.0156 Q1143.3594,404.625 1143.125,404.8906 Q1142.8906,405.1563 1142.5156,405.1563 Q1142.1719,405.1563 1141.9688,404.9531 Q1141.7656,404.7656 1141.6563,404.25 Q1141.6094,403.8906 1141.4219,403.7031 Q1141.0938,403.3281 1140.4844,403.1094 Q1139.875,402.8906 1139.25,402.8906 Q1138.4844,402.8906 1137.8438,403.2188 Q1137.2188,403.5469 1136.7188,404.2969 Q1136.2344,405.0469 1136.2344,406.0781 L1136.2344,407.1719 Q1136.2344,408.4063 1137.125,409.2344 Q1138.0156,410.0469 1139.6094,410.0469 Q1140.5469,410.0469 1141.2031,409.7969 Q1141.5938,409.6406 1142.0156,409.2031 Q1142.2813,408.9375 1142.4219,408.8594 Q1142.5781,408.7813 1142.7813,408.7813 Q1143.1094,408.7813 1143.3594,409.0469 Q1143.625,409.2969 1143.625,409.6406 Q1143.625,409.9844 1143.2813,410.3906 Q1142.7813,410.9688 1141.9844,411.2969 Q1140.9063,411.75 1139.6094,411.75 Q1138.0938,411.75 1136.8906,411.125 Q1135.9063,410.625 1135.2188,409.5625 Q1134.5313,408.4844 1134.5313,407.2031 L1134.5313,406.0469 Q1134.5313,404.7188 1135.1406,403.5781 Q1135.7656,402.4219 1136.8594,401.8125 Q1137.9531,401.1875 1139.1875,401.1875 Q1139.9219,401.1875 1140.5625,401.3594 Q1141.2188,401.5156 1141.7656,401.875 Z " fill="#000000"/>
            <text fill="#000000" font-family="sans-serif" font-size="14" lengthAdjust="spacing" textLength="70" x="1153" y="411.7285">FileReader</text>
            <line style="stroke:#181818;stroke-width:0.5;" x1="1125" x2="1225" y1="422" y2="422"/>
            <line style="stroke:#181818;stroke-width:0.5;" x1="1125" x2="1225" y1="430" y2="430"/>
        </g>
        <!--class IOException-->
        <g id="elem_IOException">
            <rect codeLine="7" fill="#F1F1F1" height="48" id="IOException" rx="2.5" ry="2.5" style="stroke:#181818;stroke-width:0.5;" width="107" x="981.5" y="390"/>
            <ellipse cx="996.5" cy="406" fill="#ADD1B2" rx="11" ry="11" style="stroke:#181818;stroke-width:1.0;"/>
            <path d="M999.2656,401.875 Q999.4219,401.6563 999.6094,401.5469 Q999.7969,401.4375 1000.0156,401.4375 Q1000.3906,401.4375 1000.625,401.7031 Q1000.8594,401.9531 1000.8594,402.5625 L1000.8594,404.0156 Q1000.8594,404.625 1000.625,404.8906 Q1000.3906,405.1563 1000.0156,405.1563 Q999.6719,405.1563 999.4688,404.9531 Q999.2656,404.7656 999.1563,404.25 Q999.1094,403.8906 998.9219,403.7031 Q998.5938,403.3281 997.9844,403.1094 Q997.375,402.8906 996.75,402.8906 Q995.9844,402.8906 995.3438,403.2188 Q994.7188,403.5469 994.2188,404.2969 Q993.7344,405.0469 993.7344,406.0781 L993.7344,407.1719 Q993.7344,408.4063 994.625,409.2344 Q995.5156,410.0469 997.1094,410.0469 Q998.0469,410.0469 998.7031,409.7969 Q999.0938,409.6406 999.5156,409.2031 Q999.7813,408.9375 999.9219,408.8594 Q1000.0781,408.7813 1000.2813,408.7813 Q1000.6094,408.7813 1000.8594,409.0469 Q1001.125,409.2969 1001.125,409.6406 Q1001.125,409.9844 1000.7813,410.3906 Q1000.2813,410.9688 999.4844,411.2969 Q998.4063,411.75 997.1094,411.75 Q995.5938,411.75 994.3906,411.125 Q993.4063,410.625 992.7188,409.5625 Q992.0313,408.4844 992.0313,407.2031 L992.0313,406.0469 Q992.0313,404.7188 992.6406,403.5781 Q993.2656,402.4219 994.3594,401.8125 Q995.4531,401.1875 996.6875,401.1875 Q997.4219,401.1875 998.0625,401.3594 Q998.7188,401.5156 999.2656,401.875 Z " fill="#000000"/>
            <text fill="#000000" font-family="sans-serif" font-size="14" lengthAdjust="spacing" textLength="75" x="1010.5" y="411.7285">IOException</text>
            <line style="stroke:#181818;stroke-width:0.5;" x1="982.5" x2="1087.5" y1="422" y2="422"/>
            <line style="stroke:#181818;stroke-width:0.5;" x1="982.5" x2="1087.5" y1="430" y2="430"/>
        </g>
        <!--class InputStreamReader-->
        <g id="elem_InputStreamReader">
            <rect codeLine="8" fill="#F1F1F1" height="48" id="InputStreamReader" rx="2.5" ry="2.5" style="stroke:#181818;stroke-width:0.5;" width="155" x="791.5" y="390"/>
            <ellipse cx="806.5" cy="406" fill="#ADD1B2" rx="11" ry="11" style="stroke:#181818;stroke-width:1.0;"/>
            <path d="M809.2656,401.875 Q809.4219,401.6563 809.6094,401.5469 Q809.7969,401.4375 810.0156,401.4375 Q810.3906,401.4375 810.625,401.7031 Q810.8594,401.9531 810.8594,402.5625 L810.8594,404.0156 Q810.8594,404.625 810.625,404.8906 Q810.3906,405.1563 810.0156,405.1563 Q809.6719,405.1563 809.4688,404.9531 Q809.2656,404.7656 809.1563,404.25 Q809.1094,403.8906 808.9219,403.7031 Q808.5938,403.3281 807.9844,403.1094 Q807.375,402.8906 806.75,402.8906 Q805.9844,402.8906 805.3438,403.2188 Q804.7188,403.5469 804.2188,404.2969 Q803.7344,405.0469 803.7344,406.0781 L803.7344,407.1719 Q803.7344,408.4063 804.625,409.2344 Q805.5156,410.0469 807.1094,410.0469 Q808.0469,410.0469 808.7031,409.7969 Q809.0938,409.6406 809.5156,409.2031 Q809.7813,408.9375 809.9219,408.8594 Q810.0781,408.7813 810.2813,408.7813 Q810.6094,408.7813 810.8594,409.0469 Q811.125,409.2969 811.125,409.6406 Q811.125,409.9844 810.7813,410.3906 Q810.2813,410.9688 809.4844,411.2969 Q808.4063,411.75 807.1094,411.75 Q805.5938,411.75 804.3906,411.125 Q803.4063,410.625 802.7188,409.5625 Q802.0313,408.4844 802.0313,407.2031 L802.0313,406.0469 Q802.0313,404.7188 802.6406,403.5781 Q803.2656,402.4219 804.3594,401.8125 Q805.4531,401.1875 806.6875,401.1875 Q807.4219,401.1875 808.0625,401.3594 Q808.7188,401.5156 809.2656,401.875 Z " fill="#000000"/>
            <text fill="#000000" font-family="sans-serif" font-size="14" lengthAdjust="spacing" textLength="123" x="820.5" y="411.7285">InputStreamReader</text>
            <line style="stroke:#181818;stroke-width:0.5;" x1="792.5" x2="945.5" y1="422" y2="422"/>
            <line style="stroke:#181818;stroke-width:0.5;" x1="792.5" x2="945.5" y1="430" y2="430"/>
        </g>
        <!--class Files-->
        <g id="elem_Files">
            <rect codeLine="9" fill="#F1F1F1" height="48" id="Files" rx="2.5" ry="2.5" style="stroke:#181818;stroke-width:0.5;" width="62" x="649" y="390"/>
            <ellipse cx="664" cy="406" fill="#ADD1B2" rx="11" ry="11" style="stroke:#181818;stroke-width:1.0;"/>
            <path d="M666.7656,401.875 Q666.9219,401.6563 667.1094,401.5469 Q667.2969,401.4375 667.5156,401.4375 Q667.8906,401.4375 668.125,401.7031 Q668.3594,401.9531 668.3594,402.5625 L668.3594,404.0156 Q668.3594,404.625 668.125,404.8906 Q667.8906,405.1563 667.5156,405.1563 Q667.1719,405.1563 666.9688,404.9531 Q666.7656,404.7656 666.6563,404.25 Q666.6094,403.8906 666.4219,403.7031 Q666.0938,403.3281 665.4844,403.1094 Q664.875,402.8906 664.25,402.8906 Q663.4844,402.8906 662.8438,403.2188 Q662.2188,403.5469 661.7188,404.2969 Q661.2344,405.0469 661.2344,406.0781 L661.2344,407.1719 Q661.2344,408.4063 662.125,409.2344 Q663.0156,410.0469 664.6094,410.0469 Q665.5469,410.0469 666.2031,409.7969 Q666.5938,409.6406 667.0156,409.2031 Q667.2813,408.9375 667.4219,408.8594 Q667.5781,408.7813 667.7813,408.7813 Q668.1094,408.7813 668.3594,409.0469 Q668.625,409.2969 668.625,409.6406 Q668.625,409.9844 668.2813,410.3906 Q667.7813,410.9688 666.9844,411.2969 Q665.9063,411.75 664.6094,411.75 Q663.0938,411.75 661.8906,411.125 Q660.9063,410.625 660.2188,409.5625 Q659.5313,408.4844 659.5313,407.2031 L659.5313,406.0469 Q659.5313,404.7188 660.1406,403.5781 Q660.7656,402.4219 661.8594,401.8125 Q662.9531,401.1875 664.1875,401.1875 Q664.9219,401.1875 665.5625,401.3594 Q666.2188,401.5156 666.7656,401.875 Z " fill="#000000"/>
            <text fill="#000000" font-family="sans-serif" font-size="14" lengthAdjust="spacing" textLength="30" x="678" y="411.7285">Files</text>
            <line style="stroke:#181818;stroke-width:0.5;" x1="650" x2="710" y1="422" y2="422"/>
            <line style="stroke:#181818;stroke-width:0.5;" x1="650" x2="710" y1="430" y2="430"/>
        </g>
        <!--class Path-->
        <g id="elem_Path">
            <rect codeLine="10" fill="#F1F1F1" height="48" id="Path" rx="2.5" ry="2.5" style="stroke:#181818;stroke-width:0.5;" width="61" x="552.5" y="390"/>
            <ellipse cx="567.5" cy="406" fill="#ADD1B2" rx="11" ry="11" style="stroke:#181818;stroke-width:1.0;"/>
            <path d="M570.2656,401.875 Q570.4219,401.6563 570.6094,401.5469 Q570.7969,401.4375 571.0156,401.4375 Q571.3906,401.4375 571.625,401.7031 Q571.8594,401.9531 571.8594,402.5625 L571.8594,404.0156 Q571.8594,404.625 571.625,404.8906 Q571.3906,405.1563 571.0156,405.1563 Q570.6719,405.1563 570.4688,404.9531 Q570.2656,404.7656 570.1563,404.25 Q570.1094,403.8906 569.9219,403.7031 Q569.5938,403.3281 568.9844,403.1094 Q568.375,402.8906 567.75,402.8906 Q566.9844,402.8906 566.3438,403.2188 Q565.7188,403.5469 565.2188,404.2969 Q564.7344,405.0469 564.7344,406.0781 L564.7344,407.1719 Q564.7344,408.4063 565.625,409.2344 Q566.5156,410.0469 568.1094,410.0469 Q569.0469,410.0469 569.7031,409.7969 Q570.0938,409.6406 570.5156,409.2031 Q570.7813,408.9375 570.9219,408.8594 Q571.0781,408.7813 571.2813,408.7813 Q571.6094,408.7813 571.8594,409.0469 Q572.125,409.2969 572.125,409.6406 Q572.125,409.9844 571.7813,410.3906 Q571.2813,410.9688 570.4844,411.2969 Q569.4063,411.75 568.1094,411.75 Q566.5938,411.75 565.3906,411.125 Q564.4063,410.625 563.7188,409.5625 Q563.0313,408.4844 563.0313,407.2031 L563.0313,406.0469 Q563.0313,404.7188 563.6406,403.5781 Q564.2656,402.4219 565.3594,401.8125 Q566.4531,401.1875 567.6875,401.1875 Q568.4219,401.1875 569.0625,401.3594 Q569.7188,401.5156 570.2656,401.875 Z " fill="#000000"/>
            <text fill="#000000" font-family="sans-serif" font-size="14" lengthAdjust="spacing" textLength="29" x="581.5" y="411.7285">Path</text>
            <line style="stroke:#181818;stroke-width:0.5;" x1="553.5" x2="612.5" y1="422" y2="422"/>
            <line style="stroke:#181818;stroke-width:0.5;" x1="553.5" x2="612.5" y1="430" y2="430"/>
        </g>
        <!--class Paths-->
        <g id="elem_Paths">
            <rect codeLine="11" fill="#F1F1F1" height="48" id="Paths" rx="2.5" ry="2.5" style="stroke:#181818;stroke-width:0.5;" width="68" x="449" y="390"/>
            <ellipse cx="464" cy="406" fill="#ADD1B2" rx="11" ry="11" style="stroke:#181818;stroke-width:1.0;"/>
            <path d="M466.7656,401.875 Q466.9219,401.6563 467.1094,401.5469 Q467.2969,401.4375 467.5156,401.4375 Q467.8906,401.4375 468.125,401.7031 Q468.3594,401.9531 468.3594,402.5625 L468.3594,404.0156 Q468.3594,404.625 468.125,404.8906 Q467.8906,405.1563 467.5156,405.1563 Q467.1719,405.1563 466.9688,404.9531 Q466.7656,404.7656 466.6563,404.25 Q466.6094,403.8906 466.4219,403.7031 Q466.0938,403.3281 465.4844,403.1094 Q464.875,402.8906 464.25,402.8906 Q463.4844,402.8906 462.8438,403.2188 Q462.2188,403.5469 461.7188,404.2969 Q461.2344,405.0469 461.2344,406.0781 L461.2344,407.1719 Q461.2344,408.4063 462.125,409.2344 Q463.0156,410.0469 464.6094,410.0469 Q465.5469,410.0469 466.2031,409.7969 Q466.5938,409.6406 467.0156,409.2031 Q467.2813,408.9375 467.4219,408.8594 Q467.5781,408.7813 467.7813,408.7813 Q468.1094,408.7813 468.3594,409.0469 Q468.625,409.2969 468.625,409.6406 Q468.625,409.9844 468.2813,410.3906 Q467.7813,410.9688 466.9844,411.2969 Q465.9063,411.75 464.6094,411.75 Q463.0938,411.75 461.8906,411.125 Q460.9063,410.625 460.2188,409.5625 Q459.5313,408.4844 459.5313,407.2031 L459.5313,406.0469 Q459.5313,404.7188 460.1406,403.5781 Q460.7656,402.4219 461.8594,401.8125 Q462.9531,401.1875 464.1875,401.1875 Q464.9219,401.1875 465.5625,401.3594 Q466.2188,401.5156 466.7656,401.875 Z " fill="#000000"/>
            <text fill="#000000" font-family="sans-serif" font-size="14" lengthAdjust="spacing" textLength="36" x="478" y="411.7285">Paths</text>
            <line style="stroke:#181818;stroke-width:0.5;" x1="450" x2="516" y1="422" y2="422"/>
            <line style="stroke:#181818;stroke-width:0.5;" x1="450" x2="516" y1="430" y2="430"/>
        </g>
        <!--class Scanner-->
        <g id="elem_Scanner">
            <rect codeLine="12" fill="#F1F1F1" height="48" id="Scanner" rx="2.5" ry="2.5" style="stroke:#181818;stroke-width:0.5;" width="85" x="46.5" y="390"/>
            <ellipse cx="61.5" cy="406" fill="#ADD1B2" rx="11" ry="11" style="stroke:#181818;stroke-width:1.0;"/>
            <path d="M64.2656,401.875 Q64.4219,401.6563 64.6094,401.5469 Q64.7969,401.4375 65.0156,401.4375 Q65.3906,401.4375 65.625,401.7031 Q65.8594,401.9531 65.8594,402.5625 L65.8594,404.0156 Q65.8594,404.625 65.625,404.8906 Q65.3906,405.1563 65.0156,405.1563 Q64.6719,405.1563 64.4688,404.9531 Q64.2656,404.7656 64.1563,404.25 Q64.1094,403.8906 63.9219,403.7031 Q63.5938,403.3281 62.9844,403.1094 Q62.375,402.8906 61.75,402.8906 Q60.9844,402.8906 60.3438,403.2188 Q59.7188,403.5469 59.2188,404.2969 Q58.7344,405.0469 58.7344,406.0781 L58.7344,407.1719 Q58.7344,408.4063 59.625,409.2344 Q60.5156,410.0469 62.1094,410.0469 Q63.0469,410.0469 63.7031,409.7969 Q64.0938,409.6406 64.5156,409.2031 Q64.7813,408.9375 64.9219,408.8594 Q65.0781,408.7813 65.2813,408.7813 Q65.6094,408.7813 65.8594,409.0469 Q66.125,409.2969 66.125,409.6406 Q66.125,409.9844 65.7813,410.3906 Q65.2813,410.9688 64.4844,411.2969 Q63.4063,411.75 62.1094,411.75 Q60.5938,411.75 59.3906,411.125 Q58.4063,410.625 57.7188,409.5625 Q57.0313,408.4844 57.0313,407.2031 L57.0313,406.0469 Q57.0313,404.7188 57.6406,403.5781 Q58.2656,402.4219 59.3594,401.8125 Q60.4531,401.1875 61.6875,401.1875 Q62.4219,401.1875 63.0625,401.3594 Q63.7188,401.5156 64.2656,401.875 Z " fill="#000000"/>
            <text fill="#000000" font-family="sans-serif" font-size="14" lengthAdjust="spacing" textLength="53" x="75.5" y="411.7285">Scanner</text>
            <line style="stroke:#181818;stroke-width:0.5;" x1="47.5" x2="130.5" y1="422" y2="422"/>
            <line style="stroke:#181818;stroke-width:0.5;" x1="47.5" x2="130.5" y1="430" y2="430"/>
        </g>
        <!--class Level-->
        <g id="elem_Level">
            <rect codeLine="13" fill="#F1F1F1" height="48" id="Level" rx="2.5" ry="2.5" style="stroke:#181818;stroke-width:0.5;" width="66" x="279" y="390"/>
            <ellipse cx="294" cy="406" fill="#ADD1B2" rx="11" ry="11" style="stroke:#181818;stroke-width:1.0;"/>
            <path d="M296.7656,401.875 Q296.9219,401.6563 297.1094,401.5469 Q297.2969,401.4375 297.5156,401.4375 Q297.8906,401.4375 298.125,401.7031 Q298.3594,401.9531 298.3594,402.5625 L298.3594,404.0156 Q298.3594,404.625 298.125,404.8906 Q297.8906,405.1563 297.5156,405.1563 Q297.1719,405.1563 296.9688,404.9531 Q296.7656,404.7656 296.6563,404.25 Q296.6094,403.8906 296.4219,403.7031 Q296.0938,403.3281 295.4844,403.1094 Q294.875,402.8906 294.25,402.8906 Q293.4844,402.8906 292.8438,403.2188 Q292.2188,403.5469 291.7188,404.2969 Q291.2344,405.0469 291.2344,406.0781 L291.2344,407.1719 Q291.2344,408.4063 292.125,409.2344 Q293.0156,410.0469 294.6094,410.0469 Q295.5469,410.0469 296.2031,409.7969 Q296.5938,409.6406 297.0156,409.2031 Q297.2813,408.9375 297.4219,408.8594 Q297.5781,408.7813 297.7813,408.7813 Q298.1094,408.7813 298.3594,409.0469 Q298.625,409.2969 298.625,409.6406 Q298.625,409.9844 298.2813,410.3906 Q297.7813,410.9688 296.9844,411.2969 Q295.9063,411.75 294.6094,411.75 Q293.0938,411.75 291.8906,411.125 Q290.9063,410.625 290.2188,409.5625 Q289.5313,408.4844 289.5313,407.2031 L289.5313,406.0469 Q289.5313,404.7188 290.1406,403.5781 Q290.7656,402.4219 291.8594,401.8125 Q292.9531,401.1875 294.1875,401.1875 Q294.9219,401.1875 295.5625,401.3594 Q296.2188,401.5156 296.7656,401.875 Z " fill="#000000"/>
            <text fill="#000000" font-family="sans-serif" font-size="14" lengthAdjust="spacing" textLength="34" x="308" y="411.7285">Level</text>
            <line style="stroke:#181818;stroke-width:0.5;" x1="280" x2="344" y1="422" y2="422"/>
            <line style="stroke:#181818;stroke-width:0.5;" x1="280" x2="344" y1="430" y2="430"/>
        </g>
        <!--class Logger-->
        <g id="elem_Logger">
            <rect codeLine="14" fill="#F1F1F1" height="48" id="Logger" rx="2.5" ry="2.5" style="stroke:#181818;stroke-width:0.5;" width="77" x="166.5" y="390"/>
            <ellipse cx="181.5" cy="406" fill="#ADD1B2" rx="11" ry="11" style="stroke:#181818;stroke-width:1.0;"/>
            <path d="M184.2656,401.875 Q184.4219,401.6563 184.6094,401.5469 Q184.7969,401.4375 185.0156,401.4375 Q185.3906,401.4375 185.625,401.7031 Q185.8594,401.9531 185.8594,402.5625 L185.8594,404.0156 Q185.8594,404.625 185.625,404.8906 Q185.3906,405.1563 185.0156,405.1563 Q184.6719,405.1563 184.4688,404.9531 Q184.2656,404.7656 184.1563,404.25 Q184.1094,403.8906 183.9219,403.7031 Q183.5938,403.3281 182.9844,403.1094 Q182.375,402.8906 181.75,402.8906 Q180.9844,402.8906 180.3438,403.2188 Q179.7188,403.5469 179.2188,404.2969 Q178.7344,405.0469 178.7344,406.0781 L178.7344,407.1719 Q178.7344,408.4063 179.625,409.2344 Q180.5156,410.0469 182.1094,410.0469 Q183.0469,410.0469 183.7031,409.7969 Q184.0938,409.6406 184.5156,409.2031 Q184.7813,408.9375 184.9219,408.8594 Q185.0781,408.7813 185.2813,408.7813 Q185.6094,408.7813 185.8594,409.0469 Q186.125,409.2969 186.125,409.6406 Q186.125,409.9844 185.7813,410.3906 Q185.2813,410.9688 184.4844,411.2969 Q183.4063,411.75 182.1094,411.75 Q180.5938,411.75 179.3906,411.125 Q178.4063,410.625 177.7188,409.5625 Q177.0313,408.4844 177.0313,407.2031 L177.0313,406.0469 Q177.0313,404.7188 177.6406,403.5781 Q178.2656,402.4219 179.3594,401.8125 Q180.4531,401.1875 181.6875,401.1875 Q182.4219,401.1875 183.0625,401.3594 Q183.7188,401.5156 184.2656,401.875 Z " fill="#000000"/>
            <text fill="#000000" font-family="sans-serif" font-size="14" lengthAdjust="spacing" textLength="45" x="195.5" y="411.7285">Logger</text>
            <line style="stroke:#181818;stroke-width:0.5;" x1="167.5" x2="242.5" y1="422" y2="422"/>
            <line style="stroke:#181818;stroke-width:0.5;" x1="167.5" x2="242.5" y1="430" y2="430"/>
        </g>
        <!--link EVA3_10_READ_TXT_FILE to BufferedReader-->
        <g id="link_EVA3_10_READ_TXT_FILE_BufferedReader">
            <path codeLine="15" d="M973.09,156.02 C1171.53,159.84 1594.72,177.46 1713,258 C1759.17,289.44 1780.6386,349.0367 1790.0586,383.9867 " fill="none" id="EVA3_10_READ_TXT_FILE-to-BufferedReader" style="stroke:#181818;stroke-width:1.0;stroke-dasharray:7.0,7.0;"/>
            <polygon fill="#181818" points="1791.62,389.78,1793.14,380.0491,1790.3188,384.9523,1785.4157,382.1311,1791.62,389.78" style="stroke:#181818;stroke-width:1.0;"/>
        </g>
        <!--link EVA3_10_READ_TXT_FILE to File-->
        <g id="link_EVA3_10_READ_TXT_FILE_File">
            <path codeLine="16" d="M973.11,155.63 C1156.72,158.89 1527.73,175.78 1623,258 C1661.61,291.32 1667.971,349.6007 1668.481,383.9907 " fill="none" id="EVA3_10_READ_TXT_FILE-to-File" style="stroke:#181818;stroke-width:1.0;stroke-dasharray:7.0,7.0;"/>
            <polygon fill="#181818" points="1668.57,389.99,1672.4361,380.9317,1668.4959,384.9905,1664.437,381.0503,1668.57,389.99" style="stroke:#181818;stroke-width:1.0;"/>
        </g>
        <!--link EVA3_10_READ_TXT_FILE to FileInputStream-->
        <g id="link_EVA3_10_READ_TXT_FILE_FileInputStream">
            <path codeLine="17" d="M973.1,162.34 C1120.71,174.54 1381.32,203.25 1457,258 C1502.01,290.56 1523.3796,349.3846 1532.8996,384.0146 " fill="none" id="EVA3_10_READ_TXT_FILE-to-FileInputStream" style="stroke:#181818;stroke-width:1.0;stroke-dasharray:7.0,7.0;"/>
            <polygon fill="#181818" points="1534.49,389.8,1535.9613,380.0617,1533.1646,384.9789,1528.2474,382.1822,1534.49,389.8" style="stroke:#181818;stroke-width:1.0;"/>
        </g>
        <!--link EVA3_10_READ_TXT_FILE to FileNotFoundException-->
        <g id="link_EVA3_10_READ_TXT_FILE_FileNotFoundException">
            <path codeLine="18" d="M973.17,164.06 C1053.44,175.4 1163.88,200.86 1244,258 C1292.17,292.36 1322.8747,350.4309 1338.0847,384.5109 " fill="none" id="EVA3_10_READ_TXT_FILE-to-FileNotFoundException" style="stroke:#181818;stroke-width:1.0;stroke-dasharray:7.0,7.0;"/>
            <polygon fill="#181818" points="1340.53,389.99,1340.5147,380.1412,1338.4922,385.4241,1333.2093,383.4016,1340.53,389.99" style="stroke:#181818;stroke-width:1.0;"/>
        </g>
        <!--link EVA3_10_READ_TXT_FILE to FileReader-->
        <g id="link_EVA3_10_READ_TXT_FILE_FileReader">
            <path codeLine="19" d="M962.7,178.06 C1010.57,193.86 1066.81,219.15 1106,258 C1143.66,295.32 1161.0898,350.9509 1168.9398,384.1609 " fill="none" id="EVA3_10_READ_TXT_FILE-to-FileReader" style="stroke:#181818;stroke-width:1.0;stroke-dasharray:7.0,7.0;"/>
            <polygon fill="#181818" points="1170.32,390,1172.1424,380.3212,1169.1698,385.1341,1164.357,382.1615,1170.32,390" style="stroke:#181818;stroke-width:1.0;"/>
        </g>
        <!--link EVA3_10_READ_TXT_FILE to IOException-->
        <g id="link_EVA3_10_READ_TXT_FILE_IOException">
            <path codeLine="20" d="M894.39,178.13 C915.03,197.88 943.92,227.83 964,258 C992.86,301.37 1013.5529,352.73 1024.9429,384.11 " fill="none" id="EVA3_10_READ_TXT_FILE-to-IOException" style="stroke:#181818;stroke-width:1.0;stroke-dasharray:7.0,7.0;"/>
            <polygon fill="#181818" points="1026.99,389.75,1027.6793,379.9253,1025.2841,385.05,1020.1593,382.6548,1026.99,389.75" style="stroke:#181818;stroke-width:1.0;"/>
        </g>
        <!--link EVA3_10_READ_TXT_FILE to InputStreamReader-->
        <g id="link_EVA3_10_READ_TXT_FILE_InputStreamReader">
            <path codeLine="21" d="M869,178.35 C869,227.47 869,334.98 869,383.89 " fill="none" id="EVA3_10_READ_TXT_FILE-to-InputStreamReader" style="stroke:#181818;stroke-width:1.0;stroke-dasharray:7.0,7.0;"/>
            <polygon fill="#181818" points="869,389.89,873,380.89,869,384.89,865,380.89,869,389.89" style="stroke:#181818;stroke-width:1.0;"/>
        </g>
        <!--link EVA3_10_READ_TXT_FILE to Files-->
        <g id="link_EVA3_10_READ_TXT_FILE_Files">
            <path codeLine="22" d="M845.62,178.02 C825.73,198.2 796.97,228.78 775,258 C741.71,302.27 712.2892,353.4259 695.2792,384.5259 " fill="none" id="EVA3_10_READ_TXT_FILE-to-Files" style="stroke:#181818;stroke-width:1.0;stroke-dasharray:7.0,7.0;"/>
            <polygon fill="#181818" points="692.4,389.79,700.2281,383.8133,694.7993,385.4033,693.2094,379.9745,692.4,389.79" style="stroke:#181818;stroke-width:1.0;"/>
        </g>
        <!--link EVA3_10_READ_TXT_FILE to Path-->
        <g id="link_EVA3_10_READ_TXT_FILE_Path">
            <path codeLine="23" d="M768.14,178.04 C721.01,193.51 667.59,218.51 632,258 C598.08,295.63 588.2186,350.728 585.0086,383.858 " fill="none" id="EVA3_10_READ_TXT_FILE-to-Path" style="stroke:#181818;stroke-width:1.0;stroke-dasharray:7.0,7.0;"/>
            <polygon fill="#181818" points="584.43,389.83,589.2793,381.2577,584.9122,384.8533,581.3166,380.4862,584.43,389.83" style="stroke:#181818;stroke-width:1.0;"/>
        </g>
        <!--link EVA3_10_READ_TXT_FILE to Paths-->
        <g id="link_EVA3_10_READ_TXT_FILE_Paths">
            <path codeLine="24" d="M764.82,162.45 C691.68,172.98 596.35,198.14 535,258 C498.33,293.78 488.0858,350.1867 484.8958,383.8667 " fill="none" id="EVA3_10_READ_TXT_FILE-to-Paths" style="stroke:#181818;stroke-width:1.0;stroke-dasharray:7.0,7.0;"/>
            <polygon fill="#181818" points="484.33,389.84,489.1608,381.2573,484.8015,384.8623,481.1965,380.5029,484.33,389.84" style="stroke:#181818;stroke-width:1.0;"/>
        </g>
        <!--link EVA3_10_READ_TXT_FILE to Scanner-->
        <g id="link_EVA3_10_READ_TXT_FILE_Scanner">
            <path codeLine="25" d="M764.84,157.33 C588.99,163.28 243.23,184.28 150,258 C108.72,290.65 96.04,349.2658 91.74,383.8658 " fill="none" id="EVA3_10_READ_TXT_FILE-to-Scanner" style="stroke:#181818;stroke-width:1.0;stroke-dasharray:7.0,7.0;"/>
            <polygon fill="#181818" points="91,389.82,96.0794,381.382,91.6166,384.8582,88.1405,380.3954,91,389.82" style="stroke:#181818;stroke-width:1.0;"/>
        </g>
        <!--link EVA3_10_READ_TXT_FILE to Level-->
        <g id="link_EVA3_10_READ_TXT_FILE_Level">
            <path codeLine="26" d="M764.99,160.2 C671.58,169.14 534.01,193.26 433,258 C380.83,291.43 344.6392,350.0736 326.3392,384.4536 " fill="none" id="EVA3_10_READ_TXT_FILE-to-Level" style="stroke:#181818;stroke-width:1.0;stroke-dasharray:7.0,7.0;"/>
            <polygon fill="#181818" points="323.52,389.75,331.2798,383.6848,325.8693,385.3363,324.2179,379.9259,323.52,389.75" style="stroke:#181818;stroke-width:1.0;"/>
        </g>
        <!--link EVA3_10_READ_TXT_FILE to Logger-->
        <g id="link_EVA3_10_READ_TXT_FILE_Logger">
            <path codeLine="27" d="M764.92,160.26 C612.05,170.01 336.82,195.84 262,258 C221.86,291.35 210.6013,349.6512 207.0813,384.0212 " fill="none" id="EVA3_10_READ_TXT_FILE-to-Logger" style="stroke:#181818;stroke-width:1.0;stroke-dasharray:7.0,7.0;"/>
            <polygon fill="#181818" points="206.47,389.99,211.3661,381.4444,206.9794,385.016,203.4078,380.6293,206.47,389.99" style="stroke:#181818;stroke-width:1.0;"/>
        </g>
        <!--SRC=[hPJ1YeCm48RlVOe-mR1BxmMNLH1AkxIox2s4EDgKc8X6iM-_QNffRBoqSqbW_lpVH6ScGl6-NmlJG7DrQylr5N3a6_RvmJha9REJPPLK2EblugF7DFbcnL_1idoNheJtN_Z8GHhu6geAEooFpedTJCmS9HBATJlOatN9ceYwDpOpWoxJIM1hfT6HCz5i-M79yf3msQdT0V-vDt0VLNwuFIyAWMMmKi59SAt393wkJ5rBNSCEHrJBgjjlvbSBj0ROBfQ717elAnagQ0SoQgIDoDYaVpDeMnhYSxk_pvsF2I7nFbx4G98hXkDCn9iz0zHK_tpy0m00]-->
    </g>
</svg>
