<?xml version="1.0" encoding="UTF-8"?><svg xmlns="http://www.w3.org/2000/svg" xmlns:xlink="http://www.w3.org/1999/xlink" contentStyleType="text/css" height="441px" preserveAspectRatio="none" style="width:397px;height:441px;background:#FFFFFF;" version="1.1" viewBox="0 0 397 441" width="397px" zoomAndPan="magnify">
    <defs/>
    <g>
        <!--cluster com-->
        <g id="cluster_com">
            <path d="M26.5,6 L56.5,6 A3.75,3.75 0 0 1 59,8.5 L66,29.6094 L333.5,29.6094 A2.5,2.5 0 0 1 336,32.1094 L336,239.5 A2.5,2.5 0 0 1 333.5,242 L26.5,242 A2.5,2.5 0 0 1 24,239.5 L24,8.5 A2.5,2.5 0 0 1 26.5,6 " fill="none" style="stroke:#000000;stroke-width:1.5;"/>
            <line style="stroke:#000000;stroke-width:1.5;" x1="24" x2="66" y1="29.6094" y2="29.6094"/>
            <text fill="#000000" font-family="sans-serif" font-size="14" font-weight="bold" lengthAdjust="spacing" textLength="29" x="28" y="22.5332">com</text>
        </g>
        <!--cluster mycompany-->
        <g id="cluster_mycompany">
            <path d="M50.5,50 L132.5,50 A3.75,3.75 0 0 1 135,52.5 L142,73.6094 L309.5,73.6094 A2.5,2.5 0 0 1 312,76.1094 L312,215.5 A2.5,2.5 0 0 1 309.5,218 L50.5,218 A2.5,2.5 0 0 1 48,215.5 L48,52.5 A2.5,2.5 0 0 1 50.5,50 " fill="none" style="stroke:#000000;stroke-width:1.5;"/>
            <line style="stroke:#000000;stroke-width:1.5;" x1="48" x2="142" y1="73.6094" y2="73.6094"/>
            <text fill="#000000" font-family="sans-serif" font-size="14" font-weight="bold" lengthAdjust="spacing" textLength="81" x="52" y="66.5332">mycompany</text>
        </g>
        <!--cluster eva3_4_tray_catch-->
        <g id="cluster_eva3_4_tray_catch">
            <path d="M74.5,94 L205.5,94 A3.75,3.75 0 0 1 208,96.5 L215,117.6094 L285.5,117.6094 A2.5,2.5 0 0 1 288,120.1094 L288,191.5 A2.5,2.5 0 0 1 285.5,194 L74.5,194 A2.5,2.5 0 0 1 72,191.5 L72,96.5 A2.5,2.5 0 0 1 74.5,94 " fill="none" style="stroke:#000000;stroke-width:1.5;"/>
            <line style="stroke:#000000;stroke-width:1.5;" x1="72" x2="215" y1="117.6094" y2="117.6094"/>
            <text fill="#000000" font-family="sans-serif" font-size="14" font-weight="bold" lengthAdjust="spacing" textLength="130" x="76" y="110.5332">eva3_4_tray_catch</text>
        </g>
        <!--cluster java-->
        <g id="cluster_java">
            <path d="M8.5,266 L38.5,266 A3.75,3.75 0 0 1 41,268.5 L48,289.6094 L387.5,289.6094 A2.5,2.5 0 0 1 390,292.1094 L390,431.5 A2.5,2.5 0 0 1 387.5,434 L8.5,434 A2.5,2.5 0 0 1 6,431.5 L6,268.5 A2.5,2.5 0 0 1 8.5,266 " fill="none" style="stroke:#000000;stroke-width:1.5;"/>
            <line style="stroke:#000000;stroke-width:1.5;" x1="6" x2="48" y1="289.6094" y2="289.6094"/>
            <text fill="#000000" font-family="sans-serif" font-size="14" font-weight="bold" lengthAdjust="spacing" textLength="29" x="10" y="282.5332">java</text>
        </g>
        <!--cluster util-->
        <g id="cluster_util">
            <path d="M32.5,310 L55.5,310 A3.75,3.75 0 0 1 58,312.5 L65,333.6094 L363.5,333.6094 A2.5,2.5 0 0 1 366,336.1094 L366,407.5 A2.5,2.5 0 0 1 363.5,410 L32.5,410 A2.5,2.5 0 0 1 30,407.5 L30,312.5 A2.5,2.5 0 0 1 32.5,310 " fill="none" style="stroke:#000000;stroke-width:1.5;"/>
            <line style="stroke:#000000;stroke-width:1.5;" x1="30" x2="65" y1="333.6094" y2="333.6094"/>
            <text fill="#000000" font-family="sans-serif" font-size="14" font-weight="bold" lengthAdjust="spacing" textLength="22" x="34" y="326.5332">util</text>
        </g>
        <!--class EVA3_4_TRAY_CATCH-->
        <g id="elem_EVA3_4_TRAY_CATCH">
            <rect codeLine="1" fill="#F1F1F1" height="48" id="EVA3_4_TRAY_CATCH" rx="2.5" ry="2.5" style="stroke:#181818;stroke-width:0.5;" width="183" x="88.5" y="130"/>
            <ellipse cx="103.5" cy="146" fill="#ADD1B2" rx="11" ry="11" style="stroke:#181818;stroke-width:1.0;"/>
            <path d="M106.2656,141.875 Q106.4219,141.6563 106.6094,141.5469 Q106.7969,141.4375 107.0156,141.4375 Q107.3906,141.4375 107.625,141.7031 Q107.8594,141.9531 107.8594,142.5625 L107.8594,144.0156 Q107.8594,144.625 107.625,144.8906 Q107.3906,145.1563 107.0156,145.1563 Q106.6719,145.1563 106.4688,144.9531 Q106.2656,144.7656 106.1563,144.25 Q106.1094,143.8906 105.9219,143.7031 Q105.5938,143.3281 104.9844,143.1094 Q104.375,142.8906 103.75,142.8906 Q102.9844,142.8906 102.3438,143.2188 Q101.7188,143.5469 101.2188,144.2969 Q100.7344,145.0469 100.7344,146.0781 L100.7344,147.1719 Q100.7344,148.4063 101.625,149.2344 Q102.5156,150.0469 104.1094,150.0469 Q105.0469,150.0469 105.7031,149.7969 Q106.0938,149.6406 106.5156,149.2031 Q106.7813,148.9375 106.9219,148.8594 Q107.0781,148.7813 107.2813,148.7813 Q107.6094,148.7813 107.8594,149.0469 Q108.125,149.2969 108.125,149.6406 Q108.125,149.9844 107.7813,150.3906 Q107.2813,150.9688 106.4844,151.2969 Q105.4063,151.75 104.1094,151.75 Q102.5938,151.75 101.3906,151.125 Q100.4063,150.625 99.7188,149.5625 Q99.0313,148.4844 99.0313,147.2031 L99.0313,146.0469 Q99.0313,144.7188 99.6406,143.5781 Q100.2656,142.4219 101.3594,141.8125 Q102.4531,141.1875 103.6875,141.1875 Q104.4219,141.1875 105.0625,141.3594 Q105.7188,141.5156 106.2656,141.875 Z " fill="#000000"/>
            <text fill="#000000" font-family="sans-serif" font-size="14" lengthAdjust="spacing" textLength="151" x="117.5" y="151.7285">EVA3_4_TRAY_CATCH</text>
            <line style="stroke:#181818;stroke-width:0.5;" x1="89.5" x2="270.5" y1="162" y2="162"/>
            <line style="stroke:#181818;stroke-width:0.5;" x1="89.5" x2="270.5" y1="170" y2="170"/>
        </g>
        <!--class InputMismatchException-->
        <g id="elem_InputMismatchException">
            <rect codeLine="2" fill="#F1F1F1" height="48" id="InputMismatchException" rx="2.5" ry="2.5" style="stroke:#181818;stroke-width:0.5;" width="183" x="166.5" y="346"/>
            <ellipse cx="181.5" cy="362" fill="#ADD1B2" rx="11" ry="11" style="stroke:#181818;stroke-width:1.0;"/>
            <path d="M184.2656,357.875 Q184.4219,357.6563 184.6094,357.5469 Q184.7969,357.4375 185.0156,357.4375 Q185.3906,357.4375 185.625,357.7031 Q185.8594,357.9531 185.8594,358.5625 L185.8594,360.0156 Q185.8594,360.625 185.625,360.8906 Q185.3906,361.1563 185.0156,361.1563 Q184.6719,361.1563 184.4688,360.9531 Q184.2656,360.7656 184.1563,360.25 Q184.1094,359.8906 183.9219,359.7031 Q183.5938,359.3281 182.9844,359.1094 Q182.375,358.8906 181.75,358.8906 Q180.9844,358.8906 180.3438,359.2188 Q179.7188,359.5469 179.2188,360.2969 Q178.7344,361.0469 178.7344,362.0781 L178.7344,363.1719 Q178.7344,364.4063 179.625,365.2344 Q180.5156,366.0469 182.1094,366.0469 Q183.0469,366.0469 183.7031,365.7969 Q184.0938,365.6406 184.5156,365.2031 Q184.7813,364.9375 184.9219,364.8594 Q185.0781,364.7813 185.2813,364.7813 Q185.6094,364.7813 185.8594,365.0469 Q186.125,365.2969 186.125,365.6406 Q186.125,365.9844 185.7813,366.3906 Q185.2813,366.9688 184.4844,367.2969 Q183.4063,367.75 182.1094,367.75 Q180.5938,367.75 179.3906,367.125 Q178.4063,366.625 177.7188,365.5625 Q177.0313,364.4844 177.0313,363.2031 L177.0313,362.0469 Q177.0313,360.7188 177.6406,359.5781 Q178.2656,358.4219 179.3594,357.8125 Q180.4531,357.1875 181.6875,357.1875 Q182.4219,357.1875 183.0625,357.3594 Q183.7188,357.5156 184.2656,357.875 Z " fill="#000000"/>
            <text fill="#000000" font-family="sans-serif" font-size="14" lengthAdjust="spacing" textLength="151" x="195.5" y="367.7285">InputMismatchException</text>
            <line style="stroke:#181818;stroke-width:0.5;" x1="167.5" x2="348.5" y1="378" y2="378"/>
            <line style="stroke:#181818;stroke-width:0.5;" x1="167.5" x2="348.5" y1="386" y2="386"/>
        </g>
        <!--class Scanner-->
        <g id="elem_Scanner">
            <rect codeLine="3" fill="#F1F1F1" height="48" id="Scanner" rx="2.5" ry="2.5" style="stroke:#181818;stroke-width:0.5;" width="85" x="46.5" y="346"/>
            <ellipse cx="61.5" cy="362" fill="#ADD1B2" rx="11" ry="11" style="stroke:#181818;stroke-width:1.0;"/>
            <path d="M64.2656,357.875 Q64.4219,357.6563 64.6094,357.5469 Q64.7969,357.4375 65.0156,357.4375 Q65.3906,357.4375 65.625,357.7031 Q65.8594,357.9531 65.8594,358.5625 L65.8594,360.0156 Q65.8594,360.625 65.625,360.8906 Q65.3906,361.1563 65.0156,361.1563 Q64.6719,361.1563 64.4688,360.9531 Q64.2656,360.7656 64.1563,360.25 Q64.1094,359.8906 63.9219,359.7031 Q63.5938,359.3281 62.9844,359.1094 Q62.375,358.8906 61.75,358.8906 Q60.9844,358.8906 60.3438,359.2188 Q59.7188,359.5469 59.2188,360.2969 Q58.7344,361.0469 58.7344,362.0781 L58.7344,363.1719 Q58.7344,364.4063 59.625,365.2344 Q60.5156,366.0469 62.1094,366.0469 Q63.0469,366.0469 63.7031,365.7969 Q64.0938,365.6406 64.5156,365.2031 Q64.7813,364.9375 64.9219,364.8594 Q65.0781,364.7813 65.2813,364.7813 Q65.6094,364.7813 65.8594,365.0469 Q66.125,365.2969 66.125,365.6406 Q66.125,365.9844 65.7813,366.3906 Q65.2813,366.9688 64.4844,367.2969 Q63.4063,367.75 62.1094,367.75 Q60.5938,367.75 59.3906,367.125 Q58.4063,366.625 57.7188,365.5625 Q57.0313,364.4844 57.0313,363.2031 L57.0313,362.0469 Q57.0313,360.7188 57.6406,359.5781 Q58.2656,358.4219 59.3594,357.8125 Q60.4531,357.1875 61.6875,357.1875 Q62.4219,357.1875 63.0625,357.3594 Q63.7188,357.5156 64.2656,357.875 Z " fill="#000000"/>
            <text fill="#000000" font-family="sans-serif" font-size="14" lengthAdjust="spacing" textLength="53" x="75.5" y="367.7285">Scanner</text>
            <line style="stroke:#181818;stroke-width:0.5;" x1="47.5" x2="130.5" y1="378" y2="378"/>
            <line style="stroke:#181818;stroke-width:0.5;" x1="47.5" x2="130.5" y1="386" y2="386"/>
        </g>
        <!--link EVA3_4_TRAY_CATCH to InputMismatchException-->
        <g id="link_EVA3_4_TRAY_CATCH_InputMismatchException">
            <path codeLine="4" d="M188.5,178.31 C203.5,219.47 232.4659,298.9426 247.4559,340.0826 " fill="none" id="EVA3_4_TRAY_CATCH-to-InputMismatchException" style="stroke:#181818;stroke-width:1.0;stroke-dasharray:7.0,7.0;"/>
            <polygon fill="#181818" points="249.51,345.72,250.1872,335.8944,247.7983,341.0221,242.6706,338.6332,249.51,345.72" style="stroke:#181818;stroke-width:1.0;"/>
        </g>
        <!--link EVA3_4_TRAY_CATCH to Scanner-->
        <g id="link_EVA3_4_TRAY_CATCH_Scanner">
            <path codeLine="5" d="M170.09,178.31 C152.58,219.47 118.7486,299.0588 101.2486,340.1988 " fill="none" id="EVA3_4_TRAY_CATCH-to-Scanner" style="stroke:#181818;stroke-width:1.0;stroke-dasharray:7.0,7.0;"/>
            <polygon fill="#181818" points="98.9,345.72,106.1037,339.0039,100.8572,341.119,98.7421,335.8724,98.9,345.72" style="stroke:#181818;stroke-width:1.0;"/>
        </g>
        <!--SRC=[Iyv9B2vMICxFrSkj1985YNcLUgbbYSRn9l4bHOcLySc99SaPUgvXZY2Ha237o7Xdnn1d3wvaiBwinB94lTAIp1mzpxo2qXBVpE9Sa7hNYkJKWfBC_3mCPS79YNbvgKLS95keeATdHuHr51eBTHu0]-->
    </g>
</svg>
