<?xml version="1.0" encoding="UTF-8"?><svg xmlns="http://www.w3.org/2000/svg" xmlns:xlink="http://www.w3.org/1999/xlink" contentStyleType="text/css" height="441px" preserveAspectRatio="none" style="width:485px;height:441px;background:#FFFFFF;" version="1.1" viewBox="0 0 485 441" width="485px" zoomAndPan="magnify">
    <defs/>
    <g>
        <!--cluster com-->
        <g id="cluster_com">
            <path d="M207,6 L237,6 A3.75,3.75 0 0 1 239.5,8.5 L246.5,29.6094 L476,29.6094 A2.5,2.5 0 0 1 478.5,32.1094 L478.5,239.5 A2.5,2.5 0 0 1 476,242 L207,242 A2.5,2.5 0 0 1 204.5,239.5 L204.5,8.5 A2.5,2.5 0 0 1 207,6 " fill="none" style="stroke:#000000;stroke-width:1.5;"/>
            <line style="stroke:#000000;stroke-width:1.5;" x1="204.5" x2="246.5" y1="29.6094" y2="29.6094"/>
            <text fill="#000000" font-family="sans-serif" font-size="14" font-weight="bold" lengthAdjust="spacing" textLength="29" x="208.5" y="22.5332">com</text>
        </g>
        <!--cluster mycompany-->
        <g id="cluster_mycompany">
            <path d="M231,50 L313,50 A3.75,3.75 0 0 1 315.5,52.5 L322.5,73.6094 L452,73.6094 A2.5,2.5 0 0 1 454.5,76.1094 L454.5,215.5 A2.5,2.5 0 0 1 452,218 L231,218 A2.5,2.5 0 0 1 228.5,215.5 L228.5,52.5 A2.5,2.5 0 0 1 231,50 " fill="none" style="stroke:#000000;stroke-width:1.5;"/>
            <line style="stroke:#000000;stroke-width:1.5;" x1="228.5" x2="322.5" y1="73.6094" y2="73.6094"/>
            <text fill="#000000" font-family="sans-serif" font-size="14" font-weight="bold" lengthAdjust="spacing" textLength="81" x="232.5" y="66.5332">mycompany</text>
        </g>
        <!--cluster eva3_7_finally-->
        <g id="cluster_eva3_7_finally">
            <path d="M255,94 L355,94 A3.75,3.75 0 0 1 357.5,96.5 L364.5,117.6094 L428,117.6094 A2.5,2.5 0 0 1 430.5,120.1094 L430.5,191.5 A2.5,2.5 0 0 1 428,194 L255,194 A2.5,2.5 0 0 1 252.5,191.5 L252.5,96.5 A2.5,2.5 0 0 1 255,94 " fill="none" style="stroke:#000000;stroke-width:1.5;"/>
            <line style="stroke:#000000;stroke-width:1.5;" x1="252.5" x2="364.5" y1="117.6094" y2="117.6094"/>
            <text fill="#000000" font-family="sans-serif" font-size="14" font-weight="bold" lengthAdjust="spacing" textLength="99" x="256.5" y="110.5332">eva3_7_finally</text>
        </g>
        <!--cluster java-->
        <g id="cluster_java">
            <path d="M212,266 L242,266 A3.75,3.75 0 0 1 244.5,268.5 L251.5,289.6094 L471,289.6094 A2.5,2.5 0 0 1 473.5,292.1094 L473.5,431.5 A2.5,2.5 0 0 1 471,434 L212,434 A2.5,2.5 0 0 1 209.5,431.5 L209.5,268.5 A2.5,2.5 0 0 1 212,266 " fill="none" style="stroke:#000000;stroke-width:1.5;"/>
            <line style="stroke:#000000;stroke-width:1.5;" x1="209.5" x2="251.5" y1="289.6094" y2="289.6094"/>
            <text fill="#000000" font-family="sans-serif" font-size="14" font-weight="bold" lengthAdjust="spacing" textLength="29" x="213.5" y="282.5332">java</text>
        </g>
        <!--cluster util-->
        <g id="cluster_util">
            <path d="M236,310 L259,310 A3.75,3.75 0 0 1 261.5,312.5 L268.5,333.6094 L447,333.6094 A2.5,2.5 0 0 1 449.5,336.1094 L449.5,407.5 A2.5,2.5 0 0 1 447,410 L236,410 A2.5,2.5 0 0 1 233.5,407.5 L233.5,312.5 A2.5,2.5 0 0 1 236,310 " fill="none" style="stroke:#000000;stroke-width:1.5;"/>
            <line style="stroke:#000000;stroke-width:1.5;" x1="233.5" x2="268.5" y1="333.6094" y2="333.6094"/>
            <text fill="#000000" font-family="sans-serif" font-size="14" font-weight="bold" lengthAdjust="spacing" textLength="22" x="237.5" y="326.5332">util</text>
        </g>
        <!--class EVA3_7_FINALLY-->
        <g id="elem_EVA3_7_FINALLY">
            <rect codeLine="1" fill="#F1F1F1" height="48" id="EVA3_7_FINALLY" rx="2.5" ry="2.5" style="stroke:#181818;stroke-width:0.5;" width="146" x="268.5" y="130"/>
            <ellipse cx="283.5" cy="146" fill="#ADD1B2" rx="11" ry="11" style="stroke:#181818;stroke-width:1.0;"/>
            <path d="M286.2656,141.875 Q286.4219,141.6563 286.6094,141.5469 Q286.7969,141.4375 287.0156,141.4375 Q287.3906,141.4375 287.625,141.7031 Q287.8594,141.9531 287.8594,142.5625 L287.8594,144.0156 Q287.8594,144.625 287.625,144.8906 Q287.3906,145.1563 287.0156,145.1563 Q286.6719,145.1563 286.4688,144.9531 Q286.2656,144.7656 286.1563,144.25 Q286.1094,143.8906 285.9219,143.7031 Q285.5938,143.3281 284.9844,143.1094 Q284.375,142.8906 283.75,142.8906 Q282.9844,142.8906 282.3438,143.2188 Q281.7188,143.5469 281.2188,144.2969 Q280.7344,145.0469 280.7344,146.0781 L280.7344,147.1719 Q280.7344,148.4063 281.625,149.2344 Q282.5156,150.0469 284.1094,150.0469 Q285.0469,150.0469 285.7031,149.7969 Q286.0938,149.6406 286.5156,149.2031 Q286.7813,148.9375 286.9219,148.8594 Q287.0781,148.7813 287.2813,148.7813 Q287.6094,148.7813 287.8594,149.0469 Q288.125,149.2969 288.125,149.6406 Q288.125,149.9844 287.7813,150.3906 Q287.2813,150.9688 286.4844,151.2969 Q285.4063,151.75 284.1094,151.75 Q282.5938,151.75 281.3906,151.125 Q280.4063,150.625 279.7188,149.5625 Q279.0313,148.4844 279.0313,147.2031 L279.0313,146.0469 Q279.0313,144.7188 279.6406,143.5781 Q280.2656,142.4219 281.3594,141.8125 Q282.4531,141.1875 283.6875,141.1875 Q284.4219,141.1875 285.0625,141.3594 Q285.7188,141.5156 286.2656,141.875 Z " fill="#000000"/>
            <text fill="#000000" font-family="sans-serif" font-size="14" lengthAdjust="spacing" textLength="114" x="297.5" y="151.7285">EVA3_7_FINALLY</text>
            <line style="stroke:#181818;stroke-width:0.5;" x1="269.5" x2="413.5" y1="162" y2="162"/>
            <line style="stroke:#181818;stroke-width:0.5;" x1="269.5" x2="413.5" y1="170" y2="170"/>
        </g>
        <!--class InputMismatchException-->
        <g id="elem_InputMismatchException">
            <rect codeLine="2" fill="#F1F1F1" height="48" id="InputMismatchException" rx="2.5" ry="2.5" style="stroke:#181818;stroke-width:0.5;" width="183" x="250" y="346"/>
            <ellipse cx="265" cy="362" fill="#ADD1B2" rx="11" ry="11" style="stroke:#181818;stroke-width:1.0;"/>
            <path d="M267.7656,357.875 Q267.9219,357.6563 268.1094,357.5469 Q268.2969,357.4375 268.5156,357.4375 Q268.8906,357.4375 269.125,357.7031 Q269.3594,357.9531 269.3594,358.5625 L269.3594,360.0156 Q269.3594,360.625 269.125,360.8906 Q268.8906,361.1563 268.5156,361.1563 Q268.1719,361.1563 267.9688,360.9531 Q267.7656,360.7656 267.6563,360.25 Q267.6094,359.8906 267.4219,359.7031 Q267.0938,359.3281 266.4844,359.1094 Q265.875,358.8906 265.25,358.8906 Q264.4844,358.8906 263.8438,359.2188 Q263.2188,359.5469 262.7188,360.2969 Q262.2344,361.0469 262.2344,362.0781 L262.2344,363.1719 Q262.2344,364.4063 263.125,365.2344 Q264.0156,366.0469 265.6094,366.0469 Q266.5469,366.0469 267.2031,365.7969 Q267.5938,365.6406 268.0156,365.2031 Q268.2813,364.9375 268.4219,364.8594 Q268.5781,364.7813 268.7813,364.7813 Q269.1094,364.7813 269.3594,365.0469 Q269.625,365.2969 269.625,365.6406 Q269.625,365.9844 269.2813,366.3906 Q268.7813,366.9688 267.9844,367.2969 Q266.9063,367.75 265.6094,367.75 Q264.0938,367.75 262.8906,367.125 Q261.9063,366.625 261.2188,365.5625 Q260.5313,364.4844 260.5313,363.2031 L260.5313,362.0469 Q260.5313,360.7188 261.1406,359.5781 Q261.7656,358.4219 262.8594,357.8125 Q263.9531,357.1875 265.1875,357.1875 Q265.9219,357.1875 266.5625,357.3594 Q267.2188,357.5156 267.7656,357.875 Z " fill="#000000"/>
            <text fill="#000000" font-family="sans-serif" font-size="14" lengthAdjust="spacing" textLength="151" x="279" y="367.7285">InputMismatchException</text>
            <line style="stroke:#181818;stroke-width:0.5;" x1="251" x2="432" y1="378" y2="378"/>
            <line style="stroke:#181818;stroke-width:0.5;" x1="251" x2="432" y1="386" y2="386"/>
        </g>
        <!--class EVA3_7_FINALLY-->
        <g id="elem_EVA3_7_FINALLY">
            <rect codeLine="4" fill="#F1F1F1" height="65.6094" id="EVA3_7_FINALLY" rx="2.5" ry="2.5" style="stroke:#181818;stroke-width:0.5;" width="181" x="7" y="121"/>
            <ellipse cx="37.75" cy="137" fill="#ADD1B2" rx="11" ry="11" style="stroke:#181818;stroke-width:1.0;"/>
            <path d="M40.5156,132.875 Q40.6719,132.6563 40.8594,132.5469 Q41.0469,132.4375 41.2656,132.4375 Q41.6406,132.4375 41.875,132.7031 Q42.1094,132.9531 42.1094,133.5625 L42.1094,135.0156 Q42.1094,135.625 41.875,135.8906 Q41.6406,136.1563 41.2656,136.1563 Q40.9219,136.1563 40.7188,135.9531 Q40.5156,135.7656 40.4063,135.25 Q40.3594,134.8906 40.1719,134.7031 Q39.8438,134.3281 39.2344,134.1094 Q38.625,133.8906 38,133.8906 Q37.2344,133.8906 36.5938,134.2188 Q35.9688,134.5469 35.4688,135.2969 Q34.9844,136.0469 34.9844,137.0781 L34.9844,138.1719 Q34.9844,139.4063 35.875,140.2344 Q36.7656,141.0469 38.3594,141.0469 Q39.2969,141.0469 39.9531,140.7969 Q40.3438,140.6406 40.7656,140.2031 Q41.0313,139.9375 41.1719,139.8594 Q41.3281,139.7813 41.5313,139.7813 Q41.8594,139.7813 42.1094,140.0469 Q42.375,140.2969 42.375,140.6406 Q42.375,140.9844 42.0313,141.3906 Q41.5313,141.9688 40.7344,142.2969 Q39.6563,142.75 38.3594,142.75 Q36.8438,142.75 35.6406,142.125 Q34.6563,141.625 33.9688,140.5625 Q33.2813,139.4844 33.2813,138.2031 L33.2813,137.0469 Q33.2813,135.7188 33.8906,134.5781 Q34.5156,133.4219 35.6094,132.8125 Q36.7031,132.1875 37.9375,132.1875 Q38.6719,132.1875 39.3125,132.3594 Q39.9688,132.5156 40.5156,132.875 Z " fill="#000000"/>
            <text fill="#000000" font-family="sans-serif" font-size="14" lengthAdjust="spacing" textLength="114" x="55.25" y="142.7285">EVA3_7_FINALLY</text>
            <line style="stroke:#181818;stroke-width:0.5;" x1="8" x2="187" y1="153" y2="153"/>
            <line style="stroke:#181818;stroke-width:0.5;" x1="8" x2="187" y1="161" y2="161"/>
            <ellipse cx="18" cy="175.3047" fill="#84BE84" rx="3" ry="3" style="stroke:#038048;stroke-width:1.0;"/>
            <text fill="#000000" font-family="sans-serif" font-size="14" lengthAdjust="spacing" textLength="155" x="27" y="179.5332">main(String[] args) : void</text>
        </g>
        <!--link EVA3_7_FINALLY to InputMismatchException-->
        <g id="link_EVA3_7_FINALLY_InputMismatchException">
            <path codeLine="3" d="M341.5,178.31 C341.5,219.47 341.5,298.58 341.5,339.72 " fill="none" id="EVA3_7_FINALLY-to-InputMismatchException" style="stroke:#181818;stroke-width:1.0;stroke-dasharray:7.0,7.0;"/>
            <polygon fill="#181818" points="341.5,345.72,345.5,336.72,341.5,340.72,337.5,336.72,341.5,345.72" style="stroke:#181818;stroke-width:1.0;"/>
        </g>
        <!--SRC=[Iyv9B2vMICxFrSkj1985YNcLUgbbYSRnvl5fcNc9EJcLUgvXZY2kcwUVeuzF95SoM4TMObcYNcb9PewUPrv1QOblPd5kOaboXcj5Scf1IMP-7XS9HYhewTaHOI3ONZITrLmAGA2ja9kOcQSHN5AKcPSU7QkGM9HUhAbWfL2Mdvd2LGi0]-->
    </g>
</svg>
