<?xml version="1.0" encoding="UTF-8"?><svg xmlns="http://www.w3.org/2000/svg" xmlns:xlink="http://www.w3.org/1999/xlink" contentStyleType="text/css" height="249px" preserveAspectRatio="none" style="width:509px;height:249px;background:#FFFFFF;" version="1.1" viewBox="0 0 509 249" width="509px" zoomAndPan="magnify">
    <defs/>
    <g>
        <!--cluster com-->
        <g id="cluster_com">
            <path d="M203,6 L233,6 A3.75,3.75 0 0 1 235.5,8.5 L242.5,29.6094 L500,29.6094 A2.5,2.5 0 0 1 502.5,32.1094 L502.5,239.5 A2.5,2.5 0 0 1 500,242 L203,242 A2.5,2.5 0 0 1 200.5,239.5 L200.5,8.5 A2.5,2.5 0 0 1 203,6 " fill="none" style="stroke:#000000;stroke-width:1.5;"/>
            <line style="stroke:#000000;stroke-width:1.5;" x1="200.5" x2="242.5" y1="29.6094" y2="29.6094"/>
            <text fill="#000000" font-family="sans-serif" font-size="14" font-weight="bold" lengthAdjust="spacing" textLength="29" x="204.5" y="22.5332">com</text>
        </g>
        <!--cluster mycompany-->
        <g id="cluster_mycompany">
            <path d="M227,50 L309,50 A3.75,3.75 0 0 1 311.5,52.5 L318.5,73.6094 L476,73.6094 A2.5,2.5 0 0 1 478.5,76.1094 L478.5,215.5 A2.5,2.5 0 0 1 476,218 L227,218 A2.5,2.5 0 0 1 224.5,215.5 L224.5,52.5 A2.5,2.5 0 0 1 227,50 " fill="none" style="stroke:#000000;stroke-width:1.5;"/>
            <line style="stroke:#000000;stroke-width:1.5;" x1="224.5" x2="318.5" y1="73.6094" y2="73.6094"/>
            <text fill="#000000" font-family="sans-serif" font-size="14" font-weight="bold" lengthAdjust="spacing" textLength="81" x="228.5" y="66.5332">mycompany</text>
        </g>
        <!--cluster eva3_3_try_catch-->
        <g id="cluster_eva3_3_try_catch">
            <path d="M251,94 L374,94 A3.75,3.75 0 0 1 376.5,96.5 L383.5,117.6094 L452,117.6094 A2.5,2.5 0 0 1 454.5,120.1094 L454.5,191.5 A2.5,2.5 0 0 1 452,194 L251,194 A2.5,2.5 0 0 1 248.5,191.5 L248.5,96.5 A2.5,2.5 0 0 1 251,94 " fill="none" style="stroke:#000000;stroke-width:1.5;"/>
            <line style="stroke:#000000;stroke-width:1.5;" x1="248.5" x2="383.5" y1="117.6094" y2="117.6094"/>
            <text fill="#000000" font-family="sans-serif" font-size="14" font-weight="bold" lengthAdjust="spacing" textLength="122" x="252.5" y="110.5332">eva3_3_try_catch</text>
        </g>
        <!--class EVA3_3_TRY_CATCH-->
        <g id="elem_EVA3_3_TRY_CATCH">
            <rect codeLine="1" fill="#F1F1F1" height="48" id="EVA3_3_TRY_CATCH" rx="2.5" ry="2.5" style="stroke:#181818;stroke-width:0.5;" width="174" x="264.5" y="130"/>
            <ellipse cx="279.5" cy="146" fill="#ADD1B2" rx="11" ry="11" style="stroke:#181818;stroke-width:1.0;"/>
            <path d="M282.2656,141.875 Q282.4219,141.6563 282.6094,141.5469 Q282.7969,141.4375 283.0156,141.4375 Q283.3906,141.4375 283.625,141.7031 Q283.8594,141.9531 283.8594,142.5625 L283.8594,144.0156 Q283.8594,144.625 283.625,144.8906 Q283.3906,145.1563 283.0156,145.1563 Q282.6719,145.1563 282.4688,144.9531 Q282.2656,144.7656 282.1563,144.25 Q282.1094,143.8906 281.9219,143.7031 Q281.5938,143.3281 280.9844,143.1094 Q280.375,142.8906 279.75,142.8906 Q278.9844,142.8906 278.3438,143.2188 Q277.7188,143.5469 277.2188,144.2969 Q276.7344,145.0469 276.7344,146.0781 L276.7344,147.1719 Q276.7344,148.4063 277.625,149.2344 Q278.5156,150.0469 280.1094,150.0469 Q281.0469,150.0469 281.7031,149.7969 Q282.0938,149.6406 282.5156,149.2031 Q282.7813,148.9375 282.9219,148.8594 Q283.0781,148.7813 283.2813,148.7813 Q283.6094,148.7813 283.8594,149.0469 Q284.125,149.2969 284.125,149.6406 Q284.125,149.9844 283.7813,150.3906 Q283.2813,150.9688 282.4844,151.2969 Q281.4063,151.75 280.1094,151.75 Q278.5938,151.75 277.3906,151.125 Q276.4063,150.625 275.7188,149.5625 Q275.0313,148.4844 275.0313,147.2031 L275.0313,146.0469 Q275.0313,144.7188 275.6406,143.5781 Q276.2656,142.4219 277.3594,141.8125 Q278.4531,141.1875 279.6875,141.1875 Q280.4219,141.1875 281.0625,141.3594 Q281.7188,141.5156 282.2656,141.875 Z " fill="#000000"/>
            <text fill="#000000" font-family="sans-serif" font-size="14" lengthAdjust="spacing" textLength="142" x="293.5" y="151.7285">EVA3_3_TRY_CATCH</text>
            <line style="stroke:#181818;stroke-width:0.5;" x1="265.5" x2="437.5" y1="162" y2="162"/>
            <line style="stroke:#181818;stroke-width:0.5;" x1="265.5" x2="437.5" y1="170" y2="170"/>
        </g>
        <!--class EVA3_3_TRY_CATCH-->
        <g id="elem_EVA3_3_TRY_CATCH">
            <rect codeLine="2" fill="#F1F1F1" height="65.6094" id="EVA3_3_TRY_CATCH" rx="2.5" ry="2.5" style="stroke:#181818;stroke-width:0.5;" width="177" x="7" y="121"/>
            <ellipse cx="23.35" cy="137" fill="#ADD1B2" rx="11" ry="11" style="stroke:#181818;stroke-width:1.0;"/>
            <path d="M26.1156,132.875 Q26.2719,132.6563 26.4594,132.5469 Q26.6469,132.4375 26.8656,132.4375 Q27.2406,132.4375 27.475,132.7031 Q27.7094,132.9531 27.7094,133.5625 L27.7094,135.0156 Q27.7094,135.625 27.475,135.8906 Q27.2406,136.1563 26.8656,136.1563 Q26.5219,136.1563 26.3188,135.9531 Q26.1156,135.7656 26.0063,135.25 Q25.9594,134.8906 25.7719,134.7031 Q25.4438,134.3281 24.8344,134.1094 Q24.225,133.8906 23.6,133.8906 Q22.8344,133.8906 22.1938,134.2188 Q21.5688,134.5469 21.0688,135.2969 Q20.5844,136.0469 20.5844,137.0781 L20.5844,138.1719 Q20.5844,139.4063 21.475,140.2344 Q22.3656,141.0469 23.9594,141.0469 Q24.8969,141.0469 25.5531,140.7969 Q25.9438,140.6406 26.3656,140.2031 Q26.6313,139.9375 26.7719,139.8594 Q26.9281,139.7813 27.1313,139.7813 Q27.4594,139.7813 27.7094,140.0469 Q27.975,140.2969 27.975,140.6406 Q27.975,140.9844 27.6313,141.3906 Q27.1313,141.9688 26.3344,142.2969 Q25.2563,142.75 23.9594,142.75 Q22.4438,142.75 21.2406,142.125 Q20.2563,141.625 19.5688,140.5625 Q18.8813,139.4844 18.8813,138.2031 L18.8813,137.0469 Q18.8813,135.7188 19.4906,134.5781 Q20.1156,133.4219 21.2094,132.8125 Q22.3031,132.1875 23.5375,132.1875 Q24.2719,132.1875 24.9125,132.3594 Q25.5688,132.5156 26.1156,132.875 Z " fill="#000000"/>
            <text fill="#000000" font-family="sans-serif" font-size="14" lengthAdjust="spacing" textLength="142" x="37.65" y="142.7285">EVA3_3_TRY_CATCH</text>
            <line style="stroke:#181818;stroke-width:0.5;" x1="8" x2="183" y1="153" y2="153"/>
            <line style="stroke:#181818;stroke-width:0.5;" x1="8" x2="183" y1="161" y2="161"/>
            <ellipse cx="18" cy="175.3047" fill="#84BE84" rx="3" ry="3" style="stroke:#038048;stroke-width:1.0;"/>
            <text fill="#000000" font-family="sans-serif" font-size="14" lengthAdjust="spacing" textLength="151" x="27" y="179.5332">main(args: String[]):void</text>
        </g>
        <!--SRC=[Iyv9B2vMICxFrSkj1985YNcLUgbbYSRnnl4bHPNnoOaboHbwhc6E886GeCXuPySGPm-kPB0kTE5gBcs5tCJCF8t4elHYAuNWagBClFJeM4shilpC5AvQ0000]-->
    </g>
</svg>
